  0
SECTION
  2
HEADER
  9
$ACADVER
  1
AC1027
  9
$ACADMAINTVER
 70
     8
  9
$DWGCODEPAGE
  3
ANSI_1252
  9
$REQUIREDVERSIONS
160
                 0
  9
$COMMENTS
  1
File was created by Cadenas
  9
$CUSTOMPROPERTYTAG
  1
NN
  9
$CUSTOMPROPERTY
  1
HFS5-2040, HFSB5-2040, CAF5-2040, HFSF5-2040
  9
$CUSTOMPROPERTYTAG
  1
NT
  9
$CUSTOMPROPERTY
  1
20?E40mm?p HFS5?V???[?Y?A???~?t???[?? -2?ñ?a-
  9
$CUSTOMPROPERTYTAG
  1
NB
  9
$CUSTOMPROPERTY
  1
HFSB5-2040-50
  9
$CUSTOMPROPERTYTAG
  1
NBSYN
  9
$CUSTOMPROPERTY
  1
$PN.
  9
$CUSTOMPROPERTYTAG
  1
LINA
  9
$CUSTOMPROPERTY
  1
HFSB5-2040-50
  9
$CUSTOMPROPERTYTAG
  1
PN
  9
$CUSTOMPROPERTY
  1
HFSB5-2040-50
  9
$CUSTOMPROPERTYTAG
  1
TPS
  9
$CUSTOMPROPERTY
  1
HFSB5-2040
  9
$CUSTOMPROPERTYTAG
  1
MAT
  9
$CUSTOMPROPERTY
  1
A6N01SS-T5 Aluminum Alloy or 6005A-T5 Aluminum Alloy
  9
$CUSTOMPROPERTYTAG
  1
ST
  9
$CUSTOMPROPERTY
  1
Black Anodize
  9
$CUSTOMPROPERTYTAG
  1
FRMW
  9
$CUSTOMPROPERTY
  1
20
  9
$CUSTOMPROPERTYTAG
  1
FRMH
  9
$CUSTOMPROPERTY
  1
40
  9
$CUSTOMPROPERTYTAG
  1
L
  9
$CUSTOMPROPERTY
  1
50
  9
$CUSTOMPROPERTYTAG
  1
MASS
  9
$CUSTOMPROPERTY
  1
0.88
  9
$CUSTOMPROPERTYTAG
  1
SA
  9
$CUSTOMPROPERTY
  1
324
  9
$CUSTOMPROPERTYTAG
  1
LX
  9
$CUSTOMPROPERTY
  1
1.358x10^ 4
  9
$CUSTOMPROPERTYTAG
  1
LY
  9
$CUSTOMPROPERTY
  1
5.13x10^ 4
  9
$CUSTOMPROPERTYTAG
  1
ALT1
  9
$CUSTOMPROPERTY
  1
w/o End Tapping
  9
$CUSTOMPROPERTYTAG
  1
ALT2
  9
$CUSTOMPROPERTY
  1
w/o SC (High Precision Cut)
  9
$CUSTOMPROPERTYTAG
  1
ALT2ALG
  9
$CUSTOMPROPERTY
  1
 '', 'w/o SC (High Precision Cut)', '-SC', 'with SC (High Precision Cut)' 
  9
$CUSTOMPROPERTYTAG
  1
ALT3
  9
$CUSTOMPROPERTY
  1
w/o 45 Degree Cut
  9
$CUSTOMPROPERTYTAG
  1
ALT3ALG
  9
$CUSTOMPROPERTY
  1
 '','w/o 45 Degree Cut','1','with 45 Degree Cut' 
  9
$CUSTOMPROPERTYTAG
  1
CPS
  9
$CUSTOMPROPERTY
  1
N/A
  9
$CUSTOMPROPERTYTAG
  1
CPSALG
  9
$CUSTOMPROPERTY
  1
 '','N/A' 
  9
$CUSTOMPROPERTYTAG
  1
CDSL
  9
$CUSTOMPROPERTY
  1
N/A
  9
$CUSTOMPROPERTYTAG
  1
CDSLALG
  9
$CUSTOMPROPERTY
  1
 '','N/A' 
  9
$CUSTOMPROPERTYTAG
  1
CDSR
  9
$CUSTOMPROPERTY
  1
N/A
  9
$CUSTOMPROPERTYTAG
  1
CDSRALG
  9
$CUSTOMPROPERTY
  1
 '','N/A' 
  9
$CUSTOMPROPERTYTAG
  1
ALT3PN
  9
$CUSTOMPROPERTY
  1

  9
$CUSTOMPROPERTYTAG
  1
ALT4
  9
$CUSTOMPROPERTY
  1
w/o Fastening Location Wrench Access Hole Alterations
  9
$CUSTOMPROPERTYTAG
  1
ALT4ALG
  9
$CUSTOMPROPERTY
  1
 '','w/o Fastening Location Wrench Access Hole Alterations','1','with Fastening Location Wrench Access Hole Alterations' 
  9
$CUSTOMPROPERTYTAG
  1
HL
  9
$CUSTOMPROPERTY
  1
10
  9
$CUSTOMPROPERTYTAG
  1
HR
  9
$CUSTOMPROPERTY
  1
10
  9
$CUSTOMPROPERTYTAG
  1
J
  9
$CUSTOMPROPERTY
  1
20
  9
$CUSTOMPROPERTYTAG
  1
K
  9
$CUSTOMPROPERTY
  1
20
  9
$CUSTOMPROPERTYTAG
  1
DD4
  9
$CUSTOMPROPERTY
  1
7.35
  9
$CUSTOMPROPERTYTAG
  1
HPS
  9
$CUSTOMPROPERTY
  1
N/A
  9
$CUSTOMPROPERTYTAG
  1
HPSALG
  9
$CUSTOMPROPERTY
  1
 '','N/A' 
  9
$CUSTOMPROPERTYTAG
  1
NOHL
  9
$CUSTOMPROPERTY
  1
N/A
  9
$CUSTOMPROPERTYTAG
  1
NOHLALG
  9
$CUSTOMPROPERTY
  1
 '','N/A' 
  9
$CUSTOMPROPERTYTAG
  1
HDL
  9
$CUSTOMPROPERTY
  1
N/A
  9
$CUSTOMPROPERTYTAG
  1
HDLALG
  9
$CUSTOMPROPERTY
  1
 '','N/A' 
  9
$CUSTOMPROPERTYTAG
  1
NOHR
  9
$CUSTOMPROPERTY
  1
N/A
  9
$CUSTOMPROPERTYTAG
  1
NOHRALG
  9
$CUSTOMPROPERTY
  1
 '','N/A' 
  9
$CUSTOMPROPERTYTAG
  1
HDR
  9
$CUSTOMPROPERTY
  1
N/A
  9
$CUSTOMPROPERTYTAG
  1
HDRALG
  9
$CUSTOMPROPERTY
  1
 '','N/A' 
  9
$CUSTOMPROPERTYTAG
  1
ALT41
  9
$CUSTOMPROPERTY
  1
N/A
  9
$CUSTOMPROPERTYTAG
  1
ALT41ALG
  9
$CUSTOMPROPERTY
  1
 '','N/A' 
  9
$CUSTOMPROPERTYTAG
  1
ALT42
  9
$CUSTOMPROPERTY
  1
N/A
  9
$CUSTOMPROPERTYTAG
  1
ALT42ALG
  9
$CUSTOMPROPERTY
  1
 '','N/A' 
  9
$CUSTOMPROPERTYTAG
  1
ALT4PN
  9
$CUSTOMPROPERTY
  1

  9
$CUSTOMPROPERTYTAG
  1
ALT5H
  9
$CUSTOMPROPERTY
  1
w/o Location Specified Wrench Access Hole Alteratons (Horizontal)
  9
$CUSTOMPROPERTYTAG
  1
ALT5HALG
  9
$CUSTOMPROPERTY
  1
 '','w/o Location Specified Wrench Access Hole Alteratons (Horizontal)','1','with Location Specified Wrench Access Hole Alteratons (Horizontal)' 
  9
$CUSTOMPROPERTYTAG
  1
NOMH5H
  9
$CUSTOMPROPERTY
  1
0
  9
$CUSTOMPROPERTYTAG
  1
NOMH5HMAX
  9
$CUSTOMPROPERTY
  1
4.535
  9
$CUSTOMPROPERTYTAG
  1
NOMH5HALG
  9
$CUSTOMPROPERTY
  1
[0]
  9
$CUSTOMPROPERTYTAG
  1
AH
  9
$CUSTOMPROPERTY
  1
0
  9
$CUSTOMPROPERTYTAG
  1
AHMIN
  9
$CUSTOMPROPERTY
  1
7.000
  9
$CUSTOMPROPERTYTAG
  1
AHMAX
  9
$CUSTOMPROPERTY
  1
52.350
  9
$CUSTOMPROPERTYTAG
  1
AHALG
  9
$CUSTOMPROPERTY
  1
[0]
  9
$CUSTOMPROPERTYTAG
  1
BH
  9
$CUSTOMPROPERTY
  1
0
  9
$CUSTOMPROPERTYTAG
  1
BHMIN
  9
$CUSTOMPROPERTY
  1
10.000
  9
$CUSTOMPROPERTYTAG
  1
BHMAX
  9
$CUSTOMPROPERTY
  1
61.700
  9
$CUSTOMPROPERTYTAG
  1
BHALG
  9
$CUSTOMPROPERTY
  1
[0]
  9
$CUSTOMPROPERTYTAG
  1
CH
  9
$CUSTOMPROPERTY
  1
0
  9
$CUSTOMPROPERTYTAG
  1
CHMIN
  9
$CUSTOMPROPERTY
  1
10.000
  9
$CUSTOMPROPERTYTAG
  1
CHMAX
  9
$CUSTOMPROPERTY
  1
71.050
  9
$CUSTOMPROPERTYTAG
  1
CHALG
  9
$CUSTOMPROPERTY
  1
[0]
  9
$CUSTOMPROPERTYTAG
  1
DH
  9
$CUSTOMPROPERTY
  1
0
  9
$CUSTOMPROPERTYTAG
  1
DHMIN
  9
$CUSTOMPROPERTY
  1
10.000
  9
$CUSTOMPROPERTYTAG
  1
DHMAX
  9
$CUSTOMPROPERTY
  1
80.400
  9
$CUSTOMPROPERTYTAG
  1
DHALG
  9
$CUSTOMPROPERTY
  1
[0]
  9
$CUSTOMPROPERTYTAG
  1
EH
  9
$CUSTOMPROPERTY
  1
0
  9
$CUSTOMPROPERTYTAG
  1
EHMIN
  9
$CUSTOMPROPERTY
  1
10.000
  9
$CUSTOMPROPERTYTAG
  1
EHMAX
  9
$CUSTOMPROPERTY
  1
43.000
  9
$CUSTOMPROPERTYTAG
  1
EHALG
  9
$CUSTOMPROPERTY
  1
[0]
  9
$CUSTOMPROPERTYTAG
  1
ALT5V
  9
$CUSTOMPROPERTY
  1
w/o Location Specified Wrench Access Hole Alteratons (Vertical)
  9
$CUSTOMPROPERTYTAG
  1
ALT5VALG
  9
$CUSTOMPROPERTY
  1
 '','w/o Location Specified Wrench Access Hole Alteratons (Vertical)','1','with Location Specified Wrench Access Hole Alteratons (Vertical)' 
  9
$CUSTOMPROPERTYTAG
  1
NOMH5V
  9
$CUSTOMPROPERTY
  1
0
  9
$CUSTOMPROPERTYTAG
  1
NOMH5VMAX
  9
$CUSTOMPROPERTY
  1
4.535
  9
$CUSTOMPROPERTYTAG
  1
NOMH5VALG
  9
$CUSTOMPROPERTY
  1
[0]
  9
$CUSTOMPROPERTYTAG
  1
AV
  9
$CUSTOMPROPERTY
  1
0
  9
$CUSTOMPROPERTYTAG
  1
AVMIN
  9
$CUSTOMPROPERTY
  1
7.000
  9
$CUSTOMPROPERTYTAG
  1
AVMAX
  9
$CUSTOMPROPERTY
  1
52.350
  9
$CUSTOMPROPERTYTAG
  1
AVALG
  9
$CUSTOMPROPERTY
  1
[0]
  9
$CUSTOMPROPERTYTAG
  1
BV
  9
$CUSTOMPROPERTY
  1
0
  9
$CUSTOMPROPERTYTAG
  1
BVMIN
  9
$CUSTOMPROPERTY
  1
10.000
  9
$CUSTOMPROPERTYTAG
  1
BVMAX
  9
$CUSTOMPROPERTY
  1
61.700
  9
$CUSTOMPROPERTYTAG
  1
BVALG
  9
$CUSTOMPROPERTY
  1
[0]
  9
$CUSTOMPROPERTYTAG
  1
CV
  9
$CUSTOMPROPERTY
  1
0
  9
$CUSTOMPROPERTYTAG
  1
CVMIN
  9
$CUSTOMPROPERTY
  1
10.000
  9
$CUSTOMPROPERTYTAG
  1
CVMAX
  9
$CUSTOMPROPERTY
  1
71.050
  9
$CUSTOMPROPERTYTAG
  1
CVALG
  9
$CUSTOMPROPERTY
  1
[0]
  9
$CUSTOMPROPERTYTAG
  1
DV
  9
$CUSTOMPROPERTY
  1
0
  9
$CUSTOMPROPERTYTAG
  1
DVMIN
  9
$CUSTOMPROPERTY
  1
10.000
  9
$CUSTOMPROPERTYTAG
  1
DVMAX
  9
$CUSTOMPROPERTY
  1
80.400
  9
$CUSTOMPROPERTYTAG
  1
DVALG
  9
$CUSTOMPROPERTY
  1
[0]
  9
$CUSTOMPROPERTYTAG
  1
EV
  9
$CUSTOMPROPERTY
  1
0
  9
$CUSTOMPROPERTYTAG
  1
EVMIN
  9
$CUSTOMPROPERTY
  1
10.000
  9
$CUSTOMPROPERTYTAG
  1
EVMAX
  9
$CUSTOMPROPERTY
  1
43.000
  9
$CUSTOMPROPERTYTAG
  1
EVALG
  9
$CUSTOMPROPERTY
  1
[0]
  9
$CUSTOMPROPERTYTAG
  1
ALT5P
  9
$CUSTOMPROPERTY
  1
w/o Location Specified Wrench Access Hole Alteratons (Crisscross)
  9
$CUSTOMPROPERTYTAG
  1
ALT5PALG
  9
$CUSTOMPROPERTY
  1
 '','w/o Location Specified Wrench Access Hole Alteratons (Crisscross)','1','with Location Specified Wrench Access Hole Alteratons (Crisscross)' 
  9
$CUSTOMPROPERTYTAG
  1
NOMH5P
  9
$CUSTOMPROPERTY
  1
0
  9
$CUSTOMPROPERTYTAG
  1
NOMH5PMAX
  9
$CUSTOMPROPERTY
  1
4.535
  9
$CUSTOMPROPERTYTAG
  1
NOMH5PALG
  9
$CUSTOMPROPERTY
  1
[0]
  9
$CUSTOMPROPERTYTAG
  1
AP
  9
$CUSTOMPROPERTY
  1
0
  9
$CUSTOMPROPERTYTAG
  1
APMIN
  9
$CUSTOMPROPERTY
  1
7.000
  9
$CUSTOMPROPERTYTAG
  1
APMAX
  9
$CUSTOMPROPERTY
  1
52.350
  9
$CUSTOMPROPERTYTAG
  1
APALG
  9
$CUSTOMPROPERTY
  1
[0]
  9
$CUSTOMPROPERTYTAG
  1
BP
  9
$CUSTOMPROPERTY
  1
0
  9
$CUSTOMPROPERTYTAG
  1
BPMIN
  9
$CUSTOMPROPERTY
  1
10.000
  9
$CUSTOMPROPERTYTAG
  1
BPMAX
  9
$CUSTOMPROPERTY
  1
61.700
  9
$CUSTOMPROPERTYTAG
  1
BPALG
  9
$CUSTOMPROPERTY
  1
[0]
  9
$CUSTOMPROPERTYTAG
  1
CP
  9
$CUSTOMPROPERTY
  1
0
  9
$CUSTOMPROPERTYTAG
  1
CPMIN
  9
$CUSTOMPROPERTY
  1
10.000
  9
$CUSTOMPROPERTYTAG
  1
CPMAX
  9
$CUSTOMPROPERTY
  1
71.050
  9
$CUSTOMPROPERTYTAG
  1
CPALG
  9
$CUSTOMPROPERTY
  1
[0]
  9
$CUSTOMPROPERTYTAG
  1
DP
  9
$CUSTOMPROPERTY
  1
0
  9
$CUSTOMPROPERTYTAG
  1
DPMIN
  9
$CUSTOMPROPERTY
  1
10.000
  9
$CUSTOMPROPERTYTAG
  1
DPMAX
  9
$CUSTOMPROPERTY
  1
80.400
  9
$CUSTOMPROPERTYTAG
  1
DPALG
  9
$CUSTOMPROPERTY
  1
[0]
  9
$CUSTOMPROPERTYTAG
  1
EP
  9
$CUSTOMPROPERTY
  1
0
  9
$CUSTOMPROPERTYTAG
  1
EPMIN
  9
$CUSTOMPROPERTY
  1
10.000
  9
$CUSTOMPROPERTYTAG
  1
EPMAX
  9
$CUSTOMPROPERTY
  1
43.000
  9
$CUSTOMPROPERTYTAG
  1
EPALG
  9
$CUSTOMPROPERTY
  1
[0]
  9
$CUSTOMPROPERTYTAG
  1
ALT5HPN
  9
$CUSTOMPROPERTY
  1

  9
$CUSTOMPROPERTYTAG
  1
ALT5VPN
  9
$CUSTOMPROPERTY
  1

  9
$CUSTOMPROPERTYTAG
  1
ALT5PPN
  9
$CUSTOMPROPERTY
  1

  9
$CUSTOMPROPERTYTAG
  1
ALT5PN
  9
$CUSTOMPROPERTY
  1

  9
$CUSTOMPROPERTYTAG
  1
ALT6V
  9
$CUSTOMPROPERTY
  1
w/o Counterbore Hole in Specified Position (Vertical)
  9
$CUSTOMPROPERTYTAG
  1
ALT6VALG
  9
$CUSTOMPROPERTY
  1
 '','w/o Counterbore Hole in Specified Position (Vertical)','1','with Counterbore Hole in Specified Position (Vertical)' 
  9
$CUSTOMPROPERTYTAG
  1
ALT6H
  9
$CUSTOMPROPERTY
  1
w/o Counterbore Hole in Specified Position (Horizontal)
  9
$CUSTOMPROPERTYTAG
  1
ALT6HALG
  9
$CUSTOMPROPERTY
  1
 '','w/o Counterbore Hole in Specified Position (Horizontal)','1','with Counterbore Hole in Specified Position (Horizontal)' 
  9
$CUSTOMPROPERTYTAG
  1
Z
  9
$CUSTOMPROPERTY
  1
N/A
  9
$CUSTOMPROPERTYTAG
  1
ZALG
  9
$CUSTOMPROPERTY
  1
 '','N/A' 
  9
$CUSTOMPROPERTYTAG
  1
NOMH6V
  9
$CUSTOMPROPERTY
  1
0
  9
$CUSTOMPROPERTYTAG
  1
NOMH6VMAX
  9
$CUSTOMPROPERTY
  1
2.714
  9
$CUSTOMPROPERTYTAG
  1
NOMH6VALG
  9
$CUSTOMPROPERTY
  1
[0]
  9
$CUSTOMPROPERTYTAG
  1
NOMH6H
  9
$CUSTOMPROPERTY
  1
0
  9
$CUSTOMPROPERTYTAG
  1
NOMH6HMAX
  9
$CUSTOMPROPERTY
  1
2.714
  9
$CUSTOMPROPERTYTAG
  1
NOMH6HALG
  9
$CUSTOMPROPERTY
  1
[0]
  9
$CUSTOMPROPERTYTAG
  1
DD6
  9
$CUSTOMPROPERTY
  1
13.0
  9
$CUSTOMPROPERTYTAG
  1
DD16
  9
$CUSTOMPROPERTY
  1
19.0
  9
$CUSTOMPROPERTYTAG
  1
XA
  9
$CUSTOMPROPERTY
  1
0
  9
$CUSTOMPROPERTYTAG
  1
XAMIN
  9
$CUSTOMPROPERTY
  1
7.000
  9
$CUSTOMPROPERTYTAG
  1
XAMAX
  9
$CUSTOMPROPERTY
  1
64.000
  9
$CUSTOMPROPERTYTAG
  1
XAALG
  9
$CUSTOMPROPERTY
  1
[0]
  9
$CUSTOMPROPERTYTAG
  1
XB
  9
$CUSTOMPROPERTY
  1
0
  9
$CUSTOMPROPERTYTAG
  1
XBMIN
  9
$CUSTOMPROPERTY
  1
16.000
  9
$CUSTOMPROPERTYTAG
  1
XBMAX
  9
$CUSTOMPROPERTY
  1
85.000
  9
$CUSTOMPROPERTYTAG
  1
XBALG
  9
$CUSTOMPROPERTY
  1
[0]
  9
$CUSTOMPROPERTYTAG
  1
XC
  9
$CUSTOMPROPERTY
  1
0
  9
$CUSTOMPROPERTYTAG
  1
XCMIN
  9
$CUSTOMPROPERTY
  1
16.000
  9
$CUSTOMPROPERTYTAG
  1
XCMAX
  9
$CUSTOMPROPERTY
  1
106.000
  9
$CUSTOMPROPERTYTAG
  1
XCALG
  9
$CUSTOMPROPERTY
  1
[0]
  9
$CUSTOMPROPERTYTAG
  1
XD
  9
$CUSTOMPROPERTY
  1
0
  9
$CUSTOMPROPERTYTAG
  1
XDMIN
  9
$CUSTOMPROPERTY
  1
16.000
  9
$CUSTOMPROPERTYTAG
  1
XDMAX
  9
$CUSTOMPROPERTY
  1
127.000
  9
$CUSTOMPROPERTYTAG
  1
XDALG
  9
$CUSTOMPROPERTY
  1
[0]
  9
$CUSTOMPROPERTYTAG
  1
XE
  9
$CUSTOMPROPERTY
  1
0
  9
$CUSTOMPROPERTYTAG
  1
XEMIN
  9
$CUSTOMPROPERTY
  1
16.000
  9
$CUSTOMPROPERTYTAG
  1
XEMAX
  9
$CUSTOMPROPERTY
  1
43.000
  9
$CUSTOMPROPERTYTAG
  1
XEALG
  9
$CUSTOMPROPERTY
  1
[0]
  9
$CUSTOMPROPERTYTAG
  1
YA
  9
$CUSTOMPROPERTY
  1
0
  9
$CUSTOMPROPERTYTAG
  1
YAMIN
  9
$CUSTOMPROPERTY
  1
7.000
  9
$CUSTOMPROPERTYTAG
  1
YAMAX
  9
$CUSTOMPROPERTY
  1
64.000
  9
$CUSTOMPROPERTYTAG
  1
YAALG
  9
$CUSTOMPROPERTY
  1
[0]
  9
$CUSTOMPROPERTYTAG
  1
YB
  9
$CUSTOMPROPERTY
  1
0
  9
$CUSTOMPROPERTYTAG
  1
YBMIN
  9
$CUSTOMPROPERTY
  1
16.000
  9
$CUSTOMPROPERTYTAG
  1
YBMAX
  9
$CUSTOMPROPERTY
  1
85.000
  9
$CUSTOMPROPERTYTAG
  1
YBALG
  9
$CUSTOMPROPERTY
  1
[0]
  9
$CUSTOMPROPERTYTAG
  1
YC
  9
$CUSTOMPROPERTY
  1
0
  9
$CUSTOMPROPERTYTAG
  1
YCMIN
  9
$CUSTOMPROPERTY
  1
16.000
  9
$CUSTOMPROPERTYTAG
  1
YCMAX
  9
$CUSTOMPROPERTY
  1
106.000
  9
$CUSTOMPROPERTYTAG
  1
YCALG
  9
$CUSTOMPROPERTY
  1
[0]
  9
$CUSTOMPROPERTYTAG
  1
YD
  9
$CUSTOMPROPERTY
  1
0
  9
$CUSTOMPROPERTYTAG
  1
YDMIN
  9
$CUSTOMPROPERTY
  1
16.000
  9
$CUSTOMPROPERTYTAG
  1
YDMAX
  9
$CUSTOMPROPERTY
  1
127.000
  9
$CUSTOMPROPERTYTAG
  1
YDALG
  9
$CUSTOMPROPERTY
  1
[0]
  9
$CUSTOMPROPERTYTAG
  1
YE
  9
$CUSTOMPROPERTY
  1
0
  9
$CUSTOMPROPERTYTAG
  1
YEMIN
  9
$CUSTOMPROPERTY
  1
16.000
  9
$CUSTOMPROPERTYTAG
  1
YEMAX
  9
$CUSTOMPROPERTY
  1
43.000
  9
$CUSTOMPROPERTYTAG
  1
YEALG
  9
$CUSTOMPROPERTY
  1
[0]
  9
$CUSTOMPROPERTYTAG
  1
ALT6XPN
  9
$CUSTOMPROPERTY
  1

  9
$CUSTOMPROPERTYTAG
  1
ALT6YPN
  9
$CUSTOMPROPERTY
  1

  9
$CUSTOMPROPERTYTAG
  1
ALT6PN
  9
$CUSTOMPROPERTY
  1

  9
$CUSTOMPROPERTYTAG
  1
ALT7
  9
$CUSTOMPROPERTY
  1
w/o M Type Hole Alteration
  9
$CUSTOMPROPERTYTAG
  1
ALT7ALG
  9
$CUSTOMPROPERTY
  1
 '','w/o M Type Hole Alteration','1','with M Type Hole Alteration' 
  9
$CUSTOMPROPERTYTAG
  1
HPS7
  9
$CUSTOMPROPERTY
  1
N/A
  9
$CUSTOMPROPERTYTAG
  1
HPS7ALG
  9
$CUSTOMPROPERTY
  1
 '','N/A' 
  9
$CUSTOMPROPERTYTAG
  1
HDL7
  9
$CUSTOMPROPERTY
  1
N/A
  9
$CUSTOMPROPERTYTAG
  1
HDL7ALG
  9
$CUSTOMPROPERTY
  1
 '','N/A' 
  9
$CUSTOMPROPERTYTAG
  1
HDR7
  9
$CUSTOMPROPERTY
  1
N/A
  9
$CUSTOMPROPERTYTAG
  1
HDR7ALG
  9
$CUSTOMPROPERTY
  1
 '','N/A' 
  9
$CUSTOMPROPERTYTAG
  1
H7
  9
$CUSTOMPROPERTY
  1
10
  9
$CUSTOMPROPERTYTAG
  1
D7
  9
$CUSTOMPROPERTY
  1
7.1
  9
$CUSTOMPROPERTYTAG
  1
ALT7PN
  9
$CUSTOMPROPERTY
  1

  9
$CUSTOMPROPERTYTAG
  1
ALT8T
  9
$CUSTOMPROPERTY
  1
w/o L Type Hole Alteration (Top)
  9
$CUSTOMPROPERTYTAG
  1
ALT8TALG
  9
$CUSTOMPROPERTY
  1
 '','w/o L Type Hole Alteration (Top)','1','with L Type Hole Alteration (Top)' 
  9
$CUSTOMPROPERTYTAG
  1
ALT8B
  9
$CUSTOMPROPERTY
  1
w/o L Type Hole Alteration (Bottom)
  9
$CUSTOMPROPERTYTAG
  1
ALT8BALG
  9
$CUSTOMPROPERTY
  1
 '','w/o L Type Hole Alteration (Bottom)','1','with L Type Hole Alteration (Bottom)' 
  9
$CUSTOMPROPERTYTAG
  1
HQ
  9
$CUSTOMPROPERTY
  1
0
  9
$CUSTOMPROPERTYTAG
  1
HQALG
  9
$CUSTOMPROPERTY
  1
0
  9
$CUSTOMPROPERTYTAG
  1
JLP
  9
$CUSTOMPROPERTY
  1
0
  9
$CUSTOMPROPERTYTAG
  1
JLPMIN
  9
$CUSTOMPROPERTY
  1
12.000
  9
$CUSTOMPROPERTYTAG
  1
JLPMAX
  9
$CUSTOMPROPERTY
  1
0.000
  9
$CUSTOMPROPERTYTAG
  1
JLPALG
  9
$CUSTOMPROPERTY
  1
[0]
  9
$CUSTOMPROPERTYTAG
  1
KLP
  9
$CUSTOMPROPERTY
  1
0
  9
$CUSTOMPROPERTYTAG
  1
KLPMIN
  9
$CUSTOMPROPERTY
  1
12.000
  9
$CUSTOMPROPERTYTAG
  1
KLPMAX
  9
$CUSTOMPROPERTY
  1
0.000
  9
$CUSTOMPROPERTYTAG
  1
KLPALG
  9
$CUSTOMPROPERTY
  1
[0]
  9
$CUSTOMPROPERTYTAG
  1
L1
  9
$CUSTOMPROPERTY
  1
0.000
  9
$CUSTOMPROPERTYTAG
  1
D8
  9
$CUSTOMPROPERTY
  1
7.1
  9
$CUSTOMPROPERTYTAG
  1
ALT8PN
  9
$CUSTOMPROPERTY
  1

  9
$CUSTOMPROPERTYTAG
  1
COMPANY
  9
$CUSTOMPROPERTY
  1
misumi_usa_inc
  9
$INSBASE
 10
0.0
 20
0.0
 30
0.0
  9
$EXTMIN
 10
1.000000000000000E+20
 20
1.000000000000000E+20
 30
1.000000000000000E+20
  9
$EXTMAX
 10
-1.000000000000000E+20
 20
-1.000000000000000E+20
 30
-1.000000000000000E+20
  9
$LIMMIN
 10
0.0
 20
0.0
  9
$LIMMAX
 10
420.0
 20
297.0
  9
$ORTHOMODE
 70
     0
  9
$REGENMODE
 70
     1
  9
$FILLMODE
 70
     1
  9
$QTEXTMODE
 70
     0
  9
$MIRRTEXT
 70
     1
  9
$LTSCALE
 40
1.0
  9
$ATTMODE
 70
     1
  9
$TEXTSIZE
 40
2.5
  9
$TRACEWID
 40
1.0
  9
$TEXTSTYLE
  7
Standard
  9
$CLAYER
  8
0
  9
$CELTYPE
  6
ByLayer
  9
$CECOLOR
 62
   256
  9
$CELTSCALE
 40
1.0
  9
$DISPSILH
 70
     0
  9
$DIMSCALE
 40
1.0
  9
$DIMASZ
 40
2.5
  9
$DIMEXO
 40
0.625
  9
$DIMDLI
 40
3.75
  9
$DIMRND
 40
0.0
  9
$DIMDLE
 40
0.0
  9
$DIMEXE
 40
1.25
  9
$DIMTP
 40
0.0
  9
$DIMTM
 40
0.0
  9
$DIMTXT
 40
2.5
  9
$DIMCEN
 40
2.5
  9
$DIMTSZ
 40
0.0
  9
$DIMTOL
 70
     0
  9
$DIMLIM
 70
     0
  9
$DIMTIH
 70
     0
  9
$DIMTOH
 70
     0
  9
$DIMSE1
 70
     0
  9
$DIMSE2
 70
     0
  9
$DIMTAD
 70
     1
  9
$DIMZIN
 70
     8
  9
$DIMBLK
  1

  9
$DIMASO
 70
     1
  9
$DIMSHO
 70
     1
  9
$DIMPOST
  1

  9
$DIMAPOST
  1

  9
$DIMALT
 70
     0
  9
$DIMALTD
 70
     3
  9
$DIMALTF
 40
0.03937007874016
  9
$DIMLFAC
 40
1.0
  9
$DIMTOFL
 70
     1
  9
$DIMTVP
 40
0.0
  9
$DIMTIX
 70
     0
  9
$DIMSOXD
 70
     0
  9
$DIMSAH
 70
     0
  9
$DIMBLK1
  1

  9
$DIMBLK2
  1

  9
$DIMSTYLE
  2
ISO-25
  9
$DIMCLRD
 70
     0
  9
$DIMCLRE
 70
     0
  9
$DIMCLRT
 70
     0
  9
$DIMTFAC
 40
1.0
  9
$DIMGAP
 40
0.625
  9
$DIMJUST
 70
     0
  9
$DIMSD1
 70
     0
  9
$DIMSD2
 70
     0
  9
$DIMTOLJ
 70
     0
  9
$DIMTZIN
 70
     8
  9
$DIMALTZ
 70
     0
  9
$DIMALTTZ
 70
     0
  9
$DIMUPT
 70
     0
  9
$DIMDEC
 70
     2
  9
$DIMTDEC
 70
     2
  9
$DIMALTU
 70
     2
  9
$DIMALTTD
 70
     3
  9
$DIMTXSTY
  7
Standard
  9
$DIMAUNIT
 70
     0
  9
$DIMADEC
 70
     0
  9
$DIMALTRND
 40
0.0
  9
$DIMAZIN
 70
     0
  9
$DIMDSEP
 70
    44
  9
$DIMATFIT
 70
     3
  9
$DIMFRAC
 70
     0
  9
$DIMLDRBLK
  1

  9
$DIMLUNIT
 70
     2
  9
$DIMLWD
 70
    -2
  9
$DIMLWE
 70
    -2
  9
$DIMTMOVE
 70
     0
  9
$DIMFXL
 40
1.0
  9
$DIMFXLON
 70
     0
  9
$DIMJOGANG
 40
0.7853981633974483
  9
$DIMTFILL
 70
     0
  9
$DIMTFILLCLR
 70
     0
  9
$DIMARCSYM
 70
     0
  9
$DIMLTYPE
  6

  9
$DIMLTEX1
  6

  9
$DIMLTEX2
  6

  9
$DIMTXTDIRECTION
 70
     0
  9
$LUNITS
 70
     2
  9
$LUPREC
 70
     4
  9
$SKETCHINC
 40
1.0
  9
$FILLETRAD
 40
10.0
  9
$AUNITS
 70
     0
  9
$AUPREC
 70
     0
  9
$MENU
  1
.
  9
$ELEVATION
 40
0.0
  9
$PELEVATION
 40
0.0
  9
$THICKNESS
 40
0.0
  9
$LIMCHECK
 70
     0
  9
$CHAMFERA
 40
0.0
  9
$CHAMFERB
 40
0.0
  9
$CHAMFERC
 40
0.0
  9
$CHAMFERD
 40
0.0
  9
$SKPOLY
 70
     0
  9
$TDCREATE
 40
2456768.554785012
  9
$TDUCREATE
 40
2456768.471451678
  9
$TDUPDATE
 40
2456768.554785382
  9
$TDUUPDATE
 40
2456768.471452049
  9
$TDINDWG
 40
0.0000000116
  9
$TDUSRTIMER
 40
0.0000000116
  9
$USRTIMER
 70
     1
  9
$ANGBASE
 50
0.0
  9
$ANGDIR
 70
     0
  9
$PDMODE
 70
     0
  9
$PDSIZE
 40
0.0
  9
$PLINEWID
 40
0.0
  9
$SPLFRAME
 70
     0
  9
$SPLINETYPE
 70
     6
  9
$SPLINESEGS
 70
     8
  9
$HANDSEED
  5
1CF
  9
$SURFTAB1
 70
     6
  9
$SURFTAB2
 70
     6
  9
$SURFTYPE
 70
     6
  9
$SURFU
 70
     6
  9
$SURFV
 70
     6
  9
$UCSBASE
  2

  9
$UCSNAME
  2

  9
$UCSORG
 10
0.0
 20
0.0
 30
0.0
  9
$UCSXDIR
 10
1.0
 20
0.0
 30
0.0
  9
$UCSYDIR
 10
0.0
 20
1.0
 30
0.0
  9
$UCSORTHOREF
  2

  9
$UCSORTHOVIEW
 70
     0
  9
$UCSORGTOP
 10
0.0
 20
0.0
 30
0.0
  9
$UCSORGBOTTOM
 10
0.0
 20
0.0
 30
0.0
  9
$UCSORGLEFT
 10
0.0
 20
0.0
 30
0.0
  9
$UCSORGRIGHT
 10
0.0
 20
0.0
 30
0.0
  9
$UCSORGFRONT
 10
0.0
 20
0.0
 30
0.0
  9
$UCSORGBACK
 10
0.0
 20
0.0
 30
0.0
  9
$PUCSBASE
  2

  9
$PUCSNAME
  2

  9
$PUCSORG
 10
0.0
 20
0.0
 30
0.0
  9
$PUCSXDIR
 10
1.0
 20
0.0
 30
0.0
  9
$PUCSYDIR
 10
0.0
 20
1.0
 30
0.0
  9
$PUCSORTHOREF
  2

  9
$PUCSORTHOVIEW
 70
     0
  9
$PUCSORGTOP
 10
0.0
 20
0.0
 30
0.0
  9
$PUCSORGBOTTOM
 10
0.0
 20
0.0
 30
0.0
  9
$PUCSORGLEFT
 10
0.0
 20
0.0
 30
0.0
  9
$PUCSORGRIGHT
 10
0.0
 20
0.0
 30
0.0
  9
$PUCSORGFRONT
 10
0.0
 20
0.0
 30
0.0
  9
$PUCSORGBACK
 10
0.0
 20
0.0
 30
0.0
  9
$USERI1
 70
     0
  9
$USERI2
 70
     0
  9
$USERI3
 70
     0
  9
$USERI4
 70
     0
  9
$USERI5
 70
     0
  9
$USERR1
 40
0.0
  9
$USERR2
 40
0.0
  9
$USERR3
 40
0.0
  9
$USERR4
 40
0.0
  9
$USERR5
 40
0.0
  9
$WORLDVIEW
 70
     1
  9
$SHADEDGE
 70
     3
  9
$SHADEDIF
 70
    70
  9
$TILEMODE
 70
     1
  9
$MAXACTVP
 70
    64
  9
$PINSBASE
 10
0.0
 20
0.0
 30
0.0
  9
$PLIMCHECK
 70
     0
  9
$PEXTMIN
 10
1.000000000000000E+20
 20
1.000000000000000E+20
 30
1.000000000000000E+20
  9
$PEXTMAX
 10
-1.000000000000000E+20
 20
-1.000000000000000E+20
 30
-1.000000000000000E+20
  9
$PLIMMIN
 10
0.0
 20
0.0
  9
$PLIMMAX
 10
420.0
 20
297.0
  9
$UNITMODE
 70
     0
  9
$VISRETAIN
 70
     1
  9
$PLINEGEN
 70
     0
  9
$PSLTSCALE
 70
     1
  9
$TREEDEPTH
 70
  3020
  9
$CMLSTYLE
  2
Standard
  9
$CMLJUST
 70
     0
  9
$CMLSCALE
 40
20.0
  9
$PROXYGRAPHICS
 70
     1
  9
$MEASUREMENT
 70
     1
  9
$CELWEIGHT
370
    -1
  9
$ENDCAPS
280
     0
  9
$JOINSTYLE
280
     0
  9
$LWDISPLAY
290
     0
  9
$INSUNITS
 70
     4
  9
$HYPERLINKBASE
  1

  9
$STYLESHEET
  1

  9
$XEDIT
290
     1
  9
$CEPSNTYPE
380
     0
  9
$PSTYLEMODE
290
     1
  9
$FINGERPRINTGUID
  2
{228DFF3B-6A85-4869-8836-72DCE7ACE892}
  9
$VERSIONGUID
  2
{FAEB1C32-E019-11D5-929B-00C0DF256EC4}
  9
$EXTNAMES
290
     1
  9
$PSVPSCALE
 40
0.0
  9
$OLESTARTUP
290
     0
  9
$SORTENTS
280
   127
  9
$INDEXCTL
280
     0
  9
$HIDETEXT
280
     1
  9
$XCLIPFRAME
280
     2
  9
$HALOGAP
280
     0
  9
$OBSCOLOR
 70
   257
  9
$OBSLTYPE
280
     0
  9
$INTERSECTIONDISPLAY
280
     0
  9
$INTERSECTIONCOLOR
 70
   257
  9
$DIMASSOC
280
     2
  9
$PROJECTNAME
  1

  9
$CAMERADISPLAY
290
     0
  9
$LENSLENGTH
 40
50.0
  9
$CAMERAHEIGHT
 40
0.0
  9
$STEPSPERSEC
 40
2.0
  9
$STEPSIZE
 40
6.0
  9
$3DDWFPREC
 40
2.0
  9
$PSOLWIDTH
 40
5.0
  9
$PSOLHEIGHT
 40
80.0
  9
$LOFTANG1
 40
1.570796326794897
  9
$LOFTANG2
 40
1.570796326794897
  9
$LOFTMAG1
 40
0.0
  9
$LOFTMAG2
 40
0.0
  9
$LOFTPARAM
 70
     7
  9
$LOFTNORMALS
280
     1
  9
$LATITUDE
 40
37.795
  9
$LONGITUDE
 40
-122.394
  9
$NORTHDIRECTION
 40
0.0
  9
$TIMEZONE
 70
 -8000
  9
$LIGHTGLYPHDISPLAY
280
     1
  9
$TILEMODELIGHTSYNCH
280
     1
  9
$CMATERIAL
347
44
  9
$SOLIDHIST
280
     1
  9
$SHOWHIST
280
     1
  9
$DWFFRAME
280
     2
  9
$DGNFRAME
280
     2
  9
$REALWORLDSCALE
290
     1
  9
$INTERFERECOLOR
 62
   256
  9
$CSHADOW
280
     0
  9
$SHADOWPLANELOCATION
 40
0.0
  0
ENDSEC
  0
SECTION
  2
CLASSES
  0
CLASS
  1
ACDBDICTIONARYWDFLT
  2
AcDbDictionaryWithDefault
  3
ObjectDBX Classes
 90
        0
 91
        4
280
     0
281
     0
  0
CLASS
  1
VISUALSTYLE
  2
AcDbVisualStyle
  3
ObjectDBX Classes
 90
     4095
 91
        4
280
     0
281
     0
  0
CLASS
  1
MATERIAL
  2
AcDbMaterial
  3
ObjectDBX Classes
 90
     1153
 91
        4
280
     0
281
     0
  0
CLASS
  1
SCALE
  2
AcDbScale
  3
ObjectDBX Classes
 90
     1153
 91
        4
280
     0
281
     0
  0
CLASS
  1
SUN
  2
AcDbSun
  3
SCENEOE
 90
     1153
 91
        4
280
     0
281
     0
  0
CLASS
  1
DICTIONARYVAR
  2
AcDbDictionaryVar
  3
ObjectDBX Classes
 90
        0
 91
        4
280
     0
281
     0
  0
ENDSEC
  0
SECTION
  2
TABLES
  0
TABLE
  2
VPORT
  5
8
330
0
100
AcDbSymbolTable
 70
     1
  0
VPORT
  5
29
330
8
100
AcDbSymbolTableRecord
100
AcDbViewportTableRecord
  2
*Active
 70
     0
 10
0.0
 20
0.0
 11
1.0
 21
1.0
 12
13.86904761904759
 22
-299.7500000000002
 13
0.0
 23
0.0
 14
10.0
 24
10.0
 15
10.0
 25
10.0
 16
0.0
 26
0.0
 36
1.0
 17
0.0
 27
0.0
 37
0.0
 40
657.39
 41
0.0740699693376193
 42
50.0
 43
0.0
 44
0.0
 50
0.0
 51
0.0
 71
     0
 72
   100
 73
     1
 74
     3
 75
     0
 76
     0
 77
     0
 78
     0
281
     0
 65
     1
110
0.0
120
0.0
130
0.0
111
1.0
121
0.0
131
0.0
112
0.0
122
1.0
132
0.0
 79
     0
146
0.0
 60
     3
 61
     5
292
     1
282
     1
141
0.0
142
0.0
 63
   250
361
69
  0
ENDTAB
  0
TABLE
  2
LTYPE
  5
5
330
0
100
AcDbSymbolTable
 70
     3
  0
LTYPE
  5
14
330
5
100
AcDbSymbolTableRecord
100
AcDbLinetypeTableRecord
  2
ByBlock
 70
     0
  3

 72
    65
 73
     0
 40
0.0
  0
LTYPE
  5
15
330
5
100
AcDbSymbolTableRecord
100
AcDbLinetypeTableRecord
  2
ByLayer
 70
     0
  3

 72
    65
 73
     0
 40
0.0
  0
LTYPE
  5
16
330
5
100
AcDbSymbolTableRecord
100
AcDbLinetypeTableRecord
  2
Continuous
 70
     0
  3
Solid line
 72
    65
 73
     0
 40
0.0
  0
LTYPE
  5
6C
330
5
100
AcDbSymbolTableRecord
100
AcDbLinetypeTableRecord
  2
Dashed
 70
     0
  3

 72
    65
 73
     2
 40
2.0
 49
1.0
 74
     0
 49
-1.0
 74
     0
  0
LTYPE
  5
6E
330
5
100
AcDbSymbolTableRecord
100
AcDbLinetypeTableRecord
  2
Center
 70
     0
  3

 72
    65
 73
     4
 40
1.5
 49
0.45
 74
     0
 49
-0.5
 74
     0
 49
0.05
 74
     0
 49
-0.5
 74
     0
  0
ENDTAB
  0
TABLE
  2
LAYER
  5
2
330
0
100
AcDbSymbolTable
 70
    10
  0
LAYER
  5
10
330
2
100
AcDbSymbolTableRecord
100
AcDbLayerTableRecord
  2
0
 70
     0
 62
     7
  6
Continuous
370
    -3
390
F
347
46
348
0
  0
LAYER
  5
6A
330
2
100
AcDbSymbolTableRecord
100
AcDbLayerTableRecord
  2
AM_0
 70
     0
 62
     7
  6
Continuous
370
    50
390
F
347
46
348
0
  0
LAYER
  5
6B
330
2
100
AcDbSymbolTableRecord
100
AcDbLayerTableRecord
  2
AM_2
 70
     0
 62
     5
  6
Continuous
370
    50
390
F
347
46
348
0
  0
LAYER
  5
6D
330
2
100
AcDbSymbolTableRecord
100
AcDbLayerTableRecord
  2
AM_3
 70
     0
 62
     6
  6
Dashed
370
    25
390
F
347
46
348
0
  0
LAYER
  5
6F
330
2
100
AcDbSymbolTableRecord
100
AcDbLayerTableRecord
  2
AM_7
 70
     0
 62
     4
  6
Center
370
    25
390
F
347
46
348
0
  0
LAYER
  5
70
330
2
100
AcDbSymbolTableRecord
100
AcDbLayerTableRecord
  2
AM_10
 70
     0
 62
     7
  6
Center
370
    50
390
F
347
46
348
0
  0
LAYER
  5
71
330
2
100
AcDbSymbolTableRecord
100
AcDbLayerTableRecord
  2
AM_5
 70
     0
 62
     3
  6
Continuous
370
    25
390
F
347
46
348
0
  0
LAYER
  5
72
330
2
100
AcDbSymbolTableRecord
100
AcDbLayerTableRecord
  2
AM_6
 70
     0
 62
    -2
  6
Continuous
370
    35
390
F
347
46
348
0
  0
LAYER
  5
73
330
2
100
AcDbSymbolTableRecord
100
AcDbLayerTableRecord
  2
AM_11
 70
     0
 62
     3
  6
Continuous
370
    25
390
F
347
46
348
0
  0
LAYER
  5
74
330
2
100
AcDbSymbolTableRecord
100
AcDbLayerTableRecord
  2
ConnectionPoints
 70
     0
 62
    -1
  6
Continuous
370
     5
390
F
347
46
348
0
  0
ENDTAB
  0
TABLE
  2
STYLE
  5
3
330
0
100
AcDbSymbolTable
 70
     1
  0
STYLE
  5
11
330
3
100
AcDbSymbolTableRecord
100
AcDbTextStyleTableRecord
  2
Standard
 70
     0
 40
0.0
 41
1.0
 50
0.0
 71
     0
 42
2.5
  3
txt
  4

  0
ENDTAB
  0
TABLE
  2
VIEW
  5
6
330
0
100
AcDbSymbolTable
 70
     0
  0
ENDTAB
  0
TABLE
  2
UCS
  5
7
330
0
100
AcDbSymbolTable
 70
     0
  0
ENDTAB
  0
TABLE
  2
APPID
  5
9
330
0
100
AcDbSymbolTable
 70
     1
  0
APPID
  5
12
330
9
100
AcDbSymbolTableRecord
100
AcDbRegAppTableRecord
  2
ACAD
 70
     0
  0
ENDTAB
  0
TABLE
  2
DIMSTYLE
  5
A
330
0
100
AcDbSymbolTable
 70
     1
100
AcDbDimStyleTable
  0
DIMSTYLE
105
27
330
A
100
AcDbSymbolTableRecord
100
AcDbDimStyleTableRecord
  2
ISO-25
 70
     0
 41
2.5
 42
0.625
 43
3.75
 44
1.25
 73
     0
 74
     0
 77
     1
 78
     8
140
2.5
141
2.5
143
0.03937007874016
147
0.625
171
     3
172
     1
178
     0
271
     2
272
     2
274
     3
278
    44
283
     0
284
     8
340
11
  0
ENDTAB
  0
TABLE
  2
BLOCK_RECORD
  5
1
330
0
100
AcDbSymbolTable
 70
     1
  0
BLOCK_RECORD
  5
1F
330
1
100
AcDbSymbolTableRecord
100
AcDbBlockTableRecord
  2
*Model_Space
340
22
 70
     0
280
     1
281
     0
  0
BLOCK_RECORD
  5
1B
330
1
100
AcDbSymbolTableRecord
100
AcDbBlockTableRecord
  2
*Paper_Space
340
1E
 70
     0
280
     1
281
     0
  0
BLOCK_RECORD
  5
23
330
1
100
AcDbSymbolTableRecord
100
AcDbBlockTableRecord
  2
*Paper_Space0
340
26
 70
     0
280
     1
281
     0
  0
ENDTAB
  0
ENDSEC
  0
SECTION
  2
BLOCKS
  0
BLOCK
  5
20
330
1F
100
AcDbEntity
  8
0
100
AcDbBlockBegin
  2
*Model_Space
 70
     0
 10
0.0
 20
0.0
 30
0.0
  3
*Model_Space
  1
*Model_Space
  0
ENDBLK
  5
21
330
1F
100
AcDbEntity
  8
0
100
AcDbBlockEnd
  0
BLOCK
  5
1C
330
1B
100
AcDbEntity
 67
     1
  8
0
100
AcDbBlockBegin
  2
*Paper_Space
 70
     0
 10
0.0
 20
0.0
 30
0.0
  3
*Paper_Space
  1
*Paper_Space
  0
ENDBLK
  5
1D
330
1B
100
AcDbEntity
 67
     1
  8
0
100
AcDbBlockEnd
  0
BLOCK
  5
24
330
23
100
AcDbEntity
  8
0
100
AcDbBlockBegin
  2
*Paper_Space0
 70
     0
 10
0.0
 20
0.0
 30
0.0
  3
*Paper_Space0
  1
*Paper_Space0
  0
ENDBLK
  5
25
330
23
100
AcDbEntity
  8
0
100
AcDbBlockEnd
  0
ENDSEC
  0
SECTION
  2
ENTITIES
  0
ATTDEF
  5
75
330
1F
100
AcDbEntity
  8
AM_6
100
AcDbText
 10
15.0000000000002
 20
19.9999999999998
 30
0.0
 40
2.5
  1
HFS5-2040, HFSB5-2040, CAF5-2040, HFSF5-2040
100
AcDbAttributeDefinition
  3

  2
NN
 70
     8
280
     0
  0
ATTDEF
  5
76
330
1F
100
AcDbEntity
  8
AM_6
100
AcDbText
 10
15.0000000000002
 20
16.9999999999998
 30
0.0
 40
2.5
  1
20�E40mmŠp HFS5ƒVƒŠ�[ƒYƒAƒ‹ƒ~ƒtƒŒ�[ƒ€ -2—ñ�a-
100
AcDbAttributeDefinition
  3

  2
NT
 70
     8
280
     0
  0
ATTDEF
  5
77
330
1F
100
AcDbEntity
  8
AM_6
100
AcDbText
 10
15.0000000000002
 20
13.9999999999998
 30
0.0
 40
2.5
  1
HFSB5-2040-50
100
AcDbAttributeDefinition
  3

  2
NB
 70
     8
280
     0
  0
ATTDEF
  5
78
330
1F
100
AcDbEntity
  8
AM_6
100
AcDbText
 10
15.0000000000002
 20
10.9999999999998
 30
0.0
 40
2.5
  1
$PN.
100
AcDbAttributeDefinition
  3

  2
NBSYN
 70
     8
280
     0
  0
ATTDEF
  5
79
330
1F
100
AcDbEntity
  8
AM_6
100
AcDbText
 10
15.0000000000002
 20
7.999999999999801
 30
0.0
 40
2.5
  1
HFSB5-2040-50
100
AcDbAttributeDefinition
  3

  2
LINA
 70
     8
280
     0
  0
ATTDEF
  5
7A
330
1F
100
AcDbEntity
  8
AM_6
100
AcDbText
 10
15.0000000000002
 20
4.999999999999801
 30
0.0
 40
2.5
  1
HFSB5-2040-50
100
AcDbAttributeDefinition
  3

  2
PN
 70
     8
280
     0
  0
ATTDEF
  5
7B
330
1F
100
AcDbEntity
  8
AM_6
100
AcDbText
 10
15.0000000000002
 20
1.999999999999801
 30
0.0
 40
2.5
  1
HFSB5-2040
100
AcDbAttributeDefinition
  3

  2
TPS
 70
     8
280
     0
  0
ATTDEF
  5
7C
330
1F
100
AcDbEntity
  8
AM_6
100
AcDbText
 10
15.0000000000002
 20
-1.000000000000199
 30
0.0
 40
2.5
  1
A6N01SS-T5 Aluminum Alloy or 6005A-T5 Aluminum Alloy
100
AcDbAttributeDefinition
  3

  2
MAT
 70
     8
280
     0
  0
ATTDEF
  5
7D
330
1F
100
AcDbEntity
  8
AM_6
100
AcDbText
 10
15.0000000000002
 20
-4.000000000000199
 30
0.0
 40
2.5
  1
Black Anodize
100
AcDbAttributeDefinition
  3

  2
ST
 70
     8
280
     0
  0
ATTDEF
  5
7E
330
1F
100
AcDbEntity
  8
AM_6
100
AcDbText
 10
15.0000000000002
 20
-7.000000000000199
 30
0.0
 40
2.5
  1
20
100
AcDbAttributeDefinition
  3

  2
FRMW
 70
     8
280
     0
  0
ATTDEF
  5
7F
330
1F
100
AcDbEntity
  8
AM_6
100
AcDbText
 10
15.0000000000002
 20
-10.0000000000002
 30
0.0
 40
2.5
  1
40
100
AcDbAttributeDefinition
  3

  2
FRMH
 70
     8
280
     0
  0
ATTDEF
  5
80
330
1F
100
AcDbEntity
  8
AM_6
100
AcDbText
 10
15.0000000000002
 20
-13.0000000000002
 30
0.0
 40
2.5
  1
50
100
AcDbAttributeDefinition
  3

  2
L
 70
     8
280
     0
  0
ATTDEF
  5
81
330
1F
100
AcDbEntity
  8
AM_6
100
AcDbText
 10
15.0000000000002
 20
-16.0000000000002
 30
0.0
 40
2.5
  1
0.88
100
AcDbAttributeDefinition
  3

  2
MASS
 70
     8
280
     0
  0
ATTDEF
  5
82
330
1F
100
AcDbEntity
  8
AM_6
100
AcDbText
 10
15.0000000000002
 20
-19.0000000000002
 30
0.0
 40
2.5
  1
324
100
AcDbAttributeDefinition
  3

  2
SA
 70
     8
280
     0
  0
ATTDEF
  5
83
330
1F
100
AcDbEntity
  8
AM_6
100
AcDbText
 10
15.0000000000002
 20
-22.0000000000002
 30
0.0
 40
2.5
  1
1.358x10^ 4
100
AcDbAttributeDefinition
  3

  2
LX
 70
     8
280
     0
  0
ATTDEF
  5
84
330
1F
100
AcDbEntity
  8
AM_6
100
AcDbText
 10
15.0000000000002
 20
-25.0000000000002
 30
0.0
 40
2.5
  1
5.13x10^ 4
100
AcDbAttributeDefinition
  3

  2
LY
 70
     8
280
     0
  0
ATTDEF
  5
85
330
1F
100
AcDbEntity
  8
AM_6
100
AcDbText
 10
15.0000000000002
 20
-28.0000000000002
 30
0.0
 40
2.5
  1
w/o End Tapping
100
AcDbAttributeDefinition
  3

  2
ALT1
 70
     8
280
     0
  0
ATTDEF
  5
86
330
1F
100
AcDbEntity
  8
AM_6
100
AcDbText
 10
15.0000000000002
 20
-31.0000000000002
 30
0.0
 40
2.5
  1
w/o SC (High Precision Cut)
100
AcDbAttributeDefinition
  3

  2
ALT2
 70
     8
280
     0
  0
ATTDEF
  5
87
330
1F
100
AcDbEntity
  8
AM_6
100
AcDbText
 10
15.0000000000002
 20
-34.0000000000002
 30
0.0
 40
2.5
  1
 '', 'w/o SC (High Precision Cut)', '-SC', 'with SC (High Precision Cut)' 
100
AcDbAttributeDefinition
  3

  2
ALT2ALG
 70
     8
280
     0
  0
ATTDEF
  5
88
330
1F
100
AcDbEntity
  8
AM_6
100
AcDbText
 10
15.0000000000002
 20
-37.0000000000002
 30
0.0
 40
2.5
  1
w/o 45 Degree Cut
100
AcDbAttributeDefinition
  3

  2
ALT3
 70
     8
280
     0
  0
ATTDEF
  5
89
330
1F
100
AcDbEntity
  8
AM_6
100
AcDbText
 10
15.0000000000002
 20
-40.0000000000002
 30
0.0
 40
2.5
  1
 '','w/o 45 Degree Cut','1','with 45 Degree Cut' 
100
AcDbAttributeDefinition
  3

  2
ALT3ALG
 70
     8
280
     0
  0
ATTDEF
  5
8A
330
1F
100
AcDbEntity
  8
AM_6
100
AcDbText
 10
15.0000000000002
 20
-43.0000000000002
 30
0.0
 40
2.5
  1
N/A
100
AcDbAttributeDefinition
  3

  2
CPS
 70
     8
280
     0
  0
ATTDEF
  5
8B
330
1F
100
AcDbEntity
  8
AM_6
100
AcDbText
 10
15.0000000000002
 20
-46.0000000000002
 30
0.0
 40
2.5
  1
 '','N/A' 
100
AcDbAttributeDefinition
  3

  2
CPSALG
 70
     8
280
     0
  0
ATTDEF
  5
8C
330
1F
100
AcDbEntity
  8
AM_6
100
AcDbText
 10
15.0000000000002
 20
-49.0000000000002
 30
0.0
 40
2.5
  1
N/A
100
AcDbAttributeDefinition
  3

  2
CDSL
 70
     8
280
     0
  0
ATTDEF
  5
8D
330
1F
100
AcDbEntity
  8
AM_6
100
AcDbText
 10
15.0000000000002
 20
-52.0000000000002
 30
0.0
 40
2.5
  1
 '','N/A' 
100
AcDbAttributeDefinition
  3

  2
CDSLALG
 70
     8
280
     0
  0
ATTDEF
  5
8E
330
1F
100
AcDbEntity
  8
AM_6
100
AcDbText
 10
15.0000000000002
 20
-55.0000000000002
 30
0.0
 40
2.5
  1
N/A
100
AcDbAttributeDefinition
  3

  2
CDSR
 70
     8
280
     0
  0
ATTDEF
  5
8F
330
1F
100
AcDbEntity
  8
AM_6
100
AcDbText
 10
15.0000000000002
 20
-58.0000000000002
 30
0.0
 40
2.5
  1
 '','N/A' 
100
AcDbAttributeDefinition
  3

  2
CDSRALG
 70
     8
280
     0
  0
ATTDEF
  5
90
330
1F
100
AcDbEntity
  8
AM_6
100
AcDbText
 10
15.0000000000002
 20
-61.0000000000002
 30
0.0
 40
2.5
  1

100
AcDbAttributeDefinition
  3

  2
ALT3PN
 70
     8
280
     0
  0
ATTDEF
  5
91
330
1F
100
AcDbEntity
  8
AM_6
100
AcDbText
 10
15.0000000000002
 20
-64.0000000000002
 30
0.0
 40
2.5
  1
w/o Fastening Location Wrench Access Hole Alterations
100
AcDbAttributeDefinition
  3

  2
ALT4
 70
     8
280
     0
  0
ATTDEF
  5
92
330
1F
100
AcDbEntity
  8
AM_6
100
AcDbText
 10
15.0000000000002
 20
-67.0000000000002
 30
0.0
 40
2.5
  1
 '','w/o Fastening Location Wrench Access Hole Alterations','1','with Fastening Location Wrench Access Hole Alterations' 
100
AcDbAttributeDefinition
  3

  2
ALT4ALG
 70
     8
280
     0
  0
ATTDEF
  5
93
330
1F
100
AcDbEntity
  8
AM_6
100
AcDbText
 10
15.0000000000002
 20
-70.0000000000002
 30
0.0
 40
2.5
  1
10
100
AcDbAttributeDefinition
  3

  2
HL
 70
     8
280
     0
  0
ATTDEF
  5
94
330
1F
100
AcDbEntity
  8
AM_6
100
AcDbText
 10
15.0000000000002
 20
-73.0000000000002
 30
0.0
 40
2.5
  1
10
100
AcDbAttributeDefinition
  3

  2
HR
 70
     8
280
     0
  0
ATTDEF
  5
95
330
1F
100
AcDbEntity
  8
AM_6
100
AcDbText
 10
15.0000000000002
 20
-76.0000000000002
 30
0.0
 40
2.5
  1
20
100
AcDbAttributeDefinition
  3

  2
J
 70
     8
280
     0
  0
ATTDEF
  5
96
330
1F
100
AcDbEntity
  8
AM_6
100
AcDbText
 10
15.0000000000002
 20
-79.0000000000002
 30
0.0
 40
2.5
  1
20
100
AcDbAttributeDefinition
  3

  2
K
 70
     8
280
     0
  0
ATTDEF
  5
97
330
1F
100
AcDbEntity
  8
AM_6
100
AcDbText
 10
15.0000000000002
 20
-82.0000000000002
 30
0.0
 40
2.5
  1
7.35
100
AcDbAttributeDefinition
  3

  2
DD4
 70
     8
280
     0
  0
ATTDEF
  5
98
330
1F
100
AcDbEntity
  8
AM_6
100
AcDbText
 10
15.0000000000002
 20
-85.0000000000002
 30
0.0
 40
2.5
  1
N/A
100
AcDbAttributeDefinition
  3

  2
HPS
 70
     8
280
     0
  0
ATTDEF
  5
99
330
1F
100
AcDbEntity
  8
AM_6
100
AcDbText
 10
15.0000000000002
 20
-88.0000000000002
 30
0.0
 40
2.5
  1
 '','N/A' 
100
AcDbAttributeDefinition
  3

  2
HPSALG
 70
     8
280
     0
  0
ATTDEF
  5
9A
330
1F
100
AcDbEntity
  8
AM_6
100
AcDbText
 10
15.0000000000002
 20
-91.0000000000002
 30
0.0
 40
2.5
  1
N/A
100
AcDbAttributeDefinition
  3

  2
NOHL
 70
     8
280
     0
  0
ATTDEF
  5
9B
330
1F
100
AcDbEntity
  8
AM_6
100
AcDbText
 10
15.0000000000002
 20
-94.0000000000002
 30
0.0
 40
2.5
  1
 '','N/A' 
100
AcDbAttributeDefinition
  3

  2
NOHLALG
 70
     8
280
     0
  0
ATTDEF
  5
9C
330
1F
100
AcDbEntity
  8
AM_6
100
AcDbText
 10
15.0000000000002
 20
-97.0000000000002
 30
0.0
 40
2.5
  1
N/A
100
AcDbAttributeDefinition
  3

  2
HDL
 70
     8
280
     0
  0
ATTDEF
  5
9D
330
1F
100
AcDbEntity
  8
AM_6
100
AcDbText
 10
15.0000000000002
 20
-100.0000000000002
 30
0.0
 40
2.5
  1
 '','N/A' 
100
AcDbAttributeDefinition
  3

  2
HDLALG
 70
     8
280
     0
  0
ATTDEF
  5
9E
330
1F
100
AcDbEntity
  8
AM_6
100
AcDbText
 10
15.0000000000002
 20
-103.0000000000002
 30
0.0
 40
2.5
  1
N/A
100
AcDbAttributeDefinition
  3

  2
NOHR
 70
     8
280
     0
  0
ATTDEF
  5
9F
330
1F
100
AcDbEntity
  8
AM_6
100
AcDbText
 10
15.0000000000002
 20
-106.0000000000002
 30
0.0
 40
2.5
  1
 '','N/A' 
100
AcDbAttributeDefinition
  3

  2
NOHRALG
 70
     8
280
     0
  0
ATTDEF
  5
A0
330
1F
100
AcDbEntity
  8
AM_6
100
AcDbText
 10
15.0000000000002
 20
-109.0000000000002
 30
0.0
 40
2.5
  1
N/A
100
AcDbAttributeDefinition
  3

  2
HDR
 70
     8
280
     0
  0
ATTDEF
  5
A1
330
1F
100
AcDbEntity
  8
AM_6
100
AcDbText
 10
15.0000000000002
 20
-112.0000000000002
 30
0.0
 40
2.5
  1
 '','N/A' 
100
AcDbAttributeDefinition
  3

  2
HDRALG
 70
     8
280
     0
  0
ATTDEF
  5
A2
330
1F
100
AcDbEntity
  8
AM_6
100
AcDbText
 10
15.0000000000002
 20
-115.0000000000002
 30
0.0
 40
2.5
  1
N/A
100
AcDbAttributeDefinition
  3

  2
ALT41
 70
     8
280
     0
  0
ATTDEF
  5
A3
330
1F
100
AcDbEntity
  8
AM_6
100
AcDbText
 10
15.0000000000002
 20
-118.0000000000002
 30
0.0
 40
2.5
  1
 '','N/A' 
100
AcDbAttributeDefinition
  3

  2
ALT41ALG
 70
     8
280
     0
  0
ATTDEF
  5
A4
330
1F
100
AcDbEntity
  8
AM_6
100
AcDbText
 10
15.0000000000002
 20
-121.0000000000002
 30
0.0
 40
2.5
  1
N/A
100
AcDbAttributeDefinition
  3

  2
ALT42
 70
     8
280
     0
  0
ATTDEF
  5
A5
330
1F
100
AcDbEntity
  8
AM_6
100
AcDbText
 10
15.0000000000002
 20
-124.0000000000002
 30
0.0
 40
2.5
  1
 '','N/A' 
100
AcDbAttributeDefinition
  3

  2
ALT42ALG
 70
     8
280
     0
  0
ATTDEF
  5
A6
330
1F
100
AcDbEntity
  8
AM_6
100
AcDbText
 10
15.0000000000002
 20
-127.0000000000002
 30
0.0
 40
2.5
  1

100
AcDbAttributeDefinition
  3

  2
ALT4PN
 70
     8
280
     0
  0
ATTDEF
  5
A7
330
1F
100
AcDbEntity
  8
AM_6
100
AcDbText
 10
15.0000000000002
 20
-130.0000000000002
 30
0.0
 40
2.5
  1
w/o Location Specified Wrench Access Hole Alteratons (Horizontal)
100
AcDbAttributeDefinition
  3

  2
ALT5H
 70
     8
280
     0
  0
ATTDEF
  5
A8
330
1F
100
AcDbEntity
  8
AM_6
100
AcDbText
 10
15.0000000000002
 20
-133.0000000000002
 30
0.0
 40
2.5
  1
 '','w/o Location Specified Wrench Access Hole Alteratons (Horizontal)','1','with Location Specified Wrench Access Hole Alteratons (Horizontal)' 
100
AcDbAttributeDefinition
  3

  2
ALT5HALG
 70
     8
280
     0
  0
ATTDEF
  5
A9
330
1F
100
AcDbEntity
  8
AM_6
100
AcDbText
 10
15.0000000000002
 20
-136.0000000000002
 30
0.0
 40
2.5
  1
0
100
AcDbAttributeDefinition
  3

  2
NOMH5H
 70
     8
280
     0
  0
ATTDEF
  5
AA
330
1F
100
AcDbEntity
  8
AM_6
100
AcDbText
 10
15.0000000000002
 20
-139.0000000000002
 30
0.0
 40
2.5
  1
4.535
100
AcDbAttributeDefinition
  3

  2
NOMH5HMAX
 70
     8
280
     0
  0
ATTDEF
  5
AB
330
1F
100
AcDbEntity
  8
AM_6
100
AcDbText
 10
15.0000000000002
 20
-142.0000000000002
 30
0.0
 40
2.5
  1
[0]
100
AcDbAttributeDefinition
  3

  2
NOMH5HALG
 70
     8
280
     0
  0
ATTDEF
  5
AC
330
1F
100
AcDbEntity
  8
AM_6
100
AcDbText
 10
15.0000000000002
 20
-145.0000000000002
 30
0.0
 40
2.5
  1
0
100
AcDbAttributeDefinition
  3

  2
AH
 70
     8
280
     0
  0
ATTDEF
  5
AD
330
1F
100
AcDbEntity
  8
AM_6
100
AcDbText
 10
15.0000000000002
 20
-148.0000000000002
 30
0.0
 40
2.5
  1
7.000
100
AcDbAttributeDefinition
  3

  2
AHMIN
 70
     8
280
     0
  0
ATTDEF
  5
AE
330
1F
100
AcDbEntity
  8
AM_6
100
AcDbText
 10
15.0000000000002
 20
-151.0000000000002
 30
0.0
 40
2.5
  1
52.350
100
AcDbAttributeDefinition
  3

  2
AHMAX
 70
     8
280
     0
  0
ATTDEF
  5
AF
330
1F
100
AcDbEntity
  8
AM_6
100
AcDbText
 10
15.0000000000002
 20
-154.0000000000002
 30
0.0
 40
2.5
  1
[0]
100
AcDbAttributeDefinition
  3

  2
AHALG
 70
     8
280
     0
  0
ATTDEF
  5
B0
330
1F
100
AcDbEntity
  8
AM_6
100
AcDbText
 10
15.0000000000002
 20
-157.0000000000002
 30
0.0
 40
2.5
  1
0
100
AcDbAttributeDefinition
  3

  2
BH
 70
     8
280
     0
  0
ATTDEF
  5
B1
330
1F
100
AcDbEntity
  8
AM_6
100
AcDbText
 10
15.0000000000002
 20
-160.0000000000002
 30
0.0
 40
2.5
  1
10.000
100
AcDbAttributeDefinition
  3

  2
BHMIN
 70
     8
280
     0
  0
ATTDEF
  5
B2
330
1F
100
AcDbEntity
  8
AM_6
100
AcDbText
 10
15.0000000000002
 20
-163.0000000000002
 30
0.0
 40
2.5
  1
61.700
100
AcDbAttributeDefinition
  3

  2
BHMAX
 70
     8
280
     0
  0
ATTDEF
  5
B3
330
1F
100
AcDbEntity
  8
AM_6
100
AcDbText
 10
15.0000000000002
 20
-166.0000000000002
 30
0.0
 40
2.5
  1
[0]
100
AcDbAttributeDefinition
  3

  2
BHALG
 70
     8
280
     0
  0
ATTDEF
  5
B4
330
1F
100
AcDbEntity
  8
AM_6
100
AcDbText
 10
15.0000000000002
 20
-169.0000000000002
 30
0.0
 40
2.5
  1
0
100
AcDbAttributeDefinition
  3

  2
CH
 70
     8
280
     0
  0
ATTDEF
  5
B5
330
1F
100
AcDbEntity
  8
AM_6
100
AcDbText
 10
15.0000000000002
 20
-172.0000000000002
 30
0.0
 40
2.5
  1
10.000
100
AcDbAttributeDefinition
  3

  2
CHMIN
 70
     8
280
     0
  0
ATTDEF
  5
B6
330
1F
100
AcDbEntity
  8
AM_6
100
AcDbText
 10
15.0000000000002
 20
-175.0000000000002
 30
0.0
 40
2.5
  1
71.050
100
AcDbAttributeDefinition
  3

  2
CHMAX
 70
     8
280
     0
  0
ATTDEF
  5
B7
330
1F
100
AcDbEntity
  8
AM_6
100
AcDbText
 10
15.0000000000002
 20
-178.0000000000002
 30
0.0
 40
2.5
  1
[0]
100
AcDbAttributeDefinition
  3

  2
CHALG
 70
     8
280
     0
  0
ATTDEF
  5
B8
330
1F
100
AcDbEntity
  8
AM_6
100
AcDbText
 10
15.0000000000002
 20
-181.0000000000002
 30
0.0
 40
2.5
  1
0
100
AcDbAttributeDefinition
  3

  2
DH
 70
     8
280
     0
  0
ATTDEF
  5
B9
330
1F
100
AcDbEntity
  8
AM_6
100
AcDbText
 10
15.0000000000002
 20
-184.0000000000002
 30
0.0
 40
2.5
  1
10.000
100
AcDbAttributeDefinition
  3

  2
DHMIN
 70
     8
280
     0
  0
ATTDEF
  5
BA
330
1F
100
AcDbEntity
  8
AM_6
100
AcDbText
 10
15.0000000000002
 20
-187.0000000000002
 30
0.0
 40
2.5
  1
80.400
100
AcDbAttributeDefinition
  3

  2
DHMAX
 70
     8
280
     0
  0
ATTDEF
  5
BB
330
1F
100
AcDbEntity
  8
AM_6
100
AcDbText
 10
15.0000000000002
 20
-190.0000000000002
 30
0.0
 40
2.5
  1
[0]
100
AcDbAttributeDefinition
  3

  2
DHALG
 70
     8
280
     0
  0
ATTDEF
  5
BC
330
1F
100
AcDbEntity
  8
AM_6
100
AcDbText
 10
15.0000000000002
 20
-193.0000000000002
 30
0.0
 40
2.5
  1
0
100
AcDbAttributeDefinition
  3

  2
EH
 70
     8
280
     0
  0
ATTDEF
  5
BD
330
1F
100
AcDbEntity
  8
AM_6
100
AcDbText
 10
15.0000000000002
 20
-196.0000000000002
 30
0.0
 40
2.5
  1
10.000
100
AcDbAttributeDefinition
  3

  2
EHMIN
 70
     8
280
     0
  0
ATTDEF
  5
BE
330
1F
100
AcDbEntity
  8
AM_6
100
AcDbText
 10
15.0000000000002
 20
-199.0000000000002
 30
0.0
 40
2.5
  1
43.000
100
AcDbAttributeDefinition
  3

  2
EHMAX
 70
     8
280
     0
  0
ATTDEF
  5
BF
330
1F
100
AcDbEntity
  8
AM_6
100
AcDbText
 10
15.0000000000002
 20
-202.0000000000002
 30
0.0
 40
2.5
  1
[0]
100
AcDbAttributeDefinition
  3

  2
EHALG
 70
     8
280
     0
  0
ATTDEF
  5
C0
330
1F
100
AcDbEntity
  8
AM_6
100
AcDbText
 10
15.0000000000002
 20
-205.0000000000002
 30
0.0
 40
2.5
  1
w/o Location Specified Wrench Access Hole Alteratons (Vertical)
100
AcDbAttributeDefinition
  3

  2
ALT5V
 70
     8
280
     0
  0
ATTDEF
  5
C1
330
1F
100
AcDbEntity
  8
AM_6
100
AcDbText
 10
15.0000000000002
 20
-208.0000000000002
 30
0.0
 40
2.5
  1
 '','w/o Location Specified Wrench Access Hole Alteratons (Vertical)','1','with Location Specified Wrench Access Hole Alteratons (Vertical)' 
100
AcDbAttributeDefinition
  3

  2
ALT5VALG
 70
     8
280
     0
  0
ATTDEF
  5
C2
330
1F
100
AcDbEntity
  8
AM_6
100
AcDbText
 10
15.0000000000002
 20
-211.0000000000002
 30
0.0
 40
2.5
  1
0
100
AcDbAttributeDefinition
  3

  2
NOMH5V
 70
     8
280
     0
  0
ATTDEF
  5
C3
330
1F
100
AcDbEntity
  8
AM_6
100
AcDbText
 10
15.0000000000002
 20
-214.0000000000002
 30
0.0
 40
2.5
  1
4.535
100
AcDbAttributeDefinition
  3

  2
NOMH5VMAX
 70
     8
280
     0
  0
ATTDEF
  5
C4
330
1F
100
AcDbEntity
  8
AM_6
100
AcDbText
 10
15.0000000000002
 20
-217.0000000000002
 30
0.0
 40
2.5
  1
[0]
100
AcDbAttributeDefinition
  3

  2
NOMH5VALG
 70
     8
280
     0
  0
ATTDEF
  5
C5
330
1F
100
AcDbEntity
  8
AM_6
100
AcDbText
 10
15.0000000000002
 20
-220.0000000000002
 30
0.0
 40
2.5
  1
0
100
AcDbAttributeDefinition
  3

  2
AV
 70
     8
280
     0
  0
ATTDEF
  5
C6
330
1F
100
AcDbEntity
  8
AM_6
100
AcDbText
 10
15.0000000000002
 20
-223.0000000000002
 30
0.0
 40
2.5
  1
7.000
100
AcDbAttributeDefinition
  3

  2
AVMIN
 70
     8
280
     0
  0
ATTDEF
  5
C7
330
1F
100
AcDbEntity
  8
AM_6
100
AcDbText
 10
15.0000000000002
 20
-226.0000000000002
 30
0.0
 40
2.5
  1
52.350
100
AcDbAttributeDefinition
  3

  2
AVMAX
 70
     8
280
     0
  0
ATTDEF
  5
C8
330
1F
100
AcDbEntity
  8
AM_6
100
AcDbText
 10
15.0000000000002
 20
-229.0000000000002
 30
0.0
 40
2.5
  1
[0]
100
AcDbAttributeDefinition
  3

  2
AVALG
 70
     8
280
     0
  0
ATTDEF
  5
C9
330
1F
100
AcDbEntity
  8
AM_6
100
AcDbText
 10
15.0000000000002
 20
-232.0000000000002
 30
0.0
 40
2.5
  1
0
100
AcDbAttributeDefinition
  3

  2
BV
 70
     8
280
     0
  0
ATTDEF
  5
CA
330
1F
100
AcDbEntity
  8
AM_6
100
AcDbText
 10
15.0000000000002
 20
-235.0000000000002
 30
0.0
 40
2.5
  1
10.000
100
AcDbAttributeDefinition
  3

  2
BVMIN
 70
     8
280
     0
  0
ATTDEF
  5
CB
330
1F
100
AcDbEntity
  8
AM_6
100
AcDbText
 10
15.0000000000002
 20
-238.0000000000002
 30
0.0
 40
2.5
  1
61.700
100
AcDbAttributeDefinition
  3

  2
BVMAX
 70
     8
280
     0
  0
ATTDEF
  5
CC
330
1F
100
AcDbEntity
  8
AM_6
100
AcDbText
 10
15.0000000000002
 20
-241.0000000000002
 30
0.0
 40
2.5
  1
[0]
100
AcDbAttributeDefinition
  3

  2
BVALG
 70
     8
280
     0
  0
ATTDEF
  5
CD
330
1F
100
AcDbEntity
  8
AM_6
100
AcDbText
 10
15.0000000000002
 20
-244.0000000000002
 30
0.0
 40
2.5
  1
0
100
AcDbAttributeDefinition
  3

  2
CV
 70
     8
280
     0
  0
ATTDEF
  5
CE
330
1F
100
AcDbEntity
  8
AM_6
100
AcDbText
 10
15.0000000000002
 20
-247.0000000000002
 30
0.0
 40
2.5
  1
10.000
100
AcDbAttributeDefinition
  3

  2
CVMIN
 70
     8
280
     0
  0
ATTDEF
  5
CF
330
1F
100
AcDbEntity
  8
AM_6
100
AcDbText
 10
15.0000000000002
 20
-250.0000000000002
 30
0.0
 40
2.5
  1
71.050
100
AcDbAttributeDefinition
  3

  2
CVMAX
 70
     8
280
     0
  0
ATTDEF
  5
D0
330
1F
100
AcDbEntity
  8
AM_6
100
AcDbText
 10
15.0000000000002
 20
-253.0000000000002
 30
0.0
 40
2.5
  1
[0]
100
AcDbAttributeDefinition
  3

  2
CVALG
 70
     8
280
     0
  0
ATTDEF
  5
D1
330
1F
100
AcDbEntity
  8
AM_6
100
AcDbText
 10
15.0000000000002
 20
-256.0000000000002
 30
0.0
 40
2.5
  1
0
100
AcDbAttributeDefinition
  3

  2
DV
 70
     8
280
     0
  0
ATTDEF
  5
D2
330
1F
100
AcDbEntity
  8
AM_6
100
AcDbText
 10
15.0000000000002
 20
-259.0000000000002
 30
0.0
 40
2.5
  1
10.000
100
AcDbAttributeDefinition
  3

  2
DVMIN
 70
     8
280
     0
  0
ATTDEF
  5
D3
330
1F
100
AcDbEntity
  8
AM_6
100
AcDbText
 10
15.0000000000002
 20
-262.0000000000002
 30
0.0
 40
2.5
  1
80.400
100
AcDbAttributeDefinition
  3

  2
DVMAX
 70
     8
280
     0
  0
ATTDEF
  5
D4
330
1F
100
AcDbEntity
  8
AM_6
100
AcDbText
 10
15.0000000000002
 20
-265.0000000000002
 30
0.0
 40
2.5
  1
[0]
100
AcDbAttributeDefinition
  3

  2
DVALG
 70
     8
280
     0
  0
ATTDEF
  5
D5
330
1F
100
AcDbEntity
  8
AM_6
100
AcDbText
 10
15.0000000000002
 20
-268.0000000000002
 30
0.0
 40
2.5
  1
0
100
AcDbAttributeDefinition
  3

  2
EV
 70
     8
280
     0
  0
ATTDEF
  5
D6
330
1F
100
AcDbEntity
  8
AM_6
100
AcDbText
 10
15.0000000000002
 20
-271.0000000000002
 30
0.0
 40
2.5
  1
10.000
100
AcDbAttributeDefinition
  3

  2
EVMIN
 70
     8
280
     0
  0
ATTDEF
  5
D7
330
1F
100
AcDbEntity
  8
AM_6
100
AcDbText
 10
15.0000000000002
 20
-274.0000000000002
 30
0.0
 40
2.5
  1
43.000
100
AcDbAttributeDefinition
  3

  2
EVMAX
 70
     8
280
     0
  0
ATTDEF
  5
D8
330
1F
100
AcDbEntity
  8
AM_6
100
AcDbText
 10
15.0000000000002
 20
-277.0000000000002
 30
0.0
 40
2.5
  1
[0]
100
AcDbAttributeDefinition
  3

  2
EVALG
 70
     8
280
     0
  0
ATTDEF
  5
D9
330
1F
100
AcDbEntity
  8
AM_6
100
AcDbText
 10
15.0000000000002
 20
-280.0000000000002
 30
0.0
 40
2.5
  1
w/o Location Specified Wrench Access Hole Alteratons (Crisscross)
100
AcDbAttributeDefinition
  3

  2
ALT5P
 70
     8
280
     0
  0
ATTDEF
  5
DA
330
1F
100
AcDbEntity
  8
AM_6
100
AcDbText
 10
15.0000000000002
 20
-283.0000000000002
 30
0.0
 40
2.5
  1
 '','w/o Location Specified Wrench Access Hole Alteratons (Crisscross)','1','with Location Specified Wrench Access Hole Alteratons (Crisscross)' 
100
AcDbAttributeDefinition
  3

  2
ALT5PALG
 70
     8
280
     0
  0
ATTDEF
  5
DB
330
1F
100
AcDbEntity
  8
AM_6
100
AcDbText
 10
15.0000000000002
 20
-286.0000000000002
 30
0.0
 40
2.5
  1
0
100
AcDbAttributeDefinition
  3

  2
NOMH5P
 70
     8
280
     0
  0
ATTDEF
  5
DC
330
1F
100
AcDbEntity
  8
AM_6
100
AcDbText
 10
15.0000000000002
 20
-289.0000000000002
 30
0.0
 40
2.5
  1
4.535
100
AcDbAttributeDefinition
  3

  2
NOMH5PMAX
 70
     8
280
     0
  0
ATTDEF
  5
DD
330
1F
100
AcDbEntity
  8
AM_6
100
AcDbText
 10
15.0000000000002
 20
-292.0000000000002
 30
0.0
 40
2.5
  1
[0]
100
AcDbAttributeDefinition
  3

  2
NOMH5PALG
 70
     8
280
     0
  0
ATTDEF
  5
DE
330
1F
100
AcDbEntity
  8
AM_6
100
AcDbText
 10
15.0000000000002
 20
-295.0000000000002
 30
0.0
 40
2.5
  1
0
100
AcDbAttributeDefinition
  3

  2
AP
 70
     8
280
     0
  0
ATTDEF
  5
DF
330
1F
100
AcDbEntity
  8
AM_6
100
AcDbText
 10
15.0000000000002
 20
-298.0000000000002
 30
0.0
 40
2.5
  1
7.000
100
AcDbAttributeDefinition
  3

  2
APMIN
 70
     8
280
     0
  0
ATTDEF
  5
E0
330
1F
100
AcDbEntity
  8
AM_6
100
AcDbText
 10
15.0000000000002
 20
-301.0000000000002
 30
0.0
 40
2.5
  1
52.350
100
AcDbAttributeDefinition
  3

  2
APMAX
 70
     8
280
     0
  0
ATTDEF
  5
E1
330
1F
100
AcDbEntity
  8
AM_6
100
AcDbText
 10
15.0000000000002
 20
-304.0000000000002
 30
0.0
 40
2.5
  1
[0]
100
AcDbAttributeDefinition
  3

  2
APALG
 70
     8
280
     0
  0
ATTDEF
  5
E2
330
1F
100
AcDbEntity
  8
AM_6
100
AcDbText
 10
15.0000000000002
 20
-307.0000000000002
 30
0.0
 40
2.5
  1
0
100
AcDbAttributeDefinition
  3

  2
BP
 70
     8
280
     0
  0
ATTDEF
  5
E3
330
1F
100
AcDbEntity
  8
AM_6
100
AcDbText
 10
15.0000000000002
 20
-310.0000000000002
 30
0.0
 40
2.5
  1
10.000
100
AcDbAttributeDefinition
  3

  2
BPMIN
 70
     8
280
     0
  0
ATTDEF
  5
E4
330
1F
100
AcDbEntity
  8
AM_6
100
AcDbText
 10
15.0000000000002
 20
-313.0000000000002
 30
0.0
 40
2.5
  1
61.700
100
AcDbAttributeDefinition
  3

  2
BPMAX
 70
     8
280
     0
  0
ATTDEF
  5
E5
330
1F
100
AcDbEntity
  8
AM_6
100
AcDbText
 10
15.0000000000002
 20
-316.0000000000002
 30
0.0
 40
2.5
  1
[0]
100
AcDbAttributeDefinition
  3

  2
BPALG
 70
     8
280
     0
  0
ATTDEF
  5
E6
330
1F
100
AcDbEntity
  8
AM_6
100
AcDbText
 10
15.0000000000002
 20
-319.0000000000002
 30
0.0
 40
2.5
  1
0
100
AcDbAttributeDefinition
  3

  2
CP
 70
     8
280
     0
  0
ATTDEF
  5
E7
330
1F
100
AcDbEntity
  8
AM_6
100
AcDbText
 10
15.0000000000002
 20
-322.0000000000002
 30
0.0
 40
2.5
  1
10.000
100
AcDbAttributeDefinition
  3

  2
CPMIN
 70
     8
280
     0
  0
ATTDEF
  5
E8
330
1F
100
AcDbEntity
  8
AM_6
100
AcDbText
 10
15.0000000000002
 20
-325.0000000000002
 30
0.0
 40
2.5
  1
71.050
100
AcDbAttributeDefinition
  3

  2
CPMAX
 70
     8
280
     0
  0
ATTDEF
  5
E9
330
1F
100
AcDbEntity
  8
AM_6
100
AcDbText
 10
15.0000000000002
 20
-328.0000000000002
 30
0.0
 40
2.5
  1
[0]
100
AcDbAttributeDefinition
  3

  2
CPALG
 70
     8
280
     0
  0
ATTDEF
  5
EA
330
1F
100
AcDbEntity
  8
AM_6
100
AcDbText
 10
15.0000000000002
 20
-331.0000000000002
 30
0.0
 40
2.5
  1
0
100
AcDbAttributeDefinition
  3

  2
DP
 70
     8
280
     0
  0
ATTDEF
  5
EB
330
1F
100
AcDbEntity
  8
AM_6
100
AcDbText
 10
15.0000000000002
 20
-334.0000000000002
 30
0.0
 40
2.5
  1
10.000
100
AcDbAttributeDefinition
  3

  2
DPMIN
 70
     8
280
     0
  0
ATTDEF
  5
EC
330
1F
100
AcDbEntity
  8
AM_6
100
AcDbText
 10
15.0000000000002
 20
-337.0000000000002
 30
0.0
 40
2.5
  1
80.400
100
AcDbAttributeDefinition
  3

  2
DPMAX
 70
     8
280
     0
  0
ATTDEF
  5
ED
330
1F
100
AcDbEntity
  8
AM_6
100
AcDbText
 10
15.0000000000002
 20
-340.0000000000002
 30
0.0
 40
2.5
  1
[0]
100
AcDbAttributeDefinition
  3

  2
DPALG
 70
     8
280
     0
  0
ATTDEF
  5
EE
330
1F
100
AcDbEntity
  8
AM_6
100
AcDbText
 10
15.0000000000002
 20
-343.0000000000002
 30
0.0
 40
2.5
  1
0
100
AcDbAttributeDefinition
  3

  2
EP
 70
     8
280
     0
  0
ATTDEF
  5
EF
330
1F
100
AcDbEntity
  8
AM_6
100
AcDbText
 10
15.0000000000002
 20
-346.0000000000002
 30
0.0
 40
2.5
  1
10.000
100
AcDbAttributeDefinition
  3

  2
EPMIN
 70
     8
280
     0
  0
ATTDEF
  5
F0
330
1F
100
AcDbEntity
  8
AM_6
100
AcDbText
 10
15.0000000000002
 20
-349.0000000000002
 30
0.0
 40
2.5
  1
43.000
100
AcDbAttributeDefinition
  3

  2
EPMAX
 70
     8
280
     0
  0
ATTDEF
  5
F1
330
1F
100
AcDbEntity
  8
AM_6
100
AcDbText
 10
15.0000000000002
 20
-352.0000000000002
 30
0.0
 40
2.5
  1
[0]
100
AcDbAttributeDefinition
  3

  2
EPALG
 70
     8
280
     0
  0
ATTDEF
  5
F2
330
1F
100
AcDbEntity
  8
AM_6
100
AcDbText
 10
15.0000000000002
 20
-355.0000000000002
 30
0.0
 40
2.5
  1

100
AcDbAttributeDefinition
  3

  2
ALT5HPN
 70
     8
280
     0
  0
ATTDEF
  5
F3
330
1F
100
AcDbEntity
  8
AM_6
100
AcDbText
 10
15.0000000000002
 20
-358.0000000000002
 30
0.0
 40
2.5
  1

100
AcDbAttributeDefinition
  3

  2
ALT5VPN
 70
     8
280
     0
  0
ATTDEF
  5
F4
330
1F
100
AcDbEntity
  8
AM_6
100
AcDbText
 10
15.0000000000002
 20
-361.0000000000002
 30
0.0
 40
2.5
  1

100
AcDbAttributeDefinition
  3

  2
ALT5PPN
 70
     8
280
     0
  0
ATTDEF
  5
F5
330
1F
100
AcDbEntity
  8
AM_6
100
AcDbText
 10
15.0000000000002
 20
-364.0000000000002
 30
0.0
 40
2.5
  1

100
AcDbAttributeDefinition
  3

  2
ALT5PN
 70
     8
280
     0
  0
ATTDEF
  5
F6
330
1F
100
AcDbEntity
  8
AM_6
100
AcDbText
 10
15.0000000000002
 20
-367.0000000000002
 30
0.0
 40
2.5
  1
w/o Counterbore Hole in Specified Position (Vertical)
100
AcDbAttributeDefinition
  3

  2
ALT6V
 70
     8
280
     0
  0
ATTDEF
  5
F7
330
1F
100
AcDbEntity
  8
AM_6
100
AcDbText
 10
15.0000000000002
 20
-370.0000000000002
 30
0.0
 40
2.5
  1
 '','w/o Counterbore Hole in Specified Position (Vertical)','1','with Counterbore Hole in Specified Position (Vertical)' 
100
AcDbAttributeDefinition
  3

  2
ALT6VALG
 70
     8
280
     0
  0
ATTDEF
  5
F8
330
1F
100
AcDbEntity
  8
AM_6
100
AcDbText
 10
15.0000000000002
 20
-373.0000000000002
 30
0.0
 40
2.5
  1
w/o Counterbore Hole in Specified Position (Horizontal)
100
AcDbAttributeDefinition
  3

  2
ALT6H
 70
     8
280
     0
  0
ATTDEF
  5
F9
330
1F
100
AcDbEntity
  8
AM_6
100
AcDbText
 10
15.0000000000002
 20
-376.0000000000002
 30
0.0
 40
2.5
  1
 '','w/o Counterbore Hole in Specified Position (Horizontal)','1','with Counterbore Hole in Specified Position (Horizontal)' 
100
AcDbAttributeDefinition
  3

  2
ALT6HALG
 70
     8
280
     0
  0
ATTDEF
  5
FA
330
1F
100
AcDbEntity
  8
AM_6
100
AcDbText
 10
15.0000000000002
 20
-379.0000000000002
 30
0.0
 40
2.5
  1
N/A
100
AcDbAttributeDefinition
  3

  2
Z
 70
     8
280
     0
  0
ATTDEF
  5
FB
330
1F
100
AcDbEntity
  8
AM_6
100
AcDbText
 10
15.0000000000002
 20
-382.0000000000002
 30
0.0
 40
2.5
  1
 '','N/A' 
100
AcDbAttributeDefinition
  3

  2
ZALG
 70
     8
280
     0
  0
ATTDEF
  5
FC
330
1F
100
AcDbEntity
  8
AM_6
100
AcDbText
 10
15.0000000000002
 20
-385.0000000000002
 30
0.0
 40
2.5
  1
0
100
AcDbAttributeDefinition
  3

  2
NOMH6V
 70
     8
280
     0
  0
ATTDEF
  5
FD
330
1F
100
AcDbEntity
  8
AM_6
100
AcDbText
 10
15.0000000000002
 20
-388.0000000000002
 30
0.0
 40
2.5
  1
2.714
100
AcDbAttributeDefinition
  3

  2
NOMH6VMAX
 70
     8
280
     0
  0
ATTDEF
  5
FE
330
1F
100
AcDbEntity
  8
AM_6
100
AcDbText
 10
15.0000000000002
 20
-391.0000000000002
 30
0.0
 40
2.5
  1
[0]
100
AcDbAttributeDefinition
  3

  2
NOMH6VALG
 70
     8
280
     0
  0
ATTDEF
  5
FF
330
1F
100
AcDbEntity
  8
AM_6
100
AcDbText
 10
15.0000000000002
 20
-394.0000000000002
 30
0.0
 40
2.5
  1
0
100
AcDbAttributeDefinition
  3

  2
NOMH6H
 70
     8
280
     0
  0
ATTDEF
  5
100
330
1F
100
AcDbEntity
  8
AM_6
100
AcDbText
 10
15.0000000000002
 20
-397.0000000000002
 30
0.0
 40
2.5
  1
2.714
100
AcDbAttributeDefinition
  3

  2
NOMH6HMAX
 70
     8
280
     0
  0
ATTDEF
  5
101
330
1F
100
AcDbEntity
  8
AM_6
100
AcDbText
 10
15.0000000000002
 20
-400.0000000000002
 30
0.0
 40
2.5
  1
[0]
100
AcDbAttributeDefinition
  3

  2
NOMH6HALG
 70
     8
280
     0
  0
ATTDEF
  5
102
330
1F
100
AcDbEntity
  8
AM_6
100
AcDbText
 10
15.0000000000002
 20
-403.0000000000002
 30
0.0
 40
2.5
  1
13.0
100
AcDbAttributeDefinition
  3

  2
DD6
 70
     8
280
     0
  0
ATTDEF
  5
103
330
1F
100
AcDbEntity
  8
AM_6
100
AcDbText
 10
15.0000000000002
 20
-406.0000000000002
 30
0.0
 40
2.5
  1
19.0
100
AcDbAttributeDefinition
  3

  2
DD16
 70
     8
280
     0
  0
ATTDEF
  5
104
330
1F
100
AcDbEntity
  8
AM_6
100
AcDbText
 10
15.0000000000002
 20
-409.0000000000002
 30
0.0
 40
2.5
  1
0
100
AcDbAttributeDefinition
  3

  2
XA
 70
     8
280
     0
  0
ATTDEF
  5
105
330
1F
100
AcDbEntity
  8
AM_6
100
AcDbText
 10
15.0000000000002
 20
-412.0000000000002
 30
0.0
 40
2.5
  1
7.000
100
AcDbAttributeDefinition
  3

  2
XAMIN
 70
     8
280
     0
  0
ATTDEF
  5
106
330
1F
100
AcDbEntity
  8
AM_6
100
AcDbText
 10
15.0000000000002
 20
-415.0000000000002
 30
0.0
 40
2.5
  1
64.000
100
AcDbAttributeDefinition
  3

  2
XAMAX
 70
     8
280
     0
  0
ATTDEF
  5
107
330
1F
100
AcDbEntity
  8
AM_6
100
AcDbText
 10
15.0000000000002
 20
-418.0000000000002
 30
0.0
 40
2.5
  1
[0]
100
AcDbAttributeDefinition
  3

  2
XAALG
 70
     8
280
     0
  0
ATTDEF
  5
108
330
1F
100
AcDbEntity
  8
AM_6
100
AcDbText
 10
15.0000000000002
 20
-421.0000000000002
 30
0.0
 40
2.5
  1
0
100
AcDbAttributeDefinition
  3

  2
XB
 70
     8
280
     0
  0
ATTDEF
  5
109
330
1F
100
AcDbEntity
  8
AM_6
100
AcDbText
 10
15.0000000000002
 20
-424.0000000000002
 30
0.0
 40
2.5
  1
16.000
100
AcDbAttributeDefinition
  3

  2
XBMIN
 70
     8
280
     0
  0
ATTDEF
  5
10A
330
1F
100
AcDbEntity
  8
AM_6
100
AcDbText
 10
15.0000000000002
 20
-427.0000000000002
 30
0.0
 40
2.5
  1
85.000
100
AcDbAttributeDefinition
  3

  2
XBMAX
 70
     8
280
     0
  0
ATTDEF
  5
10B
330
1F
100
AcDbEntity
  8
AM_6
100
AcDbText
 10
15.0000000000002
 20
-430.0000000000002
 30
0.0
 40
2.5
  1
[0]
100
AcDbAttributeDefinition
  3

  2
XBALG
 70
     8
280
     0
  0
ATTDEF
  5
10C
330
1F
100
AcDbEntity
  8
AM_6
100
AcDbText
 10
15.0000000000002
 20
-433.0000000000002
 30
0.0
 40
2.5
  1
0
100
AcDbAttributeDefinition
  3

  2
XC
 70
     8
280
     0
  0
ATTDEF
  5
10D
330
1F
100
AcDbEntity
  8
AM_6
100
AcDbText
 10
15.0000000000002
 20
-436.0000000000002
 30
0.0
 40
2.5
  1
16.000
100
AcDbAttributeDefinition
  3

  2
XCMIN
 70
     8
280
     0
  0
ATTDEF
  5
10E
330
1F
100
AcDbEntity
  8
AM_6
100
AcDbText
 10
15.0000000000002
 20
-439.0000000000002
 30
0.0
 40
2.5
  1
106.000
100
AcDbAttributeDefinition
  3

  2
XCMAX
 70
     8
280
     0
  0
ATTDEF
  5
10F
330
1F
100
AcDbEntity
  8
AM_6
100
AcDbText
 10
15.0000000000002
 20
-442.0000000000002
 30
0.0
 40
2.5
  1
[0]
100
AcDbAttributeDefinition
  3

  2
XCALG
 70
     8
280
     0
  0
ATTDEF
  5
110
330
1F
100
AcDbEntity
  8
AM_6
100
AcDbText
 10
15.0000000000002
 20
-445.0000000000002
 30
0.0
 40
2.5
  1
0
100
AcDbAttributeDefinition
  3

  2
XD
 70
     8
280
     0
  0
ATTDEF
  5
111
330
1F
100
AcDbEntity
  8
AM_6
100
AcDbText
 10
15.0000000000002
 20
-448.0000000000002
 30
0.0
 40
2.5
  1
16.000
100
AcDbAttributeDefinition
  3

  2
XDMIN
 70
     8
280
     0
  0
ATTDEF
  5
112
330
1F
100
AcDbEntity
  8
AM_6
100
AcDbText
 10
15.0000000000002
 20
-451.0000000000002
 30
0.0
 40
2.5
  1
127.000
100
AcDbAttributeDefinition
  3

  2
XDMAX
 70
     8
280
     0
  0
ATTDEF
  5
113
330
1F
100
AcDbEntity
  8
AM_6
100
AcDbText
 10
15.0000000000002
 20
-454.0000000000002
 30
0.0
 40
2.5
  1
[0]
100
AcDbAttributeDefinition
  3

  2
XDALG
 70
     8
280
     0
  0
ATTDEF
  5
114
330
1F
100
AcDbEntity
  8
AM_6
100
AcDbText
 10
15.0000000000002
 20
-457.0000000000002
 30
0.0
 40
2.5
  1
0
100
AcDbAttributeDefinition
  3

  2
XE
 70
     8
280
     0
  0
ATTDEF
  5
115
330
1F
100
AcDbEntity
  8
AM_6
100
AcDbText
 10
15.0000000000002
 20
-460.0000000000002
 30
0.0
 40
2.5
  1
16.000
100
AcDbAttributeDefinition
  3

  2
XEMIN
 70
     8
280
     0
  0
ATTDEF
  5
116
330
1F
100
AcDbEntity
  8
AM_6
100
AcDbText
 10
15.0000000000002
 20
-463.0000000000002
 30
0.0
 40
2.5
  1
43.000
100
AcDbAttributeDefinition
  3

  2
XEMAX
 70
     8
280
     0
  0
ATTDEF
  5
117
330
1F
100
AcDbEntity
  8
AM_6
100
AcDbText
 10
15.0000000000002
 20
-466.0000000000002
 30
0.0
 40
2.5
  1
[0]
100
AcDbAttributeDefinition
  3

  2
XEALG
 70
     8
280
     0
  0
ATTDEF
  5
118
330
1F
100
AcDbEntity
  8
AM_6
100
AcDbText
 10
15.0000000000002
 20
-469.0000000000002
 30
0.0
 40
2.5
  1
0
100
AcDbAttributeDefinition
  3

  2
YA
 70
     8
280
     0
  0
ATTDEF
  5
119
330
1F
100
AcDbEntity
  8
AM_6
100
AcDbText
 10
15.0000000000002
 20
-472.0000000000002
 30
0.0
 40
2.5
  1
7.000
100
AcDbAttributeDefinition
  3

  2
YAMIN
 70
     8
280
     0
  0
ATTDEF
  5
11A
330
1F
100
AcDbEntity
  8
AM_6
100
AcDbText
 10
15.0000000000002
 20
-475.0000000000002
 30
0.0
 40
2.5
  1
64.000
100
AcDbAttributeDefinition
  3

  2
YAMAX
 70
     8
280
     0
  0
ATTDEF
  5
11B
330
1F
100
AcDbEntity
  8
AM_6
100
AcDbText
 10
15.0000000000002
 20
-478.0000000000002
 30
0.0
 40
2.5
  1
[0]
100
AcDbAttributeDefinition
  3

  2
YAALG
 70
     8
280
     0
  0
ATTDEF
  5
11C
330
1F
100
AcDbEntity
  8
AM_6
100
AcDbText
 10
15.0000000000002
 20
-481.0000000000002
 30
0.0
 40
2.5
  1
0
100
AcDbAttributeDefinition
  3

  2
YB
 70
     8
280
     0
  0
ATTDEF
  5
11D
330
1F
100
AcDbEntity
  8
AM_6
100
AcDbText
 10
15.0000000000002
 20
-484.0000000000002
 30
0.0
 40
2.5
  1
16.000
100
AcDbAttributeDefinition
  3

  2
YBMIN
 70
     8
280
     0
  0
ATTDEF
  5
11E
330
1F
100
AcDbEntity
  8
AM_6
100
AcDbText
 10
15.0000000000002
 20
-487.0000000000002
 30
0.0
 40
2.5
  1
85.000
100
AcDbAttributeDefinition
  3

  2
YBMAX
 70
     8
280
     0
  0
ATTDEF
  5
11F
330
1F
100
AcDbEntity
  8
AM_6
100
AcDbText
 10
15.0000000000002
 20
-490.0000000000002
 30
0.0
 40
2.5
  1
[0]
100
AcDbAttributeDefinition
  3

  2
YBALG
 70
     8
280
     0
  0
ATTDEF
  5
120
330
1F
100
AcDbEntity
  8
AM_6
100
AcDbText
 10
15.0000000000002
 20
-493.0000000000002
 30
0.0
 40
2.5
  1
0
100
AcDbAttributeDefinition
  3

  2
YC
 70
     8
280
     0
  0
ATTDEF
  5
121
330
1F
100
AcDbEntity
  8
AM_6
100
AcDbText
 10
15.0000000000002
 20
-496.0000000000002
 30
0.0
 40
2.5
  1
16.000
100
AcDbAttributeDefinition
  3

  2
YCMIN
 70
     8
280
     0
  0
ATTDEF
  5
122
330
1F
100
AcDbEntity
  8
AM_6
100
AcDbText
 10
15.0000000000002
 20
-499.0000000000002
 30
0.0
 40
2.5
  1
106.000
100
AcDbAttributeDefinition
  3

  2
YCMAX
 70
     8
280
     0
  0
ATTDEF
  5
123
330
1F
100
AcDbEntity
  8
AM_6
100
AcDbText
 10
15.0000000000002
 20
-502.0000000000002
 30
0.0
 40
2.5
  1
[0]
100
AcDbAttributeDefinition
  3

  2
YCALG
 70
     8
280
     0
  0
ATTDEF
  5
124
330
1F
100
AcDbEntity
  8
AM_6
100
AcDbText
 10
15.0000000000002
 20
-505.0000000000002
 30
0.0
 40
2.5
  1
0
100
AcDbAttributeDefinition
  3

  2
YD
 70
     8
280
     0
  0
ATTDEF
  5
125
330
1F
100
AcDbEntity
  8
AM_6
100
AcDbText
 10
15.0000000000002
 20
-508.0000000000002
 30
0.0
 40
2.5
  1
16.000
100
AcDbAttributeDefinition
  3

  2
YDMIN
 70
     8
280
     0
  0
ATTDEF
  5
126
330
1F
100
AcDbEntity
  8
AM_6
100
AcDbText
 10
15.0000000000002
 20
-511.0000000000002
 30
0.0
 40
2.5
  1
127.000
100
AcDbAttributeDefinition
  3

  2
YDMAX
 70
     8
280
     0
  0
ATTDEF
  5
127
330
1F
100
AcDbEntity
  8
AM_6
100
AcDbText
 10
15.0000000000002
 20
-514.0000000000002
 30
0.0
 40
2.5
  1
[0]
100
AcDbAttributeDefinition
  3

  2
YDALG
 70
     8
280
     0
  0
ATTDEF
  5
128
330
1F
100
AcDbEntity
  8
AM_6
100
AcDbText
 10
15.0000000000002
 20
-517.0000000000002
 30
0.0
 40
2.5
  1
0
100
AcDbAttributeDefinition
  3

  2
YE
 70
     8
280
     0
  0
ATTDEF
  5
129
330
1F
100
AcDbEntity
  8
AM_6
100
AcDbText
 10
15.0000000000002
 20
-520.0000000000002
 30
0.0
 40
2.5
  1
16.000
100
AcDbAttributeDefinition
  3

  2
YEMIN
 70
     8
280
     0
  0
ATTDEF
  5
12A
330
1F
100
AcDbEntity
  8
AM_6
100
AcDbText
 10
15.0000000000002
 20
-523.0000000000002
 30
0.0
 40
2.5
  1
43.000
100
AcDbAttributeDefinition
  3

  2
YEMAX
 70
     8
280
     0
  0
ATTDEF
  5
12B
330
1F
100
AcDbEntity
  8
AM_6
100
AcDbText
 10
15.0000000000002
 20
-526.0000000000002
 30
0.0
 40
2.5
  1
[0]
100
AcDbAttributeDefinition
  3

  2
YEALG
 70
     8
280
     0
  0
ATTDEF
  5
12C
330
1F
100
AcDbEntity
  8
AM_6
100
AcDbText
 10
15.0000000000002
 20
-529.0000000000002
 30
0.0
 40
2.5
  1

100
AcDbAttributeDefinition
  3

  2
ALT6XPN
 70
     8
280
     0
  0
ATTDEF
  5
12D
330
1F
100
AcDbEntity
  8
AM_6
100
AcDbText
 10
15.0000000000002
 20
-532.0000000000002
 30
0.0
 40
2.5
  1

100
AcDbAttributeDefinition
  3

  2
ALT6YPN
 70
     8
280
     0
  0
ATTDEF
  5
12E
330
1F
100
AcDbEntity
  8
AM_6
100
AcDbText
 10
15.0000000000002
 20
-535.0000000000002
 30
0.0
 40
2.5
  1

100
AcDbAttributeDefinition
  3

  2
ALT6PN
 70
     8
280
     0
  0
ATTDEF
  5
12F
330
1F
100
AcDbEntity
  8
AM_6
100
AcDbText
 10
15.0000000000002
 20
-538.0000000000002
 30
0.0
 40
2.5
  1
w/o M Type Hole Alteration
100
AcDbAttributeDefinition
  3

  2
ALT7
 70
     8
280
     0
  0
ATTDEF
  5
130
330
1F
100
AcDbEntity
  8
AM_6
100
AcDbText
 10
15.0000000000002
 20
-541.0000000000002
 30
0.0
 40
2.5
  1
 '','w/o M Type Hole Alteration','1','with M Type Hole Alteration' 
100
AcDbAttributeDefinition
  3

  2
ALT7ALG
 70
     8
280
     0
  0
ATTDEF
  5
131
330
1F
100
AcDbEntity
  8
AM_6
100
AcDbText
 10
15.0000000000002
 20
-544.0000000000002
 30
0.0
 40
2.5
  1
N/A
100
AcDbAttributeDefinition
  3

  2
HPS7
 70
     8
280
     0
  0
ATTDEF
  5
132
330
1F
100
AcDbEntity
  8
AM_6
100
AcDbText
 10
15.0000000000002
 20
-547.0000000000002
 30
0.0
 40
2.5
  1
 '','N/A' 
100
AcDbAttributeDefinition
  3

  2
HPS7ALG
 70
     8
280
     0
  0
ATTDEF
  5
133
330
1F
100
AcDbEntity
  8
AM_6
100
AcDbText
 10
15.0000000000002
 20
-550.0000000000002
 30
0.0
 40
2.5
  1
N/A
100
AcDbAttributeDefinition
  3

  2
HDL7
 70
     8
280
     0
  0
ATTDEF
  5
134
330
1F
100
AcDbEntity
  8
AM_6
100
AcDbText
 10
15.0000000000002
 20
-553.0000000000002
 30
0.0
 40
2.5
  1
 '','N/A' 
100
AcDbAttributeDefinition
  3

  2
HDL7ALG
 70
     8
280
     0
  0
ATTDEF
  5
135
330
1F
100
AcDbEntity
  8
AM_6
100
AcDbText
 10
15.0000000000002
 20
-556.0000000000002
 30
0.0
 40
2.5
  1
N/A
100
AcDbAttributeDefinition
  3

  2
HDR7
 70
     8
280
     0
  0
ATTDEF
  5
136
330
1F
100
AcDbEntity
  8
AM_6
100
AcDbText
 10
15.0000000000002
 20
-559.0000000000002
 30
0.0
 40
2.5
  1
 '','N/A' 
100
AcDbAttributeDefinition
  3

  2
HDR7ALG
 70
     8
280
     0
  0
ATTDEF
  5
137
330
1F
100
AcDbEntity
  8
AM_6
100
AcDbText
 10
15.0000000000002
 20
-562.0000000000002
 30
0.0
 40
2.5
  1
10
100
AcDbAttributeDefinition
  3

  2
H7
 70
     8
280
     0
  0
ATTDEF
  5
138
330
1F
100
AcDbEntity
  8
AM_6
100
AcDbText
 10
15.0000000000002
 20
-565.0000000000002
 30
0.0
 40
2.5
  1
7.1
100
AcDbAttributeDefinition
  3

  2
D7
 70
     8
280
     0
  0
ATTDEF
  5
139
330
1F
100
AcDbEntity
  8
AM_6
100
AcDbText
 10
15.0000000000002
 20
-568.0000000000002
 30
0.0
 40
2.5
  1

100
AcDbAttributeDefinition
  3

  2
ALT7PN
 70
     8
280
     0
  0
ATTDEF
  5
13A
330
1F
100
AcDbEntity
  8
AM_6
100
AcDbText
 10
15.0000000000002
 20
-571.0000000000002
 30
0.0
 40
2.5
  1
w/o L Type Hole Alteration (Top)
100
AcDbAttributeDefinition
  3

  2
ALT8T
 70
     8
280
     0
  0
ATTDEF
  5
13B
330
1F
100
AcDbEntity
  8
AM_6
100
AcDbText
 10
15.0000000000002
 20
-574.0000000000002
 30
0.0
 40
2.5
  1
 '','w/o L Type Hole Alteration (Top)','1','with L Type Hole Alteration (Top)' 
100
AcDbAttributeDefinition
  3

  2
ALT8TALG
 70
     8
280
     0
  0
ATTDEF
  5
13C
330
1F
100
AcDbEntity
  8
AM_6
100
AcDbText
 10
15.0000000000002
 20
-577.0000000000002
 30
0.0
 40
2.5
  1
w/o L Type Hole Alteration (Bottom)
100
AcDbAttributeDefinition
  3

  2
ALT8B
 70
     8
280
     0
  0
ATTDEF
  5
13D
330
1F
100
AcDbEntity
  8
AM_6
100
AcDbText
 10
15.0000000000002
 20
-580.0000000000002
 30
0.0
 40
2.5
  1
 '','w/o L Type Hole Alteration (Bottom)','1','with L Type Hole Alteration (Bottom)' 
100
AcDbAttributeDefinition
  3

  2
ALT8BALG
 70
     8
280
     0
  0
ATTDEF
  5
13E
330
1F
100
AcDbEntity
  8
AM_6
100
AcDbText
 10
15.0000000000002
 20
-583.0000000000002
 30
0.0
 40
2.5
  1
0
100
AcDbAttributeDefinition
  3

  2
HQ
 70
     8
280
     0
  0
ATTDEF
  5
13F
330
1F
100
AcDbEntity
  8
AM_6
100
AcDbText
 10
15.0000000000002
 20
-586.0000000000002
 30
0.0
 40
2.5
  1
0
100
AcDbAttributeDefinition
  3

  2
HQALG
 70
     8
280
     0
  0
ATTDEF
  5
140
330
1F
100
AcDbEntity
  8
AM_6
100
AcDbText
 10
15.0000000000002
 20
-589.0000000000002
 30
0.0
 40
2.5
  1
0
100
AcDbAttributeDefinition
  3

  2
JLP
 70
     8
280
     0
  0
ATTDEF
  5
141
330
1F
100
AcDbEntity
  8
AM_6
100
AcDbText
 10
15.0000000000002
 20
-592.0000000000002
 30
0.0
 40
2.5
  1
12.000
100
AcDbAttributeDefinition
  3

  2
JLPMIN
 70
     8
280
     0
  0
ATTDEF
  5
142
330
1F
100
AcDbEntity
  8
AM_6
100
AcDbText
 10
15.0000000000002
 20
-595.0000000000002
 30
0.0
 40
2.5
  1
0.000
100
AcDbAttributeDefinition
  3

  2
JLPMAX
 70
     8
280
     0
  0
ATTDEF
  5
143
330
1F
100
AcDbEntity
  8
AM_6
100
AcDbText
 10
15.0000000000002
 20
-598.0000000000002
 30
0.0
 40
2.5
  1
[0]
100
AcDbAttributeDefinition
  3

  2
JLPALG
 70
     8
280
     0
  0
ATTDEF
  5
144
330
1F
100
AcDbEntity
  8
AM_6
100
AcDbText
 10
15.0000000000002
 20
-601.0000000000002
 30
0.0
 40
2.5
  1
0
100
AcDbAttributeDefinition
  3

  2
KLP
 70
     8
280
     0
  0
ATTDEF
  5
145
330
1F
100
AcDbEntity
  8
AM_6
100
AcDbText
 10
15.0000000000002
 20
-604.0000000000002
 30
0.0
 40
2.5
  1
12.000
100
AcDbAttributeDefinition
  3

  2
KLPMIN
 70
     8
280
     0
  0
ATTDEF
  5
146
330
1F
100
AcDbEntity
  8
AM_6
100
AcDbText
 10
15.0000000000002
 20
-607.0000000000002
 30
0.0
 40
2.5
  1
0.000
100
AcDbAttributeDefinition
  3

  2
KLPMAX
 70
     8
280
     0
  0
ATTDEF
  5
147
330
1F
100
AcDbEntity
  8
AM_6
100
AcDbText
 10
15.0000000000002
 20
-610.0000000000002
 30
0.0
 40
2.5
  1
[0]
100
AcDbAttributeDefinition
  3

  2
KLPALG
 70
     8
280
     0
  0
ATTDEF
  5
148
330
1F
100
AcDbEntity
  8
AM_6
100
AcDbText
 10
15.0000000000002
 20
-613.0000000000002
 30
0.0
 40
2.5
  1
0.000
100
AcDbAttributeDefinition
  3

  2
L1
 70
     8
280
     0
  0
ATTDEF
  5
149
330
1F
100
AcDbEntity
  8
AM_6
100
AcDbText
 10
15.0000000000002
 20
-616.0000000000002
 30
0.0
 40
2.5
  1
7.1
100
AcDbAttributeDefinition
  3

  2
D8
 70
     8
280
     0
  0
ATTDEF
  5
14A
330
1F
100
AcDbEntity
  8
AM_6
100
AcDbText
 10
15.0000000000002
 20
-619.0000000000002
 30
0.0
 40
2.5
  1

100
AcDbAttributeDefinition
  3

  2
ALT8PN
 70
     8
280
     0
  0
ATTDEF
  5
14B
330
1F
100
AcDbEntity
  8
AM_6
100
AcDbText
 10
15.0000000000002
 20
-622.0000000000002
 30
0.0
 40
2.5
  1
misumi_usa_inc
100
AcDbAttributeDefinition
  3

  2
COMPANY
 70
     8
280
     0
  0
LINE
  5
14C
330
1F
100
AcDbEntity
  8
AM_7
100
AcDbLine
 10
-2.204999895000209
 20
9.9999999999998
 30
0.0
 11
2.204999894999791
 21
9.9999999999998
 31
0.0
  0
LINE
  5
14D
330
1F
100
AcDbEntity
  8
AM_7
100
AcDbLine
 10
-0.000000000000209
 20
7.795000104999799
 30
0.0
 11
-0.000000000000209
 21
12.2049998949998
 31
0.0
  0
LINE
  5
14E
330
1F
100
AcDbEntity
  8
AM_7
100
AcDbLine
 10
-2.20499989500021
 20
-10.0000005000002
 30
0.0
 11
2.20499989499979
 21
-10.0000005000002
 31
0.0
  0
LINE
  5
14F
330
1F
100
AcDbEntity
  8
AM_7
100
AcDbLine
 10
-0.0000000000002102
 20
-12.2050003950002
 30
0.0
 11
-0.0000000000002102
 21
-7.795000605000199
 31
0.0
  0
ARC
  5
150
330
1F
100
AcDbEntity
  8
AM_0
100
AcDbCircle
 10
-9.700000000000207
 20
-13.3000005000002
 30
0.0
 40
0.2999999999999954
100
AcDbArc
 50
90.0
 51
180.0
  0
LINE
  5
151
330
1F
100
AcDbEntity
  8
AM_0
100
AcDbLine
 10
-10.0000000000002
 20
-13.3000005000002
 30
0.0
 11
-10.0000000000002
 21
-19.0000000000003
 31
0.0
  0
ARC
  5
152
330
1F
100
AcDbEntity
  8
AM_0
100
AcDbCircle
 10
-9.000000000000199
 20
-19.0000000000003
 30
0.0
 40
1.000000000000002
100
AcDbArc
 50
180.0
 51
270.0
  0
LINE
  5
153
330
1F
100
AcDbEntity
  8
AM_0
100
AcDbLine
 10
-9.000000000000199
 20
-20.0000000000003
 30
0.0
 11
-3.29999999999994
 21
-20.0000000000003
 31
0.0
  0
ARC
  5
154
330
1F
100
AcDbEntity
  8
AM_0
100
AcDbCircle
 10
-3.299999999999975
 20
-19.7000000000003
 30
0.0
 40
0.2999999999999972
100
AcDbArc
 50
270.0
 51
0.0
  0
LINE
  5
155
330
1F
100
AcDbEntity
  8
AM_0
100
AcDbLine
 10
-2.999999999999979
 20
-19.7000000000003
 30
0.0
 11
-3.0000000000001
 21
-18.0000000000003
 31
0.0
  0
LINE
  5
156
330
1F
100
AcDbEntity
  8
AM_0
100
AcDbLine
 10
-3.0000000000001
 20
-18.0000000000003
 30
0.0
 11
-6.00000000000009
 21
-18.0000000000003
 31
0.0
  0
LINE
  5
157
330
1F
100
AcDbEntity
  8
AM_0
100
AcDbLine
 10
-6.00000000000009
 20
-18.0000000000003
 30
0.0
 11
-6.00000000000009
 21
-17.06068250000084
 31
0.0
  0
LINE
  5
158
330
1F
100
AcDbEntity
  8
AM_0
100
AcDbLine
 10
-6.00000000000009
 20
-17.06068250000084
 30
0.0
 11
-2.93931800000267
 21
-14.0000000000003
 31
0.0
  0
LINE
  5
159
330
1F
100
AcDbEntity
  8
AM_0
100
AcDbLine
 10
-2.93931800000267
 20
-14.0000000000003
 30
0.0
 11
-0.5196152422707709
 21
-14.0000000000003
 31
0.0
  0
LINE
  5
15A
330
1F
100
AcDbEntity
  8
AM_0
100
AcDbLine
 10
-0.5196152422707709
 20
-14.0000000000003
 30
0.0
 11
-0.0000000000002106
 21
-13.7000000000003
 31
0.0
  0
LINE
  5
15B
330
1F
100
AcDbEntity
  8
AM_0
100
AcDbLine
 10
-0.0000000000002106
 20
-13.7000000000003
 30
0.0
 11
0.519615242270471
 21
-14.0000000000003
 31
0.0
  0
LINE
  5
15C
330
1F
100
AcDbEntity
  8
AM_0
100
AcDbLine
 10
0.519615242270471
 20
-14.0000000000003
 30
0.0
 11
2.9393364999984
 21
-14.0000000000003
 31
0.0
  0
LINE
  5
15D
330
1F
100
AcDbEntity
  8
AM_0
100
AcDbLine
 10
2.9393364999984
 20
-14.0000000000003
 30
0.0
 11
5.99999999999979
 21
-17.0606628000019
 31
0.0
  0
LINE
  5
15E
330
1F
100
AcDbEntity
  8
AM_0
100
AcDbLine
 10
5.99999999999979
 20
-17.0606628000019
 30
0.0
 11
5.99999999999979
 21
-18.0000000000003
 31
0.0
  0
LINE
  5
15F
330
1F
100
AcDbEntity
  8
AM_0
100
AcDbLine
 10
5.99999999999979
 20
-18.0000000000003
 30
0.0
 11
2.99999999999979
 21
-18.0000000000003
 31
0.0
  0
LINE
  5
160
330
1F
100
AcDbEntity
  8
AM_0
100
AcDbLine
 10
2.99999999999979
 20
-18.0000000000003
 30
0.0
 11
2.99999999999979
 21
-19.7000000000003
 31
0.0
  0
ARC
  5
161
330
1F
100
AcDbEntity
  8
AM_0
100
AcDbCircle
 10
3.299999999999783
 20
-19.7000000000003
 30
0.0
 40
0.2999999999999927
100
AcDbArc
 50
180.0
 51
270.0
  0
LINE
  5
162
330
1F
100
AcDbEntity
  8
AM_0
100
AcDbLine
 10
3.299999999999788
 20
-20.0000000000003
 30
0.0
 11
8.99999999999968
 21
-20.0000000000003
 31
0.0
  0
ARC
  5
163
330
1F
100
AcDbEntity
  8
AM_0
100
AcDbCircle
 10
8.999999999999682
 20
-19.0000000000003
 30
0.0
 40
0.9999999999999964
100
AcDbArc
 50
270.0
 51
0.0
  0
LINE
  5
164
330
1F
100
AcDbEntity
  8
AM_0
100
AcDbLine
 10
9.99999999999968
 20
-19.0000000000003
 30
0.0
 11
9.99999999999979
 21
-13.30000050000021
 31
0.0
  0
ARC
  5
165
330
1F
100
AcDbEntity
  8
AM_0
100
AcDbCircle
 10
9.69999999999979
 20
-13.3000005000002
 30
0.0
 40
0.3000000000000007
100
AcDbArc
 50
0.0
 51
90.0
  0
LINE
  5
166
330
1F
100
AcDbEntity
  8
AM_0
100
AcDbLine
 10
9.699999999999788
 20
-13.0000005000002
 30
0.0
 11
7.999999999999681
 21
-13.0000005000002
 31
0.0
  0
LINE
  5
167
330
1F
100
AcDbEntity
  8
AM_0
100
AcDbLine
 10
7.999999999999681
 20
-13.0000005000002
 30
0.0
 11
7.99999999999979
 21
-16.0000005000001
 31
0.0
  0
LINE
  5
168
330
1F
100
AcDbEntity
  8
AM_0
100
AcDbLine
 10
7.99999999999979
 20
-16.0000005000001
 30
0.0
 11
7.06065685000389
 21
-16.0000005000001
 31
0.0
  0
LINE
  5
169
330
1F
100
AcDbEntity
  8
AM_0
100
AcDbLine
 10
7.06065685000389
 20
-16.0000005000001
 30
0.0
 11
3.99999999999979
 21
-12.93934214999842
 31
0.0
  0
LINE
  5
16A
330
1F
100
AcDbEntity
  8
AM_0
100
AcDbLine
 10
3.99999999999979
 20
-12.93934214999842
 30
0.0
 11
3.99999999999991
 21
-10.519615742271
 31
0.0
  0
LINE
  5
16B
330
1F
100
AcDbEntity
  8
AM_0
100
AcDbLine
 10
3.99999999999991
 20
-10.519615742271
 30
0.0
 11
3.69999999999984
 21
-10.0000005000002
 31
0.0
  0
LINE
  5
16C
330
1F
100
AcDbEntity
  8
AM_0
100
AcDbLine
 10
3.69999999999984
 20
-10.0000005000002
 30
0.0
 11
3.99999999999968
 21
-9.48038525773048
 31
0.0
  0
LINE
  5
16D
330
1F
100
AcDbEntity
  8
AM_0
100
AcDbLine
 10
3.99999999999968
 20
-9.48038525773048
 30
0.0
 11
3.99999999999979
 21
-7.06068365001293
 31
0.0
  0
LINE
  5
16E
330
1F
100
AcDbEntity
  8
AM_0
100
AcDbLine
 10
3.99999999999979
 20
-7.06068365001293
 30
0.0
 11
7.060682359995202
 21
-4.000000504000221
 31
0.0
  0
LINE
  5
16F
330
1F
100
AcDbEntity
  8
AM_0
100
AcDbLine
 10
7.060682359995202
 20
-4.000000504000221
 30
0.0
 11
7.99999999999979
 21
-4.00000050400022
 31
0.0
  0
LINE
  5
170
330
1F
100
AcDbEntity
  8
AM_0
100
AcDbLine
 10
7.99999999999979
 20
-4.00000050400022
 30
0.0
 11
7.999999999999681
 21
-7.000000500000211
 31
0.0
  0
LINE
  5
171
330
1F
100
AcDbEntity
  8
AM_0
100
AcDbLine
 10
7.999999999999681
 20
-7.000000500000211
 30
0.0
 11
9.69999999999984
 21
-7.000000500000211
 31
0.0
  0
ARC
  5
172
330
1F
100
AcDbEntity
  8
AM_0
100
AcDbCircle
 10
9.699999999999788
 20
-6.70000050000021
 30
0.0
 40
0.3000000000000007
100
AcDbArc
 50
270.0
 51
0.0000008537736463
  0
LINE
  5
173
330
1F
100
AcDbEntity
  8
AM_0
100
AcDbLine
 10
9.99999999999979
 20
-6.700000500000209
 30
0.0
 11
10.0000000000002
 21
6.699999999999732
 31
0.0
  0
ARC
  5
174
330
1F
100
AcDbEntity
  8
AM_0
100
AcDbCircle
 10
9.7000000000002
 20
6.699999999999739
 30
0.0
 40
0.3000000000000007
100
AcDbArc
 50
0.0
 51
90.0
  0
LINE
  5
175
330
1F
100
AcDbEntity
  8
AM_0
100
AcDbLine
 10
9.7000000000002
 20
6.999999999999739
 30
0.0
 11
8.00000000000013
 21
6.99999999999974
 31
0.0
  0
LINE
  5
176
330
1F
100
AcDbEntity
  8
AM_0
100
AcDbLine
 10
8.00000000000013
 20
6.99999999999974
 30
0.0
 11
8.00000000000013
 21
3.999999999999801
 31
0.0
  0
LINE
  5
177
330
1F
100
AcDbEntity
  8
AM_0
100
AcDbLine
 10
8.00000000000013
 20
3.999999999999801
 30
0.0
 11
7.06067799998808
 21
3.99999999999979
 31
0.0
  0
LINE
  5
178
330
1F
100
AcDbEntity
  8
AM_0
100
AcDbLine
 10
7.06067799998808
 20
3.99999999999979
 30
0.0
 11
4.000000000000021
 21
7.06068075001425
 31
0.0
  0
LINE
  5
179
330
1F
100
AcDbEntity
  8
AM_0
100
AcDbLine
 10
4.000000000000021
 20
7.06068075001425
 30
0.0
 11
4.00000000000014
 21
9.4803847577287
 31
0.0
  0
LINE
  5
17A
330
1F
100
AcDbEntity
  8
AM_0
100
AcDbLine
 10
4.00000000000014
 20
9.4803847577287
 30
0.0
 11
3.69999999999996
 21
9.99999999999963
 31
0.0
  0
LINE
  5
17B
330
1F
100
AcDbEntity
  8
AM_0
100
AcDbLine
 10
3.69999999999996
 20
9.99999999999963
 30
0.0
 11
3.99999999999991
 21
10.5196152422701
 31
0.0
  0
LINE
  5
17C
330
1F
100
AcDbEntity
  8
AM_0
100
AcDbLine
 10
3.99999999999991
 20
10.5196152422701
 30
0.0
 11
3.99999999999991
 21
12.9393367499955
 31
0.0
  0
LINE
  5
17D
330
1F
100
AcDbEntity
  8
AM_0
100
AcDbLine
 10
3.99999999999991
 20
12.9393367499955
 30
0.0
 11
7.0606610000025
 21
15.9999999999997
 31
0.0
  0
LINE
  5
17E
330
1F
100
AcDbEntity
  8
AM_0
100
AcDbLine
 10
7.0606610000025
 20
15.9999999999997
 30
0.0
 11
7.99999999999979
 21
15.9999999999997
 31
0.0
  0
LINE
  5
17F
330
1F
100
AcDbEntity
  8
AM_0
100
AcDbLine
 10
7.99999999999979
 20
15.9999999999997
 30
0.0
 11
7.99999999999979
 21
12.9999999999997
 31
0.0
  0
LINE
  5
180
330
1F
100
AcDbEntity
  8
AM_0
100
AcDbLine
 10
7.99999999999979
 20
12.9999999999997
 30
0.0
 11
9.69999999999984
 21
12.9999999999997
 31
0.0
  0
ARC
  5
181
330
1F
100
AcDbEntity
  8
AM_0
100
AcDbCircle
 10
9.699999999999791
 20
13.2999999999997
 30
0.0
 40
0.2999999999999989
100
AcDbArc
 50
270.0
 51
0.0
  0
LINE
  5
182
330
1F
100
AcDbEntity
  8
AM_0
100
AcDbLine
 10
9.99999999999979
 20
13.2999999999997
 30
0.0
 11
9.99999999999979
 21
18.9999999999997
 31
0.0
  0
ARC
  5
183
330
1F
100
AcDbEntity
  8
AM_0
100
AcDbCircle
 10
8.999999999999785
 20
18.9999999999998
 30
0.0
 40
1.000000000000005
100
AcDbArc
 50
0.0
 51
90.0
  0
LINE
  5
184
330
1F
100
AcDbEntity
  8
AM_0
100
AcDbLine
 10
8.999999999999787
 20
19.9999999999998
 30
0.0
 11
3.29999999999975
 21
19.9999999999998
 31
0.0
  0
ARC
  5
185
330
1F
100
AcDbEntity
  8
AM_0
100
AcDbCircle
 10
3.299999999999796
 20
19.6999999999998
 30
0.0
 40
0.3000000000000043
100
AcDbArc
 50
90.0
 51
180.0
  0
LINE
  5
186
330
1F
100
AcDbEntity
  8
AM_0
100
AcDbLine
 10
2.99999999999979
 20
19.69999999999979
 30
0.0
 11
2.99999999999991
 21
17.9999999999998
 31
0.0
  0
LINE
  5
187
330
1F
100
AcDbEntity
  8
AM_0
100
AcDbLine
 10
2.99999999999991
 20
17.9999999999998
 30
0.0
 11
5.999999999999911
 21
17.9999999999998
 31
0.0
  0
LINE
  5
188
330
1F
100
AcDbEntity
  8
AM_0
100
AcDbLine
 10
5.999999999999911
 20
17.9999999999998
 30
0.0
 11
5.99999999999979
 21
17.06065974997375
 31
0.0
  0
LINE
  5
189
330
1F
100
AcDbEntity
  8
AM_0
100
AcDbLine
 10
5.99999999999979
 20
17.06065974997375
 30
0.0
 11
2.939353999948251
 21
14.0
 31
0.0
  0
LINE
  5
18A
330
1F
100
AcDbEntity
  8
AM_0
100
AcDbLine
 10
2.939353999948251
 20
14.0
 30
0.0
 11
0.5196386249567879
 21
14.0
 31
0.0
  0
LINE
  5
18B
330
1F
100
AcDbEntity
  8
AM_0
100
AcDbLine
 10
0.5196386249567879
 20
14.0
 30
0.0
 11
-0.0000000000002087
 21
13.6999864999997
 31
0.0
  0
LINE
  5
18C
330
1F
100
AcDbEntity
  8
AM_0
100
AcDbLine
 10
-0.0000000000002087
 20
13.6999864999997
 30
0.0
 11
-0.5196386249571917
 21
14.0
 31
0.0
  0
LINE
  5
18D
330
1F
100
AcDbEntity
  8
AM_0
100
AcDbLine
 10
-0.5196386249571917
 20
14.0
 30
0.0
 11
-2.939335000000311
 21
14.0
 31
0.0
  0
LINE
  5
18E
330
1F
100
AcDbEntity
  8
AM_0
100
AcDbLine
 10
-2.939335000000311
 20
14.0
 30
0.0
 11
-6.00000000000009
 21
17.06067800001243
 31
0.0
  0
LINE
  5
18F
330
1F
100
AcDbEntity
  8
AM_0
100
AcDbLine
 10
-6.00000000000009
 20
17.06067800001243
 30
0.0
 11
-6.00000000000009
 21
17.9999999999997
 31
0.0
  0
LINE
  5
190
330
1F
100
AcDbEntity
  8
AM_0
100
AcDbLine
 10
-6.00000000000009
 20
17.9999999999997
 30
0.0
 11
-3.0000000000001
 21
17.9999999999997
 31
0.0
  0
LINE
  5
191
330
1F
100
AcDbEntity
  8
AM_0
100
AcDbLine
 10
-3.0000000000001
 20
17.9999999999997
 30
0.0
 11
-2.99999999999998
 21
19.69999999999978
 31
0.0
  0
ARC
  5
192
330
1F
100
AcDbEntity
  8
AM_0
100
AcDbCircle
 10
-3.299999999999979
 20
19.6999999999998
 30
0.0
 40
0.2999999999999985
100
AcDbArc
 50
0.0000008537736463
 51
90.0
  0
LINE
  5
193
330
1F
100
AcDbEntity
  8
AM_0
100
AcDbLine
 10
-3.299999999999985
 20
19.9999999999998
 30
0.0
 11
-9.00000000000009
 21
19.9999999999998
 31
0.0
  0
ARC
  5
194
330
1F
100
AcDbEntity
  8
AM_0
100
AcDbCircle
 10
-9.0000000000002
 20
18.9999999999998
 30
0.0
 40
1.0
100
AcDbArc
 50
90.0
 51
180.0
  0
LINE
  5
195
330
1F
100
AcDbEntity
  8
AM_0
100
AcDbLine
 10
-10.0000000000002
 20
18.9999999999998
 30
0.0
 11
-10.0000000000002
 21
13.2999999999997
 31
0.0
  0
ARC
  5
196
330
1F
100
AcDbEntity
  8
AM_0
100
AcDbCircle
 10
-9.7000000000002
 20
13.2999999999997
 30
0.0
 40
0.3000000000000007
100
AcDbArc
 50
180.0
 51
270.0
  0
LINE
  5
197
330
1F
100
AcDbEntity
  8
AM_0
100
AcDbLine
 10
-9.700000000000202
 20
12.9999999999997
 30
0.0
 11
-8.00000000000021
 21
12.9999999999997
 31
0.0
  0
LINE
  5
198
330
1F
100
AcDbEntity
  8
AM_0
100
AcDbLine
 10
-8.00000000000021
 20
12.9999999999997
 30
0.0
 11
-8.00000000000021
 21
15.9999999999997
 31
0.0
  0
LINE
  5
199
330
1F
100
AcDbEntity
  8
AM_0
100
AcDbLine
 10
-8.00000000000021
 20
15.9999999999997
 30
0.0
 11
-7.06064200000187
 21
15.9999999999997
 31
0.0
  0
LINE
  5
19A
330
1F
100
AcDbEntity
  8
AM_0
100
AcDbLine
 10
-7.06064200000187
 20
15.9999999999997
 30
0.0
 11
-3.99999999999998
 21
12.9393565000017
 31
0.0
  0
LINE
  5
19B
330
1F
100
AcDbEntity
  8
AM_0
100
AcDbLine
 10
-3.99999999999998
 20
12.9393565000017
 30
0.0
 11
-3.99999999999987
 21
10.5196152422698
 31
0.0
  0
LINE
  5
19C
330
1F
100
AcDbEntity
  8
AM_0
100
AcDbLine
 10
-3.99999999999987
 20
10.5196152422698
 30
0.0
 11
-3.70000000000037
 21
9.99999999999973
 31
0.0
  0
LINE
  5
19D
330
1F
100
AcDbEntity
  8
AM_0
100
AcDbLine
 10
-3.70000000000037
 20
9.99999999999973
 30
0.0
 11
-4.00000000000032
 21
9.48038475772946
 31
0.0
  0
LINE
  5
19E
330
1F
100
AcDbEntity
  8
AM_0
100
AcDbLine
 10
-4.00000000000032
 20
9.48038475772946
 30
0.0
 11
-4.00000000000021
 21
7.06065999999801
 31
0.0
  0
LINE
  5
19F
330
1F
100
AcDbEntity
  8
AM_0
100
AcDbLine
 10
-4.00000000000021
 20
7.06065999999801
 30
0.0
 11
-7.060658999999202
 21
3.99999999999979
 31
0.0
  0
LINE
  5
1A0
330
1F
100
AcDbEntity
  8
AM_0
100
AcDbLine
 10
-7.060658999999202
 20
3.99999999999979
 30
0.0
 11
-8.00000000000021
 21
3.99999999999979
 31
0.0
  0
LINE
  5
1A1
330
1F
100
AcDbEntity
  8
AM_0
100
AcDbLine
 10
-8.00000000000021
 20
3.99999999999979
 30
0.0
 11
-8.00000000000021
 21
6.99999999999974
 31
0.0
  0
LINE
  5
1A2
330
1F
100
AcDbEntity
  8
AM_0
100
AcDbLine
 10
-8.00000000000021
 20
6.99999999999974
 30
0.0
 11
-9.70000000000026
 21
6.99999999999974
 31
0.0
  0
ARC
  5
1A3
330
1F
100
AcDbEntity
  8
AM_0
100
AcDbCircle
 10
-9.7000000000002
 20
6.699999999999736
 30
0.0
 40
0.3000000000000034
100
AcDbArc
 50
90.0
 51
179.9999991462263
  0
LINE
  5
1A4
330
1F
100
AcDbEntity
  8
AM_0
100
AcDbLine
 10
-10.0000000000002
 20
6.699999999999737
 30
0.0
 11
-10.0000000000002
 21
-6.7000005000002
 31
0.0
  0
ARC
  5
1A5
330
1F
100
AcDbEntity
  8
AM_0
100
AcDbCircle
 10
-9.7000000000002
 20
-6.70000050000021
 30
0.0
 40
0.3000000000000007
100
AcDbArc
 50
180.0
 51
270.0
  0
LINE
  5
1A6
330
1F
100
AcDbEntity
  8
AM_0
100
AcDbLine
 10
-9.700000000000202
 20
-7.000000500000211
 30
0.0
 11
-8.00000000000021
 21
-7.000000500000211
 31
0.0
  0
LINE
  5
1A7
330
1F
100
AcDbEntity
  8
AM_0
100
AcDbLine
 10
-8.00000000000021
 20
-7.000000500000211
 30
0.0
 11
-8.00000000000032
 21
-4.00000050000009
 31
0.0
  0
LINE
  5
1A8
330
1F
100
AcDbEntity
  8
AM_0
100
AcDbLine
 10
-8.00000000000032
 20
-4.00000050000009
 30
0.0
 11
-7.06066256998882
 21
-4.00000050000009
 31
0.0
  0
LINE
  5
1A9
330
1F
100
AcDbEntity
  8
AM_0
100
AcDbLine
 10
-7.06066256998882
 20
-4.00000050000009
 30
0.0
 11
-4.00000000000021
 21
-7.06066880000641
 31
0.0
  0
LINE
  5
1AA
330
1F
100
AcDbEntity
  8
AM_0
100
AcDbLine
 10
-4.00000000000021
 20
-7.06066880000641
 30
0.0
 11
-4.00000000000032
 21
-9.48038525772966
 31
0.0
  0
LINE
  5
1AB
330
1F
100
AcDbEntity
  8
AM_0
100
AcDbLine
 10
-4.00000000000032
 20
-9.48038525772966
 30
0.0
 11
-3.70000000000048
 21
-10.0000005000002
 31
0.0
  0
LINE
  5
1AC
330
1F
100
AcDbEntity
  8
AM_0
100
AcDbLine
 10
-3.70000000000048
 20
-10.0000005000002
 30
0.0
 11
-4.00000000000032
 21
-10.5196157422704
 31
0.0
  0
LINE
  5
1AD
330
1F
100
AcDbEntity
  8
AM_0
100
AcDbLine
 10
-4.00000000000032
 20
-10.5196157422704
 30
0.0
 11
-4.00000000000021
 21
-12.9393575000006
 31
0.0
  0
LINE
  5
1AE
330
1F
100
AcDbEntity
  8
AM_0
100
AcDbLine
 10
-4.00000000000021
 20
-12.9393575000006
 30
0.0
 11
-7.06063650001998
 21
-16.0000005000001
 31
0.0
  0
LINE
  5
1AF
330
1F
100
AcDbEntity
  8
AM_0
100
AcDbLine
 10
-7.06063650001998
 20
-16.0000005000001
 30
0.0
 11
-8.00000000000021
 21
-16.0000005000001
 31
0.0
  0
LINE
  5
1B0
330
1F
100
AcDbEntity
  8
AM_0
100
AcDbLine
 10
-8.00000000000021
 20
-16.0000005000001
 30
0.0
 11
-8.00000000000021
 21
-13.0000005000002
 31
0.0
  0
ARC
  5
1B1
330
1F
100
AcDbEntity
  8
AM_0
100
AcDbCircle
 10
-7.700000000000211
 20
1.699999499999791
 30
0.0
 40
0.2999999999999989
100
AcDbArc
 50
90.0
 51
180.0
  0
LINE
  5
1B2
330
1F
100
AcDbEntity
  8
AM_0
100
AcDbLine
 10
-7.06359953806053
 20
1.99999949999979
 30
0.0
 11
-7.70000000000025
 21
1.99999949999979
 31
0.0
  0
ARC
  5
1B3
330
1F
100
AcDbEntity
  8
AM_0
100
AcDbCircle
 10
-7.063603110854685
 20
2.299997187656406
 30
0.0
 40
0.2999976876778904
100
AcDbArc
 50
270.0006823586799
 51
314.9988569096732
  0
LINE
  5
1B4
330
1F
100
AcDbEntity
  8
AM_0
100
AcDbLine
 10
-2.939339000000231
 20
5.99999999999978
 30
0.0
 11
-6.851476943747386
 21
2.087862556253498
 31
0.0
  0
LINE
  5
1B5
330
1F
100
AcDbEntity
  8
AM_0
100
AcDbLine
 10
2.939335500000331
 20
5.9999999999998
 30
0.0
 11
-2.939339000000231
 21
5.99999999999978
 31
0.0
  0
LINE
  5
1B6
330
1F
100
AcDbEntity
  8
AM_0
100
AcDbLine
 10
6.85147414668972
 20
2.087862153311519
 30
0.0
 11
2.939335500000331
 21
5.9999999999998
 31
0.0
  0
ARC
  5
1B7
330
1F
100
AcDbEntity
  8
AM_0
100
AcDbCircle
 10
7.063600872725701
 20
2.29999950999641
 30
0.0
 40
0.3000000099999938
100
AcDbArc
 50
225.0014356419521
 51
269.9997282793899
  0
LINE
  5
1B8
330
1F
100
AcDbEntity
  8
AM_0
100
AcDbLine
 10
7.70000000000002
 20
1.99999949999978
 30
0.0
 11
7.063599449999866
 21
1.99999949999979
 31
0.0
  0
ARC
  5
1B9
330
1F
100
AcDbEntity
  8
AM_0
100
AcDbCircle
 10
7.700000000000019
 20
1.69999949999978
 30
0.0
 40
0.3000000000000007
100
AcDbArc
 50
0.0
 51
90.0
  0
LINE
  5
1BA
330
1F
100
AcDbEntity
  8
AM_0
100
AcDbLine
 10
8.00000000000002
 20
-1.700000250000211
 30
0.0
 11
8.00000000000002
 21
1.69999949999979
 31
0.0
  0
ARC
  5
1BB
330
1F
100
AcDbEntity
  8
AM_0
100
AcDbCircle
 10
7.700000000000021
 20
-1.70000025000021
 30
0.0
 40
0.2999999999999994
100
AcDbArc
 50
270.0
 51
0.0
  0
LINE
  5
1BC
330
1F
100
AcDbEntity
  8
AM_0
100
AcDbLine
 10
7.06360514999985
 20
-2.000000250000209
 30
0.0
 11
7.70000000000007
 21
-2.00000025000021
 31
0.0
  0
ARC
  5
1BD
330
1F
100
AcDbEntity
  8
AM_0
100
AcDbCircle
 10
7.063604772657465
 20
-2.300000259999966
 30
0.0
 40
0.3000000099999937
100
AcDbArc
 50
89.99992793291547
 51
134.9982274557685
  0
LINE
  5
1BE
330
1F
100
AcDbEntity
  8
AM_0
100
AcDbLine
 10
2.93933195000059
 20
-6.00000000000026
 30
0.0
 11
6.851479294004271
 21
-2.087861656002131
 31
0.0
  0
LINE
  5
1BF
330
1F
100
AcDbEntity
  8
AM_0
100
AcDbLine
 10
-2.93933500000001
 20
-6.00000000000026
 30
0.0
 11
2.93933195000059
 21
-6.00000000000026
 31
0.0
  0
LINE
  5
1C0
330
1F
100
AcDbEntity
  8
AM_0
100
AcDbLine
 10
-6.851481305214014
 20
-2.087861994790196
 30
0.0
 11
-2.93933500000001
 21
-6.00000000000026
 31
0.0
  0
ARC
  5
1C1
330
1F
100
AcDbEntity
  8
AM_0
100
AcDbCircle
 10
-7.063606160780086
 20
-2.299997937673279
 30
0.0
 40
0.2999976876774585
100
AcDbArc
 50
45.0014973254023
 51
89.9996900809781
  0
LINE
  5
1C2
330
1F
100
AcDbEntity
  8
AM_0
100
AcDbLine
 10
-7.700000000000209
 20
-2.00000025000019
 30
0.0
 11
-7.06360453806039
 21
-2.00000025000021
 31
0.0
  0
ARC
  5
1C3
330
1F
100
AcDbEntity
  8
AM_0
100
AcDbCircle
 10
-7.700000000000211
 20
-1.700000250000191
 30
0.0
 40
0.2999999999999989
100
AcDbArc
 50
180.0
 51
270.0
  0
CIRCLE
  5
1C4
330
1F
100
AcDbEntity
  8
AM_0
100
AcDbCircle
 10
-0.000000000000209
 20
9.9999999999998
 30
0.0
 40
2.0999999
  0
CIRCLE
  5
1C5
330
1F
100
AcDbEntity
  8
AM_0
100
AcDbCircle
 10
-0.0000000000002102
 20
-10.0000005000002
 30
0.0
 40
2.0999999
  0
LINE
  5
1C6
330
1F
100
AcDbEntity
  8
AM_0
100
AcDbLine
 10
-8.00000000000021
 20
1.6999994999998
 30
0.0
 11
-8.00000000000021
 21
-1.700000250000199
 31
0.0
  0
LINE
  5
1C7
330
1F
100
AcDbEntity
  8
AM_0
100
AcDbLine
 10
-8.00000000000021
 20
-13.0000005000002
 30
0.0
 11
-9.70000000000026
 21
-13.0000005000002
 31
0.0
  0
POINT
  5
1C8
330
1F
100
AcDbEntity
  8
ConnectionPoints
  6
Continuous
 62
     1
370
     5
100
AcDbPoint
 10
0.0
 20
0.0
 30
0.0
  0
ENDSEC
  0
SECTION
  2
OBJECTS
  0
DICTIONARY
  5
C
330
0
100
AcDbDictionary
281
     1
  3
ACAD_DETAILVIEWSTYLE
350
1CD
  3
ACAD_GROUP
350
D
  3
ACAD_LAYOUT
350
1A
  3
ACAD_MATERIAL
350
43
  3
ACAD_MLEADERSTYLE
350
1CC
  3
ACAD_MLINESTYLE
350
17
  3
ACAD_PLOTSETTINGS
350
19
  3
ACAD_PLOTSTYLENAME
350
E
  3
ACAD_SCALELIST
350
47
  3
ACAD_SECTIONVIEWSTYLE
350
1CE
  3
ACAD_TABLESTYLE
350
1CB
  3
ACAD_VISUALSTYLE
350
2A
  3
AcDbVariableDictionary
350
1C9
  0
SUN
  5
69
330
29
100
AcDbSun
 90
        1
290
     0
 63
     7
421
 16777215
 40
1.0
291
     1
 91
  2455826
 92
 54000000
292
     0
 70
     2
 71
   256
280
     1
  0
DICTIONARY
  5
1CD
102
{ACAD_REACTORS
330
C
102
}
330
C
100
AcDbDictionary
281
     1
  0
DICTIONARY
  5
D
102
{ACAD_REACTORS
330
C
102
}
330
C
100
AcDbDictionary
281
     1
  0
DICTIONARY
  5
1A
102
{ACAD_REACTORS
330
C
102
}
330
C
100
AcDbDictionary
281
     1
  3
Layout1
350
1E
  3
Layout2
350
26
  3
Model
350
22
  0
DICTIONARY
  5
43
102
{ACAD_REACTORS
330
C
102
}
330
C
100
AcDbDictionary
281
     1
  3
ByBlock
350
45
  3
ByLayer
350
44
  3
Global
350
46
  0
DICTIONARY
  5
1CC
102
{ACAD_REACTORS
330
C
102
}
330
C
100
AcDbDictionary
281
     1
  0
DICTIONARY
  5
17
102
{ACAD_REACTORS
330
C
102
}
330
C
100
AcDbDictionary
281
     1
  3
Standard
350
18
  0
DICTIONARY
  5
19
102
{ACAD_REACTORS
330
C
102
}
330
C
100
AcDbDictionary
281
     1
  0
ACDBDICTIONARYWDFLT
  5
E
102
{ACAD_REACTORS
330
C
102
}
330
C
100
AcDbDictionary
281
     1
  3
Normal
350
F
100
AcDbDictionaryWithDefault
340
F
  0
DICTIONARY
  5
47
102
{ACAD_REACTORS
330
C
102
}
330
C
100
AcDbDictionary
281
     1
  3
A0
350
48
  3
A1
350
49
  3
A2
350
4A
  3
A3
350
4B
  3
A4
350
4C
  3
A5
350
4D
  3
A6
350
4E
  3
A7
350
4F
  3
A8
350
50
  3
A9
350
51
  3
B0
350
52
  3
B1
350
53
  3
B2
350
54
  3
B3
350
55
  3
B4
350
56
  3
B5
350
57
  3
B6
350
58
  3
B7
350
59
  3
B8
350
5A
  3
B9
350
5B
  3
C0
350
5C
  3
C1
350
5D
  3
C2
350
5E
  3
C3
350
5F
  3
C4
350
60
  3
C5
350
61
  3
C6
350
62
  3
C7
350
63
  3
C8
350
64
  3
C9
350
65
  3
D0
350
66
  3
D1
350
67
  3
D2
350
68
  0
DICTIONARY
  5
1CE
102
{ACAD_REACTORS
330
C
102
}
330
C
100
AcDbDictionary
281
     1
  0
DICTIONARY
  5
1CB
102
{ACAD_REACTORS
330
C
102
}
330
C
100
AcDbDictionary
281
     1
  0
DICTIONARY
  5
2A
102
{ACAD_REACTORS
330
C
102
}
330
C
100
AcDbDictionary
281
     1
  3
2dWireframe
350
2F
  3
Basic
350
32
  3
Brighten
350
36
  3
ColorChange
350
3A
  3
Conceptual
350
34
  3
Dim
350
35
  3
EdgeColorOff
350
3D
  3
Facepattern
350
39
  3
Flat
350
2B
  3
FlatWithEdges
350
2C
  3
Gouraud
350
2D
  3
GouraudWithEdges
350
2E
  3
Hidden
350
31
  3
JitterOff
350
3B
  3
Linepattern
350
38
  3
OverhangOff
350
3C
  3
Realistic
350
33
  3
Shaded
350
42
  3
Shaded with edges
350
41
  3
Shades of Gray
350
3E
  3
Sketchy
350
3F
  3
Thicken
350
37
  3
Wireframe
350
30
  3
X-Ray
350
40
  0
DICTIONARY
  5
1C9
102
{ACAD_REACTORS
330
C
102
}
330
C
100
AcDbDictionary
281
     1
  3
CANNOSCALE
350
1CA
  0
LAYOUT
  5
1E
102
{ACAD_REACTORS
330
1A
102
}
330
1A
100
AcDbPlotSettings
  1

  2
none_device
  4

  6

 40
0.0
 41
0.0
 42
0.0
 43
0.0
 44
0.0
 45
0.0
 46
0.0
 47
0.0
 48
0.0
 49
0.0
140
0.0
141
0.0
142
1.0
143
1.0
 70
   688
 72
     1
 73
     0
 74
     5
  7

 75
    16
 76
     0
 77
     2
 78
   300
147
1.0
148
0.0
149
0.0
100
AcDbLayout
  1
Layout1
 70
     1
 71
     1
 10
0.0
 20
0.0
 11
420.0
 21
297.0
 12
0.0
 22
0.0
 32
0.0
 14
1.000000000000000E+20
 24
1.000000000000000E+20
 34
1.000000000000000E+20
 15
-1.000000000000000E+20
 25
-1.000000000000000E+20
 35
-1.000000000000000E+20
146
0.0
 13
0.0
 23
0.0
 33
0.0
 16
1.0
 26
0.0
 36
0.0
 17
0.0
 27
1.0
 37
0.0
 76
     0
330
1B
  0
LAYOUT
  5
26
102
{ACAD_REACTORS
330
1A
102
}
330
1A
100
AcDbPlotSettings
  1

  2
none_device
  4

  6

 40
0.0
 41
0.0
 42
0.0
 43
0.0
 44
0.0
 45
0.0
 46
0.0
 47
0.0
 48
0.0
 49
0.0
140
0.0
141
0.0
142
1.0
143
1.0
 70
   688
 72
     1
 73
     0
 74
     5
  7

 75
    16
 76
     0
 77
     2
 78
   300
147
1.0
148
0.0
149
0.0
100
AcDbLayout
  1
Layout2
 70
     1
 71
     2
 10
0.0
 20
0.0
 11
0.0
 21
0.0
 12
0.0
 22
0.0
 32
0.0
 14
0.0
 24
0.0
 34
0.0
 15
0.0
 25
0.0
 35
0.0
146
0.0
 13
0.0
 23
0.0
 33
0.0
 16
1.0
 26
0.0
 36
0.0
 17
0.0
 27
1.0
 37
0.0
 76
     0
330
23
  0
LAYOUT
  5
22
102
{ACAD_REACTORS
330
1A
102
}
330
1A
100
AcDbPlotSettings
  1

  2
none_device
  4
Letter_(8.50_x_11.00_Inches)
  6

 40
6.35
 41
6.35
 42
6.35000508
 43
6.35000508
 44
215.9
 45
279.4
 46
0.0
 47
0.0
 48
0.0
 49
0.0
140
0.0
141
0.0
142
1.0
143
1.0
 70
  1712
 72
     1
 73
     0
 74
     0
  7

 75
     0
 76
     0
 77
     2
 78
   300
147
1.0
148
0.0
149
0.0
100
AcDbLayout
  1
Model
 70
     1
 71
     0
 10
0.0
 20
0.0
 11
420.0
 21
297.0
 12
0.0
 22
0.0
 32
0.0
 14
1.000000000000000E+20
 24
1.000000000000000E+20
 34
1.000000000000000E+20
 15
-1.000000000000000E+20
 25
-1.000000000000000E+20
 35
-1.000000000000000E+20
146
0.0
 13
0.0
 23
0.0
 33
0.0
 16
1.0
 26
0.0
 36
0.0
 17
0.0
 27
1.0
 37
0.0
 76
     0
330
1F
331
29
  0
MATERIAL
  5
45
102
{ACAD_REACTORS
330
43
102
}
330
43
100
AcDbMaterial
  1
ByBlock
 72
     1
 94
      127
  0
MATERIAL
  5
44
102
{ACAD_REACTORS
330
43
102
}
330
43
100
AcDbMaterial
  1
ByLayer
 72
     1
 94
      127
  0
MATERIAL
  5
46
102
{ACAD_REACTORS
330
43
102
}
330
43
100
AcDbMaterial
  1
Global
 72
     1
 94
      127
  0
MLINESTYLE
  5
18
102
{ACAD_REACTORS
330
17
102
}
330
17
100
AcDbMlineStyle
  2
Standard
 70
     0
  3

 62
   256
 51
90.0
 52
90.0
 71
     2
 49
0.5
 62
   256
  6
BYLAYER
 49
-0.5
 62
   256
  6
BYLAYER
  0
ACDBPLACEHOLDER
  5
F
102
{ACAD_REACTORS
330
E
102
}
330
E
  0
SCALE
  5
48
102
{ACAD_REACTORS
330
47
102
}
330
47
100
AcDbScale
 70
     0
300
1:1
140
1.0
141
1.0
290
     1
  0
SCALE
  5
49
102
{ACAD_REACTORS
330
47
102
}
330
47
100
AcDbScale
 70
     0
300
1:2
140
1.0
141
2.0
290
     0
  0
SCALE
  5
4A
102
{ACAD_REACTORS
330
47
102
}
330
47
100
AcDbScale
 70
     0
300
1:4
140
1.0
141
4.0
290
     0
  0
SCALE
  5
4B
102
{ACAD_REACTORS
330
47
102
}
330
47
100
AcDbScale
 70
     0
300
1:5
140
1.0
141
5.0
290
     0
  0
SCALE
  5
4C
102
{ACAD_REACTORS
330
47
102
}
330
47
100
AcDbScale
 70
     0
300
1:8
140
1.0
141
8.0
290
     0
  0
SCALE
  5
4D
102
{ACAD_REACTORS
330
47
102
}
330
47
100
AcDbScale
 70
     0
300
1:10
140
1.0
141
10.0
290
     0
  0
SCALE
  5
4E
102
{ACAD_REACTORS
330
47
102
}
330
47
100
AcDbScale
 70
     0
300
1:16
140
1.0
141
16.0
290
     0
  0
SCALE
  5
4F
102
{ACAD_REACTORS
330
47
102
}
330
47
100
AcDbScale
 70
     0
300
1:20
140
1.0
141
20.0
290
     0
  0
SCALE
  5
50
102
{ACAD_REACTORS
330
47
102
}
330
47
100
AcDbScale
 70
     0
300
1:30
140
1.0
141
30.0
290
     0
  0
SCALE
  5
51
102
{ACAD_REACTORS
330
47
102
}
330
47
100
AcDbScale
 70
     0
300
1:40
140
1.0
141
40.0
290
     0
  0
SCALE
  5
52
102
{ACAD_REACTORS
330
47
102
}
330
47
100
AcDbScale
 70
     0
300
1:50
140
1.0
141
50.0
290
     0
  0
SCALE
  5
53
102
{ACAD_REACTORS
330
47
102
}
330
47
100
AcDbScale
 70
     0
300
1:100
140
1.0
141
100.0
290
     0
  0
SCALE
  5
54
102
{ACAD_REACTORS
330
47
102
}
330
47
100
AcDbScale
 70
     0
300
2:1
140
2.0
141
1.0
290
     0
  0
SCALE
  5
55
102
{ACAD_REACTORS
330
47
102
}
330
47
100
AcDbScale
 70
     0
300
4:1
140
4.0
141
1.0
290
     0
  0
SCALE
  5
56
102
{ACAD_REACTORS
330
47
102
}
330
47
100
AcDbScale
 70
     0
300
8:1
140
8.0
141
1.0
290
     0
  0
SCALE
  5
57
102
{ACAD_REACTORS
330
47
102
}
330
47
100
AcDbScale
 70
     0
300
10:1
140
10.0
141
1.0
290
     0
  0
SCALE
  5
58
102
{ACAD_REACTORS
330
47
102
}
330
47
100
AcDbScale
 70
     0
300
100:1
140
100.0
141
1.0
290
     0
  0
SCALE
  5
59
102
{ACAD_REACTORS
330
47
102
}
330
47
100
AcDbScale
 70
     0
300
1/128" = 1'-0"
140
0.0078125
141
12.0
290
     0
  0
SCALE
  5
5A
102
{ACAD_REACTORS
330
47
102
}
330
47
100
AcDbScale
 70
     0
300
1/64" = 1'-0"
140
0.015625
141
12.0
290
     0
  0
SCALE
  5
5B
102
{ACAD_REACTORS
330
47
102
}
330
47
100
AcDbScale
 70
     0
300
1/32" = 1'-0"
140
0.03125
141
12.0
290
     0
  0
SCALE
  5
5C
102
{ACAD_REACTORS
330
47
102
}
330
47
100
AcDbScale
 70
     0
300
1/16" = 1'-0"
140
0.0625
141
12.0
290
     0
  0
SCALE
  5
5D
102
{ACAD_REACTORS
330
47
102
}
330
47
100
AcDbScale
 70
     0
300
3/32" = 1'-0"
140
0.09375
141
12.0
290
     0
  0
SCALE
  5
5E
102
{ACAD_REACTORS
330
47
102
}
330
47
100
AcDbScale
 70
     0
300
1/8" = 1'-0"
140
0.125
141
12.0
290
     0
  0
SCALE
  5
5F
102
{ACAD_REACTORS
330
47
102
}
330
47
100
AcDbScale
 70
     0
300
3/16" = 1'-0"
140
0.1875
141
12.0
290
     0
  0
SCALE
  5
60
102
{ACAD_REACTORS
330
47
102
}
330
47
100
AcDbScale
 70
     0
300
1/4" = 1'-0"
140
0.25
141
12.0
290
     0
  0
SCALE
  5
61
102
{ACAD_REACTORS
330
47
102
}
330
47
100
AcDbScale
 70
     0
300
3/8" = 1'-0"
140
0.375
141
12.0
290
     0
  0
SCALE
  5
62
102
{ACAD_REACTORS
330
47
102
}
330
47
100
AcDbScale
 70
     0
300
1/2" = 1'-0"
140
0.5
141
12.0
290
     0
  0
SCALE
  5
63
102
{ACAD_REACTORS
330
47
102
}
330
47
100
AcDbScale
 70
     0
300
3/4" = 1'-0"
140
0.75
141
12.0
290
     0
  0
SCALE
  5
64
102
{ACAD_REACTORS
330
47
102
}
330
47
100
AcDbScale
 70
     0
300
1" = 1'-0"
140
1.0
141
12.0
290
     0
  0
SCALE
  5
65
102
{ACAD_REACTORS
330
47
102
}
330
47
100
AcDbScale
 70
     0
300
1-1/2" = 1'-0"
140
1.5
141
12.0
290
     0
  0
SCALE
  5
66
102
{ACAD_REACTORS
330
47
102
}
330
47
100
AcDbScale
 70
     0
300
3" = 1'-0"
140
3.0
141
12.0
290
     0
  0
SCALE
  5
67
102
{ACAD_REACTORS
330
47
102
}
330
47
100
AcDbScale
 70
     0
300
6" = 1'-0"
140
6.0
141
12.0
290
     0
  0
SCALE
  5
68
102
{ACAD_REACTORS
330
47
102
}
330
47
100
AcDbScale
 70
     0
300
1'-0" = 1'-0"
140
12.0
141
12.0
290
     0
  0
VISUALSTYLE
  5
2F
102
{ACAD_REACTORS
330
2A
102
}
330
2A
100
AcDbVisualStyle
  2
2dWireframe
 70
     4
177
     3
291
     0
 70
    58
 90
        0
176
     1
 90
        2
176
     1
 90
        0
176
     1
 90
        0
176
     1
 40
0.6
176
     1
 40
30.0
176
     1
 62
     7
420
 16777215
176
     1
 90
        1
176
     1
 90
        4
176
     1
 62
     7
176
     1
 62
   257
176
     1
 90
        1
176
     1
 90
        1
176
     1
 40
1.0
176
     1
 90
        0
176
     1
 62
   257
176
     1
 40
1.0
176
     1
 90
        1
176
     1
 90
        6
176
     1
 90
        2
176
     1
 62
     7
176
     1
 90
        5
176
     1
 90
        0
176
     1
 90
        0
176
     1
290
     0
176
     1
 90
        1
176
     1
 40
0.0
176
     1
 90
        0
176
     1
290
     1
176
     1
290
     1
176
     1
290
     0
176
     1
290
     0
176
     1
290
     0
176
     1
290
     0
176
     1
290
     0
176
     1
290
     0
176
     1
290
     0
176
     1
 90
       50
176
     1
 40
0.0
176
     1
 40
1.0
176
     1
 90
        0
176
     1
 62
    18
420
        0
176
     1
 90
       50
176
     1
 90
        3
176
     1
 62
     5
420
      255
176
     1
290
     0
176
     1
 90
       50
176
     1
 90
       50
176
     1
 90
       50
176
     1
290
     0
176
     1
 90
       50
176
     1
 62
   256
176
     0
 40
1.0
176
     0
 90
        2
176
     1
  1
strokes_ogs.tif
176
     1
290
     0
176
     1
 40
1.0
176
     1
 40
1.0
176
     1
  0
VISUALSTYLE
  5
32
102
{ACAD_REACTORS
330
2A
102
}
330
2A
100
AcDbVisualStyle
  2
Basic
 70
     7
177
     3
291
     1
 70
    58
 90
        1
176
     1
 90
        0
176
     1
 90
        1
176
     1
 90
        0
176
     1
 40
0.6
176
     1
 40
30.0
176
     1
 62
     7
420
 16777215
176
     1
 90
        0
176
     1
 90
        4
176
     1
 62
     7
176
     1
 62
   257
176
     1
 90
        1
176
     1
 90
        1
176
     1
 40
1.0
176
     1
 90
        8
176
     1
 62
     7
176
     1
 40
1.0
176
     1
 90
        1
176
     1
 90
        6
176
     1
 90
        2
176
     1
 62
     7
176
     1
 90
        5
176
     1
 90
        0
176
     1
 90
        0
176
     1
290
     0
176
     1
 90
        1
176
     1
 40
0.0
176
     1
 90
        0
176
     1
290
     0
176
     1
290
     1
176
     1
290
     1
176
     1
290
     0
176
     1
290
     0
176
     1
290
     0
176
     1
290
     0
176
     1
290
     0
176
     1
290
     0
176
     1
 90
       50
176
     1
 40
0.0
176
     1
 40
1.0
176
     1
 90
        0
176
     1
 62
    18
420
        0
176
     1
 90
       50
176
     1
 90
        3
176
     1
 62
     5
420
      255
176
     1
290
     0
176
     1
 90
       50
176
     1
 90
       50
176
     1
 90
       50
176
     1
290
     0
176
     1
 90
       50
176
     1
 62
   256
176
     0
 40
1.0
176
     0
 90
        2
176
     1
  1
strokes_ogs.tif
176
     1
290
     0
176
     1
 40
1.0
176
     1
 40
1.0
176
     1
  0
VISUALSTYLE
  5
36
102
{ACAD_REACTORS
330
2A
102
}
330
2A
100
AcDbVisualStyle
  2
Brighten
 70
    12
177
     3
291
     1
 70
    58
 90
        2
176
     1
 90
        2
176
     1
 90
        0
176
     1
 90
        0
176
     1
 40
0.6
176
     1
 40
30.0
176
     1
 62
     7
420
 16777215
176
     1
 90
        1
176
     1
 90
        4
176
     1
 62
     7
176
     1
 62
   257
176
     1
 90
        1
176
     1
 90
        1
176
     1
 40
1.0
176
     1
 90
        8
176
     1
 62
     7
176
     1
 40
1.0
176
     1
 90
        1
176
     1
 90
        6
176
     1
 90
        2
176
     1
 62
     7
176
     1
 90
        5
176
     1
 90
        0
176
     1
 90
        0
176
     1
290
     0
176
     1
 90
        1
176
     1
 40
50.0
176
     1
 90
        0
176
     1
290
     0
176
     1
290
     1
176
     1
290
     1
176
     1
290
     0
176
     1
290
     0
176
     1
290
     0
176
     1
290
     0
176
     1
290
     0
176
     1
290
     0
176
     1
 90
       50
176
     1
 40
0.0
176
     1
 40
1.0
176
     1
 90
        0
176
     1
 62
    18
420
        0
176
     1
 90
       50
176
     1
 90
        3
176
     1
 62
     5
420
      255
176
     1
290
     0
176
     1
 90
       50
176
     1
 90
       50
176
     1
 90
       50
176
     1
290
     0
176
     1
 90
       50
176
     1
 62
   256
176
     0
 40
1.0
176
     0
 90
        2
176
     1
  1
strokes_ogs.tif
176
     1
290
     0
176
     1
 40
1.0
176
     1
 40
1.0
176
     1
  0
VISUALSTYLE
  5
3A
102
{ACAD_REACTORS
330
2A
102
}
330
2A
100
AcDbVisualStyle
  2
ColorChange
 70
    16
177
     3
291
     1
 70
    58
 90
        2
176
     1
 90
        2
176
     1
 90
        3
176
     1
 90
        0
176
     1
 40
0.6
176
     1
 40
30.0
176
     1
 62
     8
420
  8421504
176
     1
 90
        1
176
     1
 90
        4
176
     1
 62
     7
176
     1
 62
   257
176
     1
 90
        1
176
     1
 90
        1
176
     1
 40
1.0
176
     1
 90
        8
176
     1
 62
     8
420
  8421504
176
     1
 40
1.0
176
     1
 90
        1
176
     1
 90
        6
176
     1
 90
        2
176
     1
 62
     7
176
     1
 90
        5
176
     1
 90
        0
176
     1
 90
        0
176
     1
290
     0
176
     1
 90
        1
176
     1
 40
0.0
176
     1
 90
        0
176
     1
290
     0
176
     1
290
     1
176
     1
290
     1
176
     1
290
     0
176
     1
290
     0
176
     1
290
     0
176
     1
290
     0
176
     1
290
     0
176
     1
290
     0
176
     1
 90
       50
176
     1
 40
0.0
176
     1
 40
1.0
176
     1
 90
        0
176
     1
 62
    18
420
        0
176
     1
 90
       50
176
     1
 90
        3
176
     1
 62
     5
420
      255
176
     1
290
     0
176
     1
 90
       50
176
     1
 90
       50
176
     1
 90
       50
176
     1
290
     0
176
     1
 90
       50
176
     1
 62
   256
176
     0
 40
1.0
176
     0
 90
        2
176
     1
  1
strokes_ogs.tif
176
     1
290
     0
176
     1
 40
1.0
176
     1
 40
1.0
176
     1
  0
VISUALSTYLE
  5
34
102
{ACAD_REACTORS
330
2A
102
}
330
2A
100
AcDbVisualStyle
  2
Conceptual
 70
     9
177
     3
291
     0
 70
    58
 90
        3
176
     1
 90
        2
176
     1
 90
        0
176
     1
 90
        0
176
     1
 40
0.6
176
     1
 40
30.0
176
     1
 62
     7
420
 16777215
176
     1
 90
        2
176
     1
 90
        2
176
     1
 62
     7
176
     1
 62
   257
176
     1
 90
        1
176
     1
 90
        1
176
     1
 40
179.0
176
     1
 90
        8
176
     1
 62
     7
176
     1
 40
1.0
176
     1
 90
        1
176
     1
 90
        6
176
     1
 90
        2
176
     1
 62
     7
176
     1
 90
        3
176
     1
 90
        0
176
     1
 90
        0
176
     1
290
     0
176
     1
 90
        1
176
     1
 40
0.0
176
     1
 90
        0
176
     1
290
     0
176
     1
290
     1
176
     1
290
     1
176
     1
290
     0
176
     1
290
     0
176
     1
290
     0
176
     1
290
     0
176
     1
290
     0
176
     1
290
     0
176
     1
 90
       50
176
     1
 40
0.0
176
     1
 40
1.0
176
     1
 90
        0
176
     1
 62
    18
420
        0
176
     1
 90
       50
176
     1
 90
        3
176
     1
 62
     5
420
      255
176
     1
290
     0
176
     1
 90
       50
176
     1
 90
       50
176
     1
 90
       50
176
     1
290
     0
176
     1
 90
       50
176
     1
 62
   256
176
     0
 40
1.0
176
     0
 90
        2
176
     1
  1
strokes_ogs.tif
176
     1
290
     0
176
     1
 40
1.0
176
     1
 40
1.0
176
     1
  0
VISUALSTYLE
  5
35
102
{ACAD_REACTORS
330
2A
102
}
330
2A
100
AcDbVisualStyle
  2
Dim
 70
    11
177
     3
291
     1
 70
    58
 90
        2
176
     1
 90
        2
176
     1
 90
        0
176
     1
 90
        0
176
     1
 40
0.6
176
     1
 40
30.0
176
     1
 62
     7
420
 16777215
176
     1
 90
        1
176
     1
 90
        4
176
     1
 62
     7
176
     1
 62
   257
176
     1
 90
        1
176
     1
 90
        1
176
     1
 40
1.0
176
     1
 90
        8
176
     1
 62
     7
176
     1
 40
1.0
176
     1
 90
        1
176
     1
 90
        6
176
     1
 90
        2
176
     1
 62
     7
176
     1
 90
        5
176
     1
 90
        0
176
     1
 90
        0
176
     1
290
     0
176
     1
 90
        1
176
     1
 40
-50.0
176
     1
 90
        0
176
     1
290
     0
176
     1
290
     1
176
     1
290
     1
176
     1
290
     0
176
     1
290
     0
176
     1
290
     0
176
     1
290
     0
176
     1
290
     0
176
     1
290
     0
176
     1
 90
       50
176
     1
 40
0.0
176
     1
 40
1.0
176
     1
 90
        0
176
     1
 62
    18
420
        0
176
     1
 90
       50
176
     1
 90
        3
176
     1
 62
     5
420
      255
176
     1
290
     0
176
     1
 90
       50
176
     1
 90
       50
176
     1
 90
       50
176
     1
290
     0
176
     1
 90
       50
176
     1
 62
   256
176
     0
 40
1.0
176
     0
 90
        2
176
     1
  1
strokes_ogs.tif
176
     1
290
     0
176
     1
 40
1.0
176
     1
 40
1.0
176
     1
  0
VISUALSTYLE
  5
3D
102
{ACAD_REACTORS
330
2A
102
}
330
2A
100
AcDbVisualStyle
  2
EdgeColorOff
 70
    22
177
     3
291
     1
 70
    58
 90
        2
176
     0
 90
        2
176
     0
 90
        0
176
     0
 90
        0
176
     0
 40
0.6
176
     0
 40
30.0
176
     0
 62
     7
420
 16777215
176
     0
 90
        1
176
     0
 90
        4
176
     0
 62
     7
176
     0
 62
   257
176
     0
 90
        1
176
     0
 90
        1
176
     0
 40
1.0
176
     0
 90
        8
176
     2
 62
     7
176
     0
 40
1.0
176
     0
 90
        1
176
     0
 90
        6
176
     0
 90
        2
176
     0
 62
     7
176
     0
 90
        5
176
     0
 90
        0
176
     0
 90
        0
176
     0
290
     0
176
     0
 90
        1
176
     0
 40
0.0
176
     0
 90
        0
176
     0
290
     0
176
     0
290
     1
176
     0
290
     1
176
     0
290
     0
176
     0
290
     0
176
     0
290
     0
176
     0
290
     0
176
     0
290
     0
176
     0
290
     0
176
     0
 90
       50
176
     0
 40
0.0
176
     0
 40
1.0
176
     0
 90
        0
176
     0
 62
    18
420
        0
176
     0
 90
       50
176
     0
 90
        3
176
     0
 62
     5
420
      255
176
     0
290
     0
176
     0
 90
       50
176
     0
 90
       50
176
     0
 90
       50
176
     0
290
     0
176
     0
 90
       50
176
     0
 62
   256
176
     0
 40
1.0
176
     0
 90
        2
176
     0
  1
strokes_ogs.tif
176
     0
290
     0
176
     0
 40
1.0
176
     0
 40
1.0
176
     0
  0
VISUALSTYLE
  5
39
102
{ACAD_REACTORS
330
2A
102
}
330
2A
100
AcDbVisualStyle
  2
Facepattern
 70
    15
177
     3
291
     1
 70
    58
 90
        2
176
     1
 90
        2
176
     1
 90
        0
176
     1
 90
        0
176
     1
 40
0.6
176
     1
 40
30.0
176
     1
 62
     7
420
 16777215
176
     1
 90
        1
176
     1
 90
        4
176
     1
 62
     7
176
     1
 62
   257
176
     1
 90
        1
176
     1
 90
        1
176
     1
 40
1.0
176
     1
 90
        8
176
     1
 62
     7
176
     1
 40
1.0
176
     1
 90
        1
176
     1
 90
        6
176
     1
 90
        2
176
     1
 62
     7
176
     1
 90
        5
176
     1
 90
        0
176
     1
 90
        0
176
     1
290
     0
176
     1
 90
        1
176
     1
 40
0.0
176
     1
 90
        0
176
     1
290
     0
176
     1
290
     1
176
     1
290
     1
176
     1
290
     0
176
     1
290
     0
176
     1
290
     0
176
     1
290
     0
176
     1
290
     0
176
     1
290
     0
176
     1
 90
       50
176
     1
 40
0.0
176
     1
 40
1.0
176
     1
 90
        0
176
     1
 62
    18
420
        0
176
     1
 90
       50
176
     1
 90
        3
176
     1
 62
     5
420
      255
176
     1
290
     0
176
     1
 90
       50
176
     1
 90
       50
176
     1
 90
       50
176
     1
290
     0
176
     1
 90
       50
176
     1
 62
   256
176
     0
 40
1.0
176
     0
 90
        2
176
     1
  1
strokes_ogs.tif
176
     1
290
     0
176
     1
 40
1.0
176
     1
 40
1.0
176
     1
  0
VISUALSTYLE
  5
2B
102
{ACAD_REACTORS
330
2A
102
}
330
2A
100
AcDbVisualStyle
  2
Flat
 70
     0
177
     3
291
     1
 70
    58
 90
        2
176
     1
 90
        1
176
     1
 90
        1
176
     1
 90
        2
176
     1
 40
0.6
176
     1
 40
30.0
176
     1
 62
     7
420
 16777215
176
     1
 90
        0
176
     1
 90
        0
176
     1
 62
     7
176
     1
 62
   257
176
     1
 90
        1
176
     1
 90
        1
176
     1
 40
1.0
176
     1
 90
        8
176
     1
 62
     7
176
     1
 40
1.0
176
     1
 90
        1
176
     1
 90
        6
176
     1
 90
        2
176
     1
 62
     7
176
     1
 90
        5
176
     1
 90
        0
176
     1
 90
        0
176
     1
290
     0
176
     1
 90
       13
176
     1
 40
0.0
176
     1
 90
        0
176
     1
290
     0
176
     1
290
     1
176
     1
290
     1
176
     1
290
     0
176
     1
290
     0
176
     1
290
     0
176
     1
290
     0
176
     1
290
     0
176
     1
290
     0
176
     1
 90
       50
176
     1
 40
0.0
176
     1
 40
1.0
176
     1
 90
        0
176
     1
 62
    18
420
        0
176
     1
 90
       50
176
     1
 90
        3
176
     1
 62
     5
420
      255
176
     1
290
     0
176
     1
 90
       50
176
     1
 90
       50
176
     1
 90
       50
176
     1
290
     0
176
     1
 90
       50
176
     1
 62
   256
176
     0
 40
1.0
176
     0
 90
        2
176
     1
  1
strokes_ogs.tif
176
     1
290
     0
176
     1
 40
1.0
176
     1
 40
1.0
176
     1
  0
VISUALSTYLE
  5
2C
102
{ACAD_REACTORS
330
2A
102
}
330
2A
100
AcDbVisualStyle
  2
FlatWithEdges
 70
     1
177
     3
291
     1
 70
    58
 90
        2
176
     1
 90
        1
176
     1
 90
        1
176
     1
 90
        2
176
     1
 40
0.6
176
     1
 40
30.0
176
     1
 62
     7
420
 16777215
176
     1
 90
        1
176
     1
 90
        0
176
     1
 62
     7
176
     1
 62
   257
176
     1
 90
        1
176
     1
 90
        1
176
     1
 40
1.0
176
     1
 90
        0
176
     1
 62
   257
176
     1
 40
1.0
176
     1
 90
        1
176
     1
 90
        6
176
     1
 90
        2
176
     1
 62
     7
176
     1
 90
        5
176
     1
 90
        0
176
     1
 90
        0
176
     1
290
     0
176
     1
 90
       13
176
     1
 40
0.0
176
     1
 90
        0
176
     1
290
     0
176
     1
290
     1
176
     1
290
     1
176
     1
290
     0
176
     1
290
     0
176
     1
290
     0
176
     1
290
     0
176
     1
290
     0
176
     1
290
     0
176
     1
 90
       50
176
     1
 40
0.0
176
     1
 40
1.0
176
     1
 90
        0
176
     1
 62
    18
420
        0
176
     1
 90
       50
176
     1
 90
        3
176
     1
 62
     5
420
      255
176
     1
290
     0
176
     1
 90
       50
176
     1
 90
       50
176
     1
 90
       50
176
     1
290
     0
176
     1
 90
       50
176
     1
 62
   256
176
     0
 40
1.0
176
     0
 90
        2
176
     1
  1
strokes_ogs.tif
176
     1
290
     0
176
     1
 40
1.0
176
     1
 40
1.0
176
     1
  0
VISUALSTYLE
  5
2D
102
{ACAD_REACTORS
330
2A
102
}
330
2A
100
AcDbVisualStyle
  2
Gouraud
 70
     2
177
     3
291
     1
 70
    58
 90
        2
176
     1
 90
        2
176
     1
 90
        1
176
     1
 90
        2
176
     1
 40
0.6
176
     1
 40
30.0
176
     1
 62
     7
420
 16777215
176
     1
 90
        0
176
     1
 90
        0
176
     1
 62
     7
176
     1
 62
   257
176
     1
 90
        1
176
     1
 90
        1
176
     1
 40
1.0
176
     1
 90
        0
176
     1
 62
     7
176
     1
 40
1.0
176
     1
 90
        1
176
     1
 90
        6
176
     1
 90
        2
176
     1
 62
     7
176
     1
 90
        5
176
     1
 90
        0
176
     1
 90
        0
176
     1
290
     0
176
     1
 90
       13
176
     1
 40
0.0
176
     1
 90
        0
176
     1
290
     0
176
     1
290
     1
176
     1
290
     1
176
     1
290
     0
176
     1
290
     0
176
     1
290
     0
176
     1
290
     0
176
     1
290
     0
176
     1
290
     0
176
     1
 90
       50
176
     1
 40
0.0
176
     1
 40
1.0
176
     1
 90
        0
176
     1
 62
    18
420
        0
176
     1
 90
       50
176
     1
 90
        3
176
     1
 62
     5
420
      255
176
     1
290
     0
176
     1
 90
       50
176
     1
 90
       50
176
     1
 90
       50
176
     1
290
     0
176
     1
 90
       50
176
     1
 62
   256
176
     0
 40
1.0
176
     0
 90
        2
176
     1
  1
strokes_ogs.tif
176
     1
290
     0
176
     1
 40
1.0
176
     1
 40
1.0
176
     1
  0
VISUALSTYLE
  5
2E
102
{ACAD_REACTORS
330
2A
102
}
330
2A
100
AcDbVisualStyle
  2
GouraudWithEdges
 70
     3
177
     3
291
     1
 70
    58
 90
        2
176
     1
 90
        2
176
     1
 90
        1
176
     1
 90
        2
176
     1
 40
0.6
176
     1
 40
30.0
176
     1
 62
     7
420
 16777215
176
     1
 90
        1
176
     1
 90
        0
176
     1
 62
     7
176
     1
 62
   257
176
     1
 90
        1
176
     1
 90
        1
176
     1
 40
1.0
176
     1
 90
        0
176
     1
 62
   257
176
     1
 40
1.0
176
     1
 90
        1
176
     1
 90
        6
176
     1
 90
        2
176
     1
 62
     7
176
     1
 90
        5
176
     1
 90
        0
176
     1
 90
        0
176
     1
290
     0
176
     1
 90
       13
176
     1
 40
0.0
176
     1
 90
        0
176
     1
290
     0
176
     1
290
     1
176
     1
290
     1
176
     1
290
     0
176
     1
290
     0
176
     1
290
     0
176
     1
290
     0
176
     1
290
     0
176
     1
290
     0
176
     1
 90
       50
176
     1
 40
0.0
176
     1
 40
1.0
176
     1
 90
        0
176
     1
 62
    18
420
        0
176
     1
 90
       50
176
     1
 90
        3
176
     1
 62
     5
420
      255
176
     1
290
     0
176
     1
 90
       50
176
     1
 90
       50
176
     1
 90
       50
176
     1
290
     0
176
     1
 90
       50
176
     1
 62
   256
176
     0
 40
1.0
176
     0
 90
        2
176
     1
  1
strokes_ogs.tif
176
     1
290
     0
176
     1
 40
1.0
176
     1
 40
1.0
176
     1
  0
VISUALSTYLE
  5
31
102
{ACAD_REACTORS
330
2A
102
}
330
2A
100
AcDbVisualStyle
  2
Hidden
 70
     6
177
     3
291
     0
 70
    58
 90
        1
176
     1
 90
        2
176
     1
 90
        2
176
     1
 90
        0
176
     1
 40
0.6
176
     1
 40
30.0
176
     1
 62
     7
420
 16777215
176
     1
 90
        2
176
     1
 90
        2
176
     1
 62
     7
176
     1
 62
   257
176
     1
 90
        2
176
     1
 90
        1
176
     1
 40
40.0
176
     1
 90
        0
176
     1
 62
   257
176
     1
 40
1.0
176
     1
 90
        1
176
     1
 90
        6
176
     1
 90
        2
176
     1
 62
     7
176
     1
 90
        3
176
     1
 90
        0
176
     1
 90
        0
176
     1
290
     0
176
     1
 90
        1
176
     1
 40
0.0
176
     1
 90
        0
176
     1
290
     0
176
     1
290
     1
176
     1
290
     1
176
     1
290
     0
176
     1
290
     0
176
     1
290
     0
176
     1
290
     0
176
     1
290
     0
176
     1
290
     0
176
     1
 90
       50
176
     1
 40
0.0
176
     1
 40
1.0
176
     1
 90
        0
176
     1
 62
    18
420
        0
176
     1
 90
       50
176
     1
 90
        3
176
     1
 62
     5
420
      255
176
     1
290
     0
176
     1
 90
       50
176
     1
 90
       50
176
     1
 90
       50
176
     1
290
     0
176
     1
 90
       50
176
     1
 62
   256
176
     0
 40
1.0
176
     0
 90
        2
176
     1
  1
strokes_ogs.tif
176
     1
290
     0
176
     1
 40
1.0
176
     1
 40
1.0
176
     1
  0
VISUALSTYLE
  5
3B
102
{ACAD_REACTORS
330
2A
102
}
330
2A
100
AcDbVisualStyle
  2
JitterOff
 70
    20
177
     3
291
     1
 70
    58
 90
        2
176
     0
 90
        2
176
     0
 90
        0
176
     0
 90
        0
176
     0
 40
0.6
176
     0
 40
30.0
176
     0
 62
     7
420
 16777215
176
     0
 90
        1
176
     0
 90
        4
176
     0
 62
     7
176
     0
 62
   257
176
     0
 90
        1
176
     0
 90
        1
176
     0
 40
1.0
176
     0
 90
       10
176
     2
 62
     7
176
     0
 40
1.0
176
     0
 90
        1
176
     0
 90
        6
176
     0
 90
        2
176
     0
 62
     7
176
     0
 90
        5
176
     0
 90
        0
176
     0
 90
        0
176
     0
290
     0
176
     0
 90
        1
176
     0
 40
0.0
176
     0
 90
        0
176
     0
290
     0
176
     0
290
     1
176
     0
290
     1
176
     0
290
     0
176
     0
290
     0
176
     0
290
     0
176
     0
290
     0
176
     0
290
     0
176
     0
290
     0
176
     0
 90
       50
176
     0
 40
0.0
176
     0
 40
1.0
176
     0
 90
        0
176
     0
 62
    18
420
        0
176
     0
 90
       50
176
     0
 90
        3
176
     0
 62
     5
420
      255
176
     0
290
     0
176
     0
 90
       50
176
     0
 90
       50
176
     0
 90
       50
176
     0
290
     0
176
     0
 90
       50
176
     0
 62
   256
176
     0
 40
1.0
176
     0
 90
        2
176
     0
  1
strokes_ogs.tif
176
     0
290
     0
176
     0
 40
1.0
176
     0
 40
1.0
176
     0
  0
VISUALSTYLE
  5
38
102
{ACAD_REACTORS
330
2A
102
}
330
2A
100
AcDbVisualStyle
  2
Linepattern
 70
    14
177
     3
291
     1
 70
    58
 90
        2
176
     1
 90
        2
176
     1
 90
        0
176
     1
 90
        0
176
     1
 40
0.6
176
     1
 40
30.0
176
     1
 62
     7
420
 16777215
176
     1
 90
        1
176
     1
 90
        4
176
     1
 62
     7
176
     1
 62
   257
176
     1
 90
        7
176
     1
 90
        7
176
     1
 40
1.0
176
     1
 90
        8
176
     1
 62
     7
176
     1
 40
1.0
176
     1
 90
        1
176
     1
 90
        6
176
     1
 90
        2
176
     1
 62
     7
176
     1
 90
        5
176
     1
 90
        0
176
     1
 90
        0
176
     1
290
     0
176
     1
 90
        1
176
     1
 40
0.0
176
     1
 90
        0
176
     1
290
     0
176
     1
290
     1
176
     1
290
     1
176
     1
290
     0
176
     1
290
     0
176
     1
290
     0
176
     1
290
     0
176
     1
290
     0
176
     1
290
     0
176
     1
 90
       50
176
     1
 40
0.0
176
     1
 40
1.0
176
     1
 90
        0
176
     1
 62
    18
420
        0
176
     1
 90
       50
176
     1
 90
        3
176
     1
 62
     5
420
      255
176
     1
290
     0
176
     1
 90
       50
176
     1
 90
       50
176
     1
 90
       50
176
     1
290
     0
176
     1
 90
       50
176
     1
 62
   256
176
     0
 40
1.0
176
     0
 90
        2
176
     1
  1
strokes_ogs.tif
176
     1
290
     0
176
     1
 40
1.0
176
     1
 40
1.0
176
     1
  0
VISUALSTYLE
  5
3C
102
{ACAD_REACTORS
330
2A
102
}
330
2A
100
AcDbVisualStyle
  2
OverhangOff
 70
    21
177
     3
291
     1
 70
    58
 90
        2
176
     0
 90
        2
176
     0
 90
        0
176
     0
 90
        0
176
     0
 40
0.6
176
     0
 40
30.0
176
     0
 62
     7
420
 16777215
176
     0
 90
        1
176
     0
 90
        4
176
     0
 62
     7
176
     0
 62
   257
176
     0
 90
        1
176
     0
 90
        1
176
     0
 40
1.0
176
     0
 90
        9
176
     2
 62
     7
176
     0
 40
1.0
176
     0
 90
        1
176
     0
 90
        6
176
     0
 90
        2
176
     0
 62
     7
176
     0
 90
        5
176
     0
 90
        0
176
     0
 90
        0
176
     0
290
     0
176
     0
 90
        1
176
     0
 40
0.0
176
     0
 90
        0
176
     0
290
     0
176
     0
290
     1
176
     0
290
     1
176
     0
290
     0
176
     0
290
     0
176
     0
290
     0
176
     0
290
     0
176
     0
290
     0
176
     0
290
     0
176
     0
 90
       50
176
     0
 40
0.0
176
     0
 40
1.0
176
     0
 90
        0
176
     0
 62
    18
420
        0
176
     0
 90
       50
176
     0
 90
        3
176
     0
 62
     5
420
      255
176
     0
290
     0
176
     0
 90
       50
176
     0
 90
       50
176
     0
 90
       50
176
     0
290
     0
176
     0
 90
       50
176
     0
 62
   256
176
     0
 40
1.0
176
     0
 90
        2
176
     0
  1
strokes_ogs.tif
176
     0
290
     0
176
     0
 40
1.0
176
     0
 40
1.0
176
     0
  0
VISUALSTYLE
  5
33
102
{ACAD_REACTORS
330
2A
102
}
330
2A
100
AcDbVisualStyle
  2
Realistic
 70
     8
177
     3
291
     0
 70
    58
 90
        2
176
     1
 90
        3
176
     1
 90
        0
176
     1
 90
        2
176
     1
 40
0.6
176
     1
 40
30.0
176
     1
 62
     7
420
 16777215
176
     1
 90
        0
176
     1
 90
        0
176
     1
 62
     7
176
     1
 62
   257
176
     1
 90
        1
176
     1
 90
        1
176
     1
 40
1.0
176
     1
 90
        8
176
     1
 62
   257
176
     1
 40
1.0
176
     1
 90
        1
176
     1
 90
        6
176
     1
 90
        2
176
     1
 62
     7
176
     1
 90
        3
176
     1
 90
        0
176
     1
 90
        0
176
     1
290
     0
176
     1
 90
       13
176
     1
 40
0.0
176
     1
 90
        0
176
     1
290
     0
176
     1
290
     1
176
     1
290
     1
176
     1
290
     0
176
     1
290
     0
176
     1
290
     0
176
     1
290
     0
176
     1
290
     0
176
     1
290
     0
176
     1
 90
       50
176
     1
 40
0.0
176
     1
 40
1.0
176
     1
 90
        0
176
     1
 62
    18
420
        0
176
     1
 90
       50
176
     1
 90
        3
176
     1
 62
     5
420
      255
176
     1
290
     0
176
     1
 90
       50
176
     1
 90
       50
176
     1
 90
       50
176
     1
290
     0
176
     1
 90
       50
176
     1
 62
   256
176
     0
 40
1.0
176
     0
 90
        2
176
     1
  1
strokes_ogs.tif
176
     1
290
     0
176
     1
 40
1.0
176
     1
 40
1.0
176
     1
  0
VISUALSTYLE
  5
42
102
{ACAD_REACTORS
330
2A
102
}
330
2A
100
AcDbVisualStyle
  2
Shaded
 70
    27
177
     3
291
     0
 70
    58
 90
        2
176
     1
 90
        2
176
     1
 90
        1
176
     1
 90
        2
176
     1
 40
0.6
176
     1
 40
30.0
176
     1
 62
     7
420
 16777215
176
     1
 90
        0
176
     1
 90
        4
176
     1
 62
     7
176
     1
 62
   257
176
     1
 90
        1
176
     1
 90
        1
176
     1
 40
1.0
176
     1
 90
        8
176
     1
 62
   257
176
     1
 40
1.0
176
     1
 90
        1
176
     1
 90
        6
176
     1
 90
        2
176
     1
 62
     8
420
  7895160
176
     1
 90
        3
176
     1
 90
        0
176
     1
 90
        0
176
     1
290
     0
176
     1
 90
        5
176
     1
 40
0.0
176
     1
 90
        0
176
     1
290
     0
176
     1
290
     1
176
     1
290
     1
176
     1
290
     0
176
     1
290
     0
176
     1
290
     0
176
     1
290
     0
176
     1
290
     0
176
     1
290
     0
176
     1
 90
       50
176
     1
 40
0.0
176
     1
 40
1.0
176
     1
 90
        0
176
     1
 62
    18
420
        0
176
     1
 90
       50
176
     1
 90
        3
176
     1
 62
     5
420
      255
176
     1
290
     0
176
     1
 90
       50
176
     1
 90
       50
176
     1
 90
       50
176
     1
290
     0
176
     1
 90
       50
176
     1
 62
   256
176
     0
 40
1.0
176
     0
 90
        2
176
     1
  1
strokes_ogs.tif
176
     1
290
     0
176
     1
 40
1.0
176
     1
 40
1.0
176
     1
  0
VISUALSTYLE
  5
41
102
{ACAD_REACTORS
330
2A
102
}
330
2A
100
AcDbVisualStyle
  2
Shaded with edges
 70
    26
177
     3
291
     0
 70
    58
 90
        2
176
     1
 90
        2
176
     1
 90
        1
176
     1
 90
        2
176
     1
 40
0.6
176
     1
 40
30.0
176
     1
 62
     7
420
 16777215
176
     1
 90
        1
176
     1
 90
       10
176
     1
 62
     7
176
     1
 62
   257
176
     1
 90
        2
176
     1
 90
        1
176
     1
 40
1.0
176
     1
 90
        8
176
     1
 62
   257
176
     1
 40
1.0
176
     1
 90
        1
176
     1
 90
        6
176
     1
 90
        2
176
     1
 62
     7
176
     1
 90
        3
176
     1
 90
        0
176
     1
 90
        0
176
     1
290
     0
176
     1
 90
        5
176
     1
 40
0.0
176
     1
 90
        0
176
     1
290
     0
176
     1
290
     1
176
     1
290
     1
176
     1
290
     0
176
     1
290
     0
176
     1
290
     0
176
     1
290
     0
176
     1
290
     0
176
     1
290
     0
176
     1
 90
       50
176
     1
 40
0.0
176
     1
 40
1.0
176
     1
 90
        0
176
     1
 62
    18
420
        0
176
     1
 90
       50
176
     1
 90
        3
176
     1
 62
     5
420
      255
176
     1
290
     0
176
     1
 90
       50
176
     1
 90
       50
176
     1
 90
       50
176
     1
290
     0
176
     1
 90
       50
176
     1
 62
   256
176
     0
 40
1.0
176
     0
 90
        2
176
     1
  1
strokes_ogs.tif
176
     1
290
     0
176
     1
 40
1.0
176
     1
 40
1.0
176
     1
  0
VISUALSTYLE
  5
3E
102
{ACAD_REACTORS
330
2A
102
}
330
2A
100
AcDbVisualStyle
  2
Shades of Gray
 70
    23
177
     3
291
     0
 70
    58
 90
        2
176
     1
 90
        2
176
     1
 90
        3
176
     1
 90
        0
176
     1
 40
0.6
176
     1
 40
30.0
176
     1
 62
     7
420
 16777215
176
     1
 90
        2
176
     1
 90
        2
176
     1
 62
     7
176
     1
 62
     7
176
     1
 90
        1
176
     1
 90
        1
176
     1
 40
40.0
176
     1
 90
        8
176
     1
 62
     7
176
     1
 40
1.0
176
     1
 90
        1
176
     1
 90
        6
176
     1
 90
        2
176
     1
 62
     7
176
     1
 90
        3
176
     1
 90
        0
176
     1
 90
        0
176
     1
290
     0
176
     1
 90
        1
176
     1
 40
0.0
176
     1
 90
        0
176
     1
290
     0
176
     1
290
     1
176
     1
290
     1
176
     1
290
     0
176
     1
290
     0
176
     1
290
     0
176
     1
290
     0
176
     1
290
     0
176
     1
290
     0
176
     1
 90
       50
176
     1
 40
0.0
176
     1
 40
1.0
176
     1
 90
        0
176
     1
 62
    18
420
        0
176
     1
 90
       50
176
     1
 90
        3
176
     1
 62
     5
420
      255
176
     1
290
     0
176
     1
 90
       50
176
     1
 90
       50
176
     1
 90
       50
176
     1
290
     0
176
     1
 90
       50
176
     1
 62
   256
176
     0
 40
1.0
176
     0
 90
        2
176
     1
  1
strokes_ogs.tif
176
     1
290
     0
176
     1
 40
1.0
176
     1
 40
1.0
176
     1
  0
VISUALSTYLE
  5
3F
102
{ACAD_REACTORS
330
2A
102
}
330
2A
100
AcDbVisualStyle
  2
Sketchy
 70
    24
177
     3
291
     0
 70
    58
 90
        1
176
     1
 90
        2
176
     1
 90
        2
176
     1
 90
        0
176
     1
 40
0.6
176
     1
 40
30.0
176
     1
 62
     7
420
 16777215
176
     1
 90
        2
176
     1
 90
        2
176
     1
 62
     7
176
     1
 62
     7
176
     1
 90
        1
176
     1
 90
        1
176
     1
 40
40.0
176
     1
 90
       11
176
     1
 62
     7
176
     1
 40
1.0
176
     1
 90
        1
176
     1
 90
        6
176
     1
 90
        2
176
     1
 62
     7
176
     1
 90
        6
176
     1
 90
        0
176
     1
 90
        0
176
     1
290
     0
176
     1
 90
        1
176
     1
 40
0.0
176
     1
 90
        0
176
     1
290
     0
176
     1
290
     1
176
     1
290
     1
176
     1
290
     0
176
     1
290
     0
176
     1
290
     0
176
     1
290
     0
176
     1
290
     0
176
     1
290
     0
176
     1
 90
       50
176
     1
 40
0.0
176
     1
 40
1.0
176
     1
 90
        0
176
     1
 62
    18
420
        0
176
     1
 90
       50
176
     1
 90
        3
176
     1
 62
     5
420
      255
176
     1
290
     0
176
     1
 90
       50
176
     1
 90
       50
176
     1
 90
       50
176
     1
290
     0
176
     1
 90
       50
176
     1
 62
   256
176
     0
 40
1.0
176
     0
 90
        2
176
     1
  1
strokes_ogs.tif
176
     1
290
     0
176
     1
 40
1.0
176
     1
 40
1.0
176
     1
  0
VISUALSTYLE
  5
37
102
{ACAD_REACTORS
330
2A
102
}
330
2A
100
AcDbVisualStyle
  2
Thicken
 70
    13
177
     3
291
     1
 70
    58
 90
        2
176
     1
 90
        2
176
     1
 90
        0
176
     1
 90
        0
176
     1
 40
0.6
176
     1
 40
30.0
176
     1
 62
     7
420
 16777215
176
     1
 90
        1
176
     1
 90
        4
176
     1
 62
     7
176
     1
 62
   257
176
     1
 90
        1
176
     1
 90
        1
176
     1
 40
1.0
176
     1
 90
       12
176
     1
 62
     7
176
     1
 40
1.0
176
     1
 90
        1
176
     1
 90
        6
176
     1
 90
        2
176
     1
 62
     7
176
     1
 90
        5
176
     1
 90
        0
176
     1
 90
        0
176
     1
290
     0
176
     1
 90
        1
176
     1
 40
0.0
176
     1
 90
        0
176
     1
290
     0
176
     1
290
     1
176
     1
290
     1
176
     1
290
     0
176
     1
290
     0
176
     1
290
     0
176
     1
290
     0
176
     1
290
     0
176
     1
290
     0
176
     1
 90
       50
176
     1
 40
0.0
176
     1
 40
1.0
176
     1
 90
        0
176
     1
 62
    18
420
        0
176
     1
 90
       50
176
     1
 90
        3
176
     1
 62
     5
420
      255
176
     1
290
     0
176
     1
 90
       50
176
     1
 90
       50
176
     1
 90
       50
176
     1
290
     0
176
     1
 90
       50
176
     1
 62
   256
176
     0
 40
1.0
176
     0
 90
        2
176
     1
  1
strokes_ogs.tif
176
     1
290
     0
176
     1
 40
1.0
176
     1
 40
1.0
176
     1
  0
VISUALSTYLE
  5
30
102
{ACAD_REACTORS
330
2A
102
}
330
2A
100
AcDbVisualStyle
  2
Wireframe
 70
     5
177
     3
291
     0
 70
    58
 90
        0
176
     1
 90
        2
176
     1
 90
        0
176
     1
 90
        0
176
     1
 40
0.6
176
     1
 40
30.0
176
     1
 62
     7
420
 16777215
176
     1
 90
        1
176
     1
 90
        4
176
     1
 62
     7
176
     1
 62
   257
176
     1
 90
        1
176
     1
 90
        1
176
     1
 40
1.0
176
     1
 90
        0
176
     1
 62
   257
176
     1
 40
1.0
176
     1
 90
        1
176
     1
 90
        6
176
     1
 90
        2
176
     1
 62
     7
176
     1
 90
        3
176
     1
 90
        0
176
     1
 90
        0
176
     1
290
     0
176
     1
 90
        1
176
     1
 40
0.0
176
     1
 90
        0
176
     1
290
     0
176
     1
290
     1
176
     1
290
     1
176
     1
290
     0
176
     1
290
     0
176
     1
290
     0
176
     1
290
     0
176
     1
290
     0
176
     1
290
     0
176
     1
 90
       50
176
     1
 40
0.0
176
     1
 40
1.0
176
     1
 90
        0
176
     1
 62
    18
420
        0
176
     1
 90
       50
176
     1
 90
        3
176
     1
 62
     5
420
      255
176
     1
290
     0
176
     1
 90
       50
176
     1
 90
       50
176
     1
 90
       50
176
     1
290
     0
176
     1
 90
       50
176
     1
 62
   256
176
     0
 40
1.0
176
     0
 90
        2
176
     1
  1
strokes_ogs.tif
176
     1
290
     0
176
     1
 40
1.0
176
     1
 40
1.0
176
     1
  0
VISUALSTYLE
  5
40
102
{ACAD_REACTORS
330
2A
102
}
330
2A
100
AcDbVisualStyle
  2
X-Ray
 70
    25
177
     3
291
     0
 70
    58
 90
        2
176
     1
 90
        2
176
     1
 90
        1
176
     1
 90
        1
176
     1
 40
0.5
176
     1
 40
30.0
176
     1
 62
     7
420
 16777215
176
     1
 90
        1
176
     1
 90
        0
176
     1
 62
     7
176
     1
 62
   257
176
     1
 90
        1
176
     1
 90
        1
176
     1
 40
1.0
176
     1
 90
        8
176
     1
 62
     7
176
     1
 40
1.0
176
     1
 90
        1
176
     1
 90
        6
176
     1
 90
        2
176
     1
 62
     7
176
     1
 90
        3
176
     1
 90
        0
176
     1
 90
        0
176
     1
290
     0
176
     1
 90
       13
176
     1
 40
0.0
176
     1
 90
        0
176
     1
290
     0
176
     1
290
     1
176
     1
290
     1
176
     1
290
     0
176
     1
290
     0
176
     1
290
     0
176
     1
290
     0
176
     1
290
     0
176
     1
290
     0
176
     1
 90
       50
176
     1
 40
0.0
176
     1
 40
1.0
176
     1
 90
        0
176
     1
 62
    18
420
        0
176
     1
 90
       50
176
     1
 90
        3
176
     1
 62
     5
420
      255
176
     1
290
     0
176
     1
 90
       50
176
     1
 90
       50
176
     1
 90
       50
176
     1
290
     0
176
     1
 90
       50
176
     1
 62
   256
176
     0
 40
1.0
176
     0
 90
        2
176
     1
  1
strokes_ogs.tif
176
     1
290
     0
176
     1
 40
1.0
176
     1
 40
1.0
176
     1
  0
DICTIONARYVAR
  5
1CA
102
{ACAD_REACTORS
330
1C9
102
}
330
1C9
100
DictionaryVariables
280
     0
  1
1:1
  0
ENDSEC
  0
EOF
